<svg width="213" height="67" viewBox="0 0 213 67" fill="none" xmlns="http://www.w3.org/2000/svg">
<path d="M0.65525 20.92H25.4713V25.576H24.4633C24.4633 24.04 23.9033 23.032 22.7833 22.552H16.1113V47.032C16.3993 47.672 17.4073 47.992 19.1353 47.992V49H6.99125V47.992C8.71925 47.992 9.72725 47.672 10.0153 47.032V22.552H3.34325C2.22325 23.032 1.66325 24.04 1.66325 25.576H0.65525V20.92ZM30.9155 37.432C30.9795 40.216 31.6035 42.616 32.7875 44.632C34.0035 46.648 35.5395 47.656 37.3955 47.656C40.1795 47.656 42.4195 46.6 44.1155 44.488L45.2675 45.064C44.3395 46.6 43.1235 47.72 41.6195 48.424C40.1475 49.128 38.1955 49.48 35.7635 49.48C34.5155 49.48 33.2995 49.304 32.1155 48.952C30.9315 48.568 29.7475 47.96 28.5635 47.128C27.4115 46.264 26.4675 45 25.7315 43.336C25.0275 41.672 24.6755 39.688 24.6755 37.384C24.6755 34.6 25.6515 32.248 27.6035 30.328C29.5875 28.376 32.1475 27.4 35.2835 27.4C38.7075 27.4 41.3635 28.376 43.2515 30.328C45.1395 32.248 46.0835 34.616 46.0835 37.432H30.9155ZM30.9635 35.944H39.6995C39.5075 33.672 39.1075 31.928 38.4995 30.712C37.9235 29.464 36.9795 28.84 35.6675 28.84C34.5155 28.84 33.4755 29.432 32.5475 30.616C31.6515 31.768 31.1235 33.544 30.9635 35.944ZM47.9064 49V47.992C49.6344 47.992 50.6424 47.672 50.9304 47.032V22.12C49.2024 21.992 48.1944 21.928 47.9064 21.928V20.824C48.5144 20.824 49.9864 20.488 52.3224 19.816C54.6584 19.112 56.1944 18.76 56.9304 18.76V47.032C57.2184 47.672 58.2264 47.992 59.9544 47.992V49H47.9064ZM68.1343 37.432C68.1983 40.216 68.8223 42.616 70.0063 44.632C71.2223 46.648 72.7583 47.656 74.6143 47.656C77.3983 47.656 79.6383 46.6 81.3343 44.488L82.4863 45.064C81.5583 46.6 80.3423 47.72 78.8383 48.424C77.3663 49.128 75.4143 49.48 72.9823 49.48C71.7343 49.48 70.5183 49.304 69.3343 48.952C68.1503 48.568 66.9663 47.96 65.7823 47.128C64.6303 46.264 63.6863 45 62.9503 43.336C62.2463 41.672 61.8943 39.688 61.8943 37.384C61.8943 34.6 62.8703 32.248 64.8223 30.328C66.8063 28.376 69.3663 27.4 72.5023 27.4C75.9263 27.4 78.5823 28.376 80.4703 30.328C82.3583 32.248 83.3023 34.616 83.3023 37.432H68.1343ZM68.1823 35.944H76.9183C76.7263 33.672 76.3263 31.928 75.7183 30.712C75.1423 29.464 74.1983 28.84 72.8863 28.84C71.7343 28.84 70.6943 29.432 69.7663 30.616C68.8703 31.768 68.3423 33.544 68.1823 35.944ZM85.1251 58.216V57.208C86.8531 57.208 87.8611 56.888 88.1491 56.248V30.808C88.1491 30.808 87.1411 30.728 85.1251 30.568V29.464C85.7331 29.464 87.2051 29.128 89.5411 28.456C91.8771 27.752 93.4131 27.4 94.1491 27.4V28.696C95.5891 27.832 97.3491 27.4 99.4291 27.4C100.901 27.4 102.245 27.576 103.461 27.928C104.677 28.28 105.829 28.856 106.917 29.656C108.005 30.456 108.853 31.624 109.461 33.16C110.101 34.664 110.421 36.456 110.421 38.536C110.421 42.152 109.365 44.888 107.253 46.744C105.173 48.568 102.213 49.48 98.3731 49.48C96.7411 49.48 95.3331 49.208 94.1491 48.664V56.248C94.4371 56.888 95.4451 57.208 97.1731 57.208V58.216H85.1251ZM94.1491 30.232V47.128C95.3011 47.608 96.6131 47.848 98.0851 47.848C99.8131 47.848 101.253 47.048 102.405 45.448C103.589 43.816 104.181 41.512 104.181 38.536C104.181 37.32 103.989 36.008 103.605 34.6C103.221 33.16 102.613 31.88 101.781 30.76C100.949 29.608 100.005 29.032 98.9491 29.032C96.9971 29.032 95.3971 29.432 94.1491 30.232ZM118.209 31.432C118.945 31.432 119.313 32.088 119.313 33.4C119.313 33.944 119.041 34.36 118.497 34.648C117.953 34.936 117.377 35.08 116.769 35.08C116.129 35.08 115.553 34.856 115.041 34.408C114.561 33.96 114.321 33.384 114.321 32.68C114.321 31.048 115.121 29.768 116.721 28.84C118.353 27.88 120.465 27.4 123.057 27.4C126.097 27.4 128.465 28.168 130.161 29.704C131.857 31.208 132.705 33.128 132.705 35.464V44.968C132.705 45.992 132.865 46.744 133.185 47.224C133.537 47.704 133.953 47.944 134.433 47.944C134.849 47.944 135.217 47.832 135.537 47.608C135.889 47.384 136.065 47.112 136.065 46.792H136.929C136.929 48.52 135.169 49.384 131.649 49.384C130.017 49.384 128.753 48.808 127.857 47.656C125.937 48.872 123.713 49.48 121.185 49.48C115.841 49.48 113.169 47.528 113.169 43.624C113.169 42.824 113.441 42.104 113.985 41.464C114.561 40.824 115.425 40.28 116.577 39.832C117.729 39.384 118.753 39.032 119.649 38.776C120.577 38.52 121.841 38.232 123.441 37.912C125.041 37.56 126.129 37.304 126.705 37.144C126.705 34.136 126.449 32.056 125.937 30.904C125.457 29.72 124.337 29.128 122.577 29.128C121.521 29.128 120.561 29.352 119.697 29.8C118.865 30.216 118.369 30.76 118.209 31.432ZM127.185 46.504C126.865 45.64 126.705 44.68 126.705 43.624V38.2C123.985 39.032 122.193 39.72 121.329 40.264C119.985 41.16 119.313 42.312 119.313 43.72C119.313 45.192 119.617 46.248 120.225 46.888C120.865 47.528 121.585 47.848 122.385 47.848C123.793 47.848 125.393 47.4 127.185 46.504ZM146.093 20.92V27.88H150.221V29.32H146.093V44.584C146.093 45.576 146.269 46.344 146.621 46.888C146.973 47.4 147.629 47.656 148.589 47.656C149.165 47.656 149.741 47.384 150.317 46.84C150.925 46.264 151.341 45.48 151.565 44.488L152.717 45.064C152.045 48.008 150.125 49.48 146.957 49.48C144.461 49.48 142.637 48.92 141.485 47.8C140.365 46.648 139.805 44.776 139.805 42.184V29.32H136.445V27.88C138.333 27.88 139.981 27.176 141.389 25.768C142.797 24.328 143.501 22.712 143.501 20.92H146.093ZM153.75 49V47.992C155.478 47.992 156.486 47.672 156.774 47.032V22.12C155.046 21.992 154.038 21.928 153.75 21.928V20.824C154.358 20.824 155.83 20.488 158.166 19.816C160.502 19.112 162.038 18.76 162.774 18.76V29.272C164.694 28.024 166.598 27.4 168.486 27.4C171.654 27.4 174.054 27.912 175.686 28.936C177.318 29.96 178.134 31.656 178.134 34.024V47.032C178.422 47.672 179.43 47.992 181.158 47.992V49H169.11V47.992C170.838 47.992 171.846 47.672 172.134 47.032V35.176C172.134 32.968 171.798 31.4 171.126 30.472C170.486 29.512 169.51 29.032 168.198 29.032C166.278 29.032 164.47 29.608 162.774 30.76V47.032C163.062 47.672 164.07 47.992 165.798 47.992V49H153.75ZM191.197 27.88V28.888C190.269 28.888 189.597 28.952 189.181 29.08L194.893 43.144L200.365 29.416C199.917 29.064 199.021 28.888 197.677 28.888V27.88H205.549V28.888C203.821 28.888 202.845 29.144 202.621 29.656L192.925 53.896C191.869 56.52 190.189 57.832 187.885 57.832C185.549 57.832 184.381 57.064 184.381 55.528C184.381 54.952 184.557 54.488 184.909 54.136C185.293 53.784 185.821 53.608 186.493 53.608C187.005 53.608 187.453 53.848 187.837 54.328C188.221 54.808 188.653 55.048 189.133 55.048C189.805 55.048 190.253 54.76 190.477 54.184L191.725 51.112L183.229 29.848C182.941 29.208 181.933 28.888 180.205 28.888V27.88H191.197Z" fill="white"/>
<circle cx="209.5" cy="22.5" r="3.5" fill="#E85A5A"/>
</svg>
