<svg width="286" height="115" viewBox="0 0 286 115" fill="none" xmlns="http://www.w3.org/2000/svg">
<rect width="87" height="55" rx="6" fill="white" fill-opacity="0.1"/>
<rect x="1.5" y="1.5" width="84" height="52" rx="4.5" stroke="#EAE1E1" stroke-opacity="0.75" stroke-width="3"/>
<rect x="100" width="87" height="55" rx="6" fill="#D9D5C8" fill-opacity="0.33"/>
<rect x="101.5" y="1.5" width="84" height="52" rx="4.5" stroke="#EAE1E1" stroke-opacity="0.79" stroke-width="3"/>
<rect x="199" width="87" height="55" rx="6" fill="white" fill-opacity="0.1"/>
<rect x="200.5" y="1.5" width="84" height="52" rx="4.5" stroke="#EAE1E1" stroke-opacity="0.79" stroke-width="3"/>
<path d="M27.365 31.985C27.183 32.0717 27.0053 32.1107 26.832 32.102C26.6673 32.0847 26.5677 32.0067 26.533 31.868C26.5157 31.79 26.533 31.7207 26.585 31.66C26.637 31.5907 26.7063 31.5257 26.793 31.465C27.2437 31.179 27.6987 30.8193 28.158 30.386C28.6173 29.944 29.0507 29.4587 29.458 28.93C29.8653 28.3927 30.2207 27.8293 30.524 27.24C30.836 26.6507 31.07 26.0657 31.226 25.485C31.2433 25.3897 31.2087 25.342 31.122 25.342C30.8793 25.3507 30.6237 25.3593 30.355 25.368C30.0863 25.3767 29.874 25.3897 29.718 25.407C29.4753 25.4243 29.2023 25.4503 28.899 25.485C28.6043 25.511 28.327 25.55 28.067 25.602C28.0583 25.602 28.0497 25.602 28.041 25.602C27.8937 25.6367 27.7897 25.654 27.729 25.654C27.677 25.6453 27.6033 25.5977 27.508 25.511C27.4473 25.459 27.352 25.3637 27.222 25.225C27.1007 25.0863 27.0183 24.978 26.975 24.9C26.9577 24.822 26.9923 24.731 27.079 24.627C27.1657 24.5143 27.2437 24.458 27.313 24.458C27.6337 24.5187 28.002 24.5577 28.418 24.575C28.8427 24.5923 29.224 24.5923 29.562 24.575C29.822 24.5577 30.0863 24.536 30.355 24.51C30.6237 24.484 30.862 24.4493 31.07 24.406C31.2867 24.3627 31.434 24.3193 31.512 24.276C31.5727 24.25 31.6247 24.2413 31.668 24.25C31.7113 24.25 31.7547 24.2587 31.798 24.276C31.8067 24.276 31.811 24.276 31.811 24.276C31.9497 24.3193 32.1143 24.38 32.305 24.458C32.5043 24.5273 32.6603 24.5837 32.773 24.627C32.9203 24.679 32.9593 24.7917 32.89 24.965C32.8553 25.0777 32.7903 25.2423 32.695 25.459C32.6083 25.667 32.5347 25.8447 32.474 25.992C32.2747 26.5033 32.0017 27.0537 31.655 27.643C31.3083 28.2323 30.9053 28.813 30.446 29.385C29.9953 29.9483 29.5057 30.4597 28.977 30.919C28.457 31.3783 27.9197 31.7337 27.365 31.985ZM34.931 34.39C34.7837 34.39 34.6883 34.2817 34.645 34.065C34.619 33.9177 34.5973 33.74 34.58 33.532C34.5713 33.324 34.567 33.1203 34.567 32.921C34.567 32.7217 34.567 32.5657 34.567 32.453V24.77C34.567 24.7527 34.567 24.7267 34.567 24.692C34.567 24.3887 34.541 24.1503 34.489 23.977C34.4457 23.8037 34.2853 23.6347 34.008 23.47C33.956 23.4353 33.9083 23.3963 33.865 23.353C33.8217 23.3097 33.8 23.2577 33.8 23.197C33.8 23.1017 33.8477 22.9933 33.943 22.872C34.0383 22.7507 34.1553 22.69 34.294 22.69C34.3893 22.69 34.5193 22.716 34.684 22.768C34.8487 22.8113 35.0177 22.872 35.191 22.95C35.3643 23.0193 35.5117 23.093 35.633 23.171C35.7977 23.275 35.88 23.379 35.88 23.483C35.8713 23.5957 35.8497 23.782 35.815 24.042C35.789 24.2933 35.776 24.536 35.776 24.77L35.763 32.388C35.763 32.5527 35.75 32.7477 35.724 32.973C35.698 33.1983 35.6503 33.4193 35.581 33.636C35.5203 33.8527 35.4337 34.0303 35.321 34.169C35.217 34.3163 35.087 34.39 34.931 34.39ZM46.5576 34.338C46.4016 34.338 46.3019 34.2297 46.2586 34.013C46.2326 33.857 46.2109 33.675 46.1936 33.467C46.1849 33.2503 46.1762 33.0467 46.1676 32.856C46.1676 32.6567 46.1676 32.505 46.1676 32.401V27.656C45.9769 27.682 45.7602 27.721 45.5176 27.773C45.3962 27.8077 45.2879 27.8207 45.1926 27.812C45.0972 27.8033 44.9976 27.773 44.8936 27.721V29.697C44.8849 30.0177 44.8112 30.3037 44.6726 30.555C44.5339 30.8063 44.3649 30.932 44.1656 30.932C44.0529 30.932 43.9662 30.893 43.9056 30.815C43.8449 30.737 43.8059 30.633 43.7886 30.503C43.6499 30.503 43.4939 30.503 43.3206 30.503C43.1559 30.503 42.9912 30.5073 42.8266 30.516C42.7659 30.6547 42.6836 30.7717 42.5796 30.867C42.4756 30.9537 42.3672 30.997 42.2546 30.997C42.0292 30.997 41.9122 30.7847 41.9036 30.36V26.213C41.9036 26.161 41.9036 26.1133 41.9036 26.07C41.9036 26.0267 41.9036 25.9833 41.9036 25.94C41.8949 25.654 41.8776 25.4287 41.8516 25.264C41.8342 25.0993 41.7649 24.9563 41.6436 24.835C41.5829 24.7743 41.5352 24.718 41.5006 24.666C41.4746 24.6053 41.4876 24.5317 41.5396 24.445C41.6869 24.1937 41.8949 24.12 42.1636 24.224C42.2589 24.2587 42.3759 24.328 42.5146 24.432C42.6619 24.5273 42.7702 24.6097 42.8396 24.679C42.9176 24.7483 42.9609 24.8047 42.9696 24.848C42.9869 24.8913 42.9999 24.9347 43.0086 24.978C42.9912 25.134 42.9782 25.342 42.9696 25.602C42.9609 25.8533 42.9566 26.0613 42.9566 26.226V26.603C43.0866 26.603 43.2252 26.5987 43.3726 26.59C43.5286 26.5813 43.6629 26.5727 43.7756 26.564V25.641C43.7756 25.381 43.7669 25.186 43.7496 25.056C43.7409 24.926 43.7149 24.8263 43.6716 24.757C43.6282 24.679 43.5676 24.6097 43.4896 24.549C43.4289 24.5057 43.3856 24.4493 43.3596 24.38C43.3336 24.3107 43.3422 24.2327 43.3856 24.146C43.4462 23.9987 43.5286 23.9077 43.6326 23.873C43.7452 23.8383 43.8579 23.8383 43.9706 23.873C44.1092 23.9077 44.2349 23.9597 44.3476 24.029C44.4689 24.0983 44.5902 24.1763 44.7116 24.263C44.8069 24.3237 44.8676 24.3843 44.8936 24.445C44.9282 24.497 44.9499 24.5447 44.9586 24.588C44.9326 24.7353 44.9152 24.926 44.9066 25.16C44.9066 25.3853 44.9066 25.5803 44.9066 25.745L44.8936 26.889C45.1276 26.8977 45.3529 26.8977 45.5696 26.889C45.7862 26.8803 45.9856 26.8717 46.1676 26.863V24.575C46.1676 24.3323 46.1589 24.1503 46.1416 24.029C46.1242 23.9077 46.0766 23.808 45.9986 23.73C45.9292 23.6433 45.8122 23.548 45.6476 23.444C45.5609 23.392 45.4959 23.3313 45.4526 23.262C45.4179 23.1927 45.4222 23.1103 45.4656 23.015C45.5349 22.8677 45.6259 22.7723 45.7386 22.729C45.8512 22.6857 45.9769 22.677 46.1156 22.703C46.3149 22.7377 46.5142 22.807 46.7136 22.911C46.9129 23.015 47.0819 23.1147 47.2206 23.21C47.3766 23.314 47.4546 23.418 47.4546 23.522C47.4372 23.6347 47.4156 23.7907 47.3896 23.99C47.3636 24.1893 47.3506 24.3887 47.3506 24.588L47.3376 32.336C47.3376 32.5007 47.3246 32.6957 47.2986 32.921C47.2812 33.1463 47.2422 33.3673 47.1816 33.584C47.1296 33.8007 47.0516 33.9783 46.9476 34.117C46.8522 34.2643 46.7222 34.338 46.5576 34.338ZM38.8486 31.114C38.7359 31.114 38.6492 31.0707 38.5886 30.984C38.5279 30.8887 38.4932 30.7327 38.4846 30.516L38.4326 26.759C38.4326 26.5077 38.4282 26.304 38.4196 26.148C38.4109 25.992 38.3849 25.862 38.3416 25.758C38.2982 25.6453 38.2202 25.5283 38.1076 25.407C38.0469 25.3463 38.0036 25.2857 37.9776 25.225C37.9602 25.1557 37.9776 25.0777 38.0296 24.991C38.1769 24.731 38.3762 24.6443 38.6276 24.731C38.7662 24.7743 38.9006 24.8437 39.0306 24.939C39.1692 25.0343 39.2862 25.1297 39.3816 25.225C39.4509 25.2943 39.4986 25.355 39.5246 25.407C39.5506 25.4503 39.5636 25.4937 39.5636 25.537C39.5376 25.6843 39.5202 25.8663 39.5116 26.083C39.5116 26.2997 39.5116 26.4903 39.5116 26.655V26.798C39.6329 26.798 39.7586 26.798 39.8886 26.798C40.0272 26.7893 40.1529 26.7807 40.2656 26.772V26.304C40.2656 26.252 40.2656 26.2043 40.2656 26.161C40.2656 26.1177 40.2656 26.0743 40.2656 26.031C40.2569 25.7537 40.2396 25.5413 40.2136 25.394C40.1962 25.2467 40.1269 25.108 40.0056 24.978C39.9449 24.9173 39.8972 24.861 39.8626 24.809C39.8366 24.7483 39.8496 24.6747 39.9016 24.588C40.0489 24.3367 40.2569 24.263 40.5256 24.367C40.6209 24.4017 40.7422 24.4667 40.8896 24.562C41.0369 24.6487 41.1496 24.7267 41.2276 24.796C41.2969 24.8567 41.3402 24.9087 41.3576 24.952C41.3749 24.9867 41.3879 25.0257 41.3966 25.069C41.3792 25.225 41.3662 25.433 41.3576 25.693C41.3489 25.9443 41.3446 26.1523 41.3446 26.317L41.3316 30.087C41.3229 30.373 41.2492 30.6113 41.1106 30.802C40.9806 30.9927 40.8289 31.088 40.6556 31.088C40.4302 31.088 40.3002 30.9233 40.2656 30.594C40.1356 30.594 39.9969 30.594 39.8496 30.594C39.7109 30.594 39.5679 30.5983 39.4206 30.607C39.2906 30.945 39.0999 31.114 38.8486 31.114ZM42.9436 29.658C43.0822 29.658 43.2252 29.658 43.3726 29.658C43.5286 29.6493 43.6629 29.6407 43.7756 29.632V27.396L42.9436 27.435V29.658ZM39.4986 29.814C39.6199 29.814 39.7499 29.814 39.8886 29.814C40.0272 29.8053 40.1529 29.7967 40.2656 29.788V27.591C40.1529 27.591 40.0316 27.591 39.9016 27.591C39.7716 27.591 39.6372 27.5953 39.4986 27.604V29.814ZM54.483 28.995C53.8677 29.0037 53.313 28.9083 52.819 28.709C52.3337 28.501 51.948 28.1977 51.662 27.799C51.376 27.4003 51.233 26.9237 51.233 26.369C51.2503 25.8403 51.402 25.3767 51.688 24.978C51.9827 24.5793 52.377 24.263 52.871 24.029C53.365 23.7863 53.9197 23.6563 54.535 23.639C55.1763 23.6217 55.7483 23.717 56.251 23.925C56.7537 24.1243 57.148 24.4233 57.434 24.822C57.72 25.212 57.85 25.6887 57.824 26.252C57.798 26.8067 57.6377 27.2877 57.343 27.695C57.0483 28.1023 56.654 28.4187 56.16 28.644C55.6747 28.8607 55.1157 28.9777 54.483 28.995ZM50.102 32.96C49.9807 32.96 49.8593 32.9167 49.738 32.83C49.5993 32.7433 49.4477 32.6263 49.283 32.479C49.127 32.323 49.0403 32.2147 49.023 32.154C48.997 32.076 49.0317 31.972 49.127 31.842C49.2223 31.7033 49.3263 31.6427 49.439 31.66C49.7163 31.7207 50.0673 31.7727 50.492 31.816C50.9253 31.8507 51.4323 31.868 52.013 31.868H52.52C52.5113 31.7207 52.4983 31.556 52.481 31.374C52.4723 31.192 52.4593 31.023 52.442 30.867C52.4073 30.5897 52.3597 30.3947 52.299 30.282C52.247 30.1693 52.1647 30.0697 52.052 29.983C52.052 29.983 52.0477 29.9787 52.039 29.97C51.961 29.9093 51.9047 29.8573 51.87 29.814C51.8353 29.7707 51.8353 29.7057 51.87 29.619C51.922 29.4717 52 29.372 52.104 29.32C52.208 29.2593 52.3163 29.2377 52.429 29.255C52.5763 29.281 52.7367 29.333 52.91 29.411C53.092 29.4803 53.2523 29.554 53.391 29.632C53.573 29.7447 53.664 29.8357 53.664 29.905C53.6467 30.0437 53.6293 30.1823 53.612 30.321C53.6033 30.451 53.599 30.5983 53.599 30.763C53.599 30.9623 53.599 31.153 53.599 31.335C53.599 31.517 53.6033 31.6903 53.612 31.855C53.976 31.8463 54.3487 31.8377 54.73 31.829C55.12 31.8203 55.484 31.8117 55.822 31.803L55.939 30.698C55.9563 30.4293 55.952 30.2387 55.926 30.126C55.9087 30.0047 55.8393 29.8877 55.718 29.775C55.64 29.7057 55.5837 29.645 55.549 29.593C55.523 29.541 55.5273 29.4717 55.562 29.385C55.6227 29.2377 55.7137 29.138 55.835 29.086C55.9563 29.0253 56.0863 29.0167 56.225 29.06C56.3897 29.1033 56.5543 29.1727 56.719 29.268C56.8923 29.3547 57.0353 29.437 57.148 29.515C57.3127 29.6363 57.382 29.7403 57.356 29.827C57.3127 29.931 57.2693 30.0697 57.226 30.243C57.1913 30.4077 57.1523 30.5853 57.109 30.776C57.0743 30.9407 57.044 31.1053 57.018 31.27C57.0007 31.4347 56.979 31.595 56.953 31.751C57.4903 31.7163 57.9757 31.673 58.409 31.621C58.851 31.5603 59.2063 31.4953 59.475 31.426C59.5877 31.3913 59.683 31.374 59.761 31.374C59.8563 31.374 59.943 31.4303 60.021 31.543C60.0817 31.6383 60.1467 31.764 60.216 31.92C60.2853 32.076 60.32 32.1843 60.32 32.245C60.32 32.3403 60.2593 32.4357 60.138 32.531C60.0167 32.6177 59.93 32.661 59.878 32.661C59.67 32.635 59.41 32.6177 59.098 32.609C58.786 32.5917 58.461 32.583 58.123 32.583C57.7937 32.5743 57.4773 32.57 57.174 32.57C56.4287 32.5787 55.614 32.596 54.73 32.622C53.846 32.6393 52.9403 32.6653 52.013 32.7C51.8743 32.7087 51.688 32.726 51.454 32.752C51.2287 32.778 51.0077 32.8083 50.791 32.843C50.583 32.869 50.427 32.895 50.323 32.921C50.2363 32.947 50.1627 32.96 50.102 32.96ZM54.483 28.137C55.0637 28.1197 55.5447 27.942 55.926 27.604C56.3073 27.266 56.5023 26.8153 56.511 26.252C56.5197 25.6973 56.342 25.2683 55.978 24.965C55.614 24.653 55.133 24.497 54.535 24.497C53.8937 24.5143 53.404 24.7093 53.066 25.082C52.728 25.446 52.5503 25.8707 52.533 26.356C52.533 26.72 52.6197 27.0407 52.793 27.318C52.9663 27.5953 53.2003 27.8077 53.495 27.955C53.7897 28.0937 54.119 28.1543 54.483 28.137ZM130.62 32.05C130.473 32.05 130.373 31.959 130.321 31.777C130.278 31.595 130.252 31.4 130.243 31.192C130.243 30.984 130.243 30.789 130.243 30.607C130.243 30.5723 130.243 30.542 130.243 30.516C130.243 30.4813 130.243 30.4467 130.243 30.412V27.773L129.242 27.812V30.113C129.242 30.3297 129.221 30.5723 129.177 30.841C129.134 31.101 129.056 31.3263 128.943 31.517C128.831 31.7077 128.67 31.803 128.462 31.803C128.306 31.803 128.207 31.7163 128.163 31.543C128.12 31.361 128.094 31.166 128.085 30.958C128.085 30.75 128.085 30.555 128.085 30.373C128.085 30.3383 128.085 30.308 128.085 30.282C128.085 30.2473 128.085 30.2127 128.085 30.178V24.913C128.085 24.679 128.081 24.5013 128.072 24.38C128.064 24.2587 128.033 24.159 127.981 24.081C127.929 24.003 127.843 23.9163 127.721 23.821C127.635 23.7517 127.574 23.691 127.539 23.639C127.505 23.5783 127.505 23.5047 127.539 23.418C127.609 23.2707 127.7 23.171 127.812 23.119C127.925 23.0583 128.046 23.0497 128.176 23.093C128.35 23.145 128.506 23.21 128.644 23.288C128.792 23.366 128.93 23.4527 129.06 23.548C129.225 23.6693 129.307 23.782 129.307 23.886C129.29 23.9987 129.273 24.1547 129.255 24.354C129.247 24.5533 129.242 24.7527 129.242 24.952V26.98L130.243 26.928V24.575C130.243 24.3497 130.235 24.1763 130.217 24.055C130.209 23.9337 130.174 23.8297 130.113 23.743C130.053 23.6477 129.944 23.5437 129.788 23.431C129.702 23.3617 129.637 23.2967 129.593 23.236C129.559 23.1753 129.563 23.1017 129.606 23.015C129.745 22.7377 129.962 22.6337 130.256 22.703C130.456 22.755 130.646 22.8287 130.828 22.924C131.019 23.0193 131.179 23.1103 131.309 23.197C131.465 23.301 131.543 23.4093 131.543 23.522C131.526 23.6347 131.504 23.7907 131.478 23.99C131.452 24.1893 131.439 24.3887 131.439 24.588V30.347C131.439 30.5637 131.413 30.8063 131.361 31.075C131.318 31.335 131.236 31.5647 131.114 31.764C130.993 31.9547 130.828 32.05 130.62 32.05ZM125.94 34.78C125.81 34.7713 125.663 34.741 125.498 34.689C125.342 34.637 125.208 34.533 125.095 34.377C124.983 34.221 124.926 33.9957 124.926 33.701V32.882C124.926 32.6913 124.918 32.544 124.9 32.44C124.892 32.336 124.857 32.245 124.796 32.167C124.736 32.089 124.632 32.0023 124.484 31.907C124.406 31.855 124.354 31.7987 124.328 31.738C124.311 31.6773 124.324 31.5993 124.367 31.504C124.437 31.3567 124.528 31.2657 124.64 31.231C124.762 31.1963 124.883 31.1877 125.004 31.205C125.152 31.231 125.312 31.2787 125.485 31.348C125.667 31.4087 125.823 31.478 125.953 31.556C126.049 31.6167 126.127 31.6773 126.187 31.738C126.257 31.79 126.291 31.8507 126.291 31.92C126.257 32.0673 126.231 32.2147 126.213 32.362C126.196 32.5007 126.187 32.6523 126.187 32.817V33.545C126.187 33.6837 126.213 33.7833 126.265 33.844C126.326 33.896 126.426 33.9263 126.564 33.935C126.894 33.9437 127.262 33.948 127.669 33.948C128.085 33.948 128.545 33.935 129.047 33.909C129.611 33.883 130.096 33.8267 130.503 33.74C130.911 33.6533 131.179 33.5927 131.309 33.558C131.405 33.5233 131.483 33.519 131.543 33.545C131.604 33.571 131.652 33.61 131.686 33.662C131.756 33.7487 131.825 33.8657 131.894 34.013C131.964 34.1603 131.998 34.26 131.998 34.312C131.998 34.3813 131.946 34.468 131.842 34.572C131.747 34.676 131.669 34.728 131.608 34.728C131.496 34.7193 131.318 34.7107 131.075 34.702C130.833 34.702 130.555 34.702 130.243 34.702C129.931 34.702 129.611 34.7063 129.281 34.715C129.203 34.715 129.099 34.715 128.969 34.715C128.848 34.7237 128.709 34.7323 128.553 34.741C128.267 34.7497 127.955 34.7583 127.617 34.767C127.279 34.7757 126.959 34.78 126.655 34.78C126.361 34.7887 126.122 34.7887 125.94 34.78ZM122.586 30.633C122.578 30.633 122.565 30.6373 122.547 30.646C122.469 30.6633 122.4 30.6763 122.339 30.685C122.287 30.685 122.227 30.6633 122.157 30.62C122.088 30.5767 121.988 30.516 121.858 30.438C121.737 30.3513 121.624 30.2647 121.52 30.178C121.425 30.0913 121.364 30.022 121.338 29.97C121.33 29.8747 121.369 29.775 121.455 29.671C121.542 29.567 121.624 29.5107 121.702 29.502C121.928 29.5367 122.205 29.554 122.534 29.554C122.872 29.554 123.241 29.541 123.639 29.515L123.613 28.228C123.605 27.9507 123.579 27.7427 123.535 27.604C123.501 27.4567 123.414 27.3353 123.275 27.24C123.206 27.188 123.154 27.136 123.119 27.084C123.093 27.032 123.098 26.967 123.132 26.889C123.202 26.7503 123.288 26.6637 123.392 26.629C123.496 26.5857 123.605 26.577 123.717 26.603C123.839 26.629 123.982 26.681 124.146 26.759C124.311 26.8283 124.437 26.8977 124.523 26.967C124.705 27.097 124.801 27.1967 124.809 27.266C124.775 27.396 124.749 27.5433 124.731 27.708C124.714 27.8727 124.701 28.0373 124.692 28.202L124.653 29.424C125.147 29.3633 125.637 29.294 126.122 29.216C126.616 29.1293 127.028 29.0427 127.357 28.956C127.635 28.8867 127.773 28.9473 127.773 29.138C127.773 29.268 127.726 29.3807 127.63 29.476C127.544 29.5627 127.37 29.6407 127.11 29.71C126.772 29.8053 126.361 29.9007 125.875 29.996C125.39 30.0827 124.853 30.1737 124.263 30.269C123.917 30.3297 123.613 30.386 123.353 30.438C123.102 30.49 122.846 30.555 122.586 30.633ZM125.94 28.319C125.854 28.3103 125.784 28.267 125.732 28.189C125.68 28.111 125.663 27.9853 125.68 27.812C125.698 27.6907 125.715 27.5217 125.732 27.305C125.758 27.0797 125.78 26.837 125.797 26.577C125.823 26.317 125.845 26.07 125.862 25.836C125.88 25.602 125.888 25.407 125.888 25.251C125.888 25.1817 125.88 25.1383 125.862 25.121C125.845 25.095 125.802 25.082 125.732 25.082C125.49 25.0907 125.269 25.1037 125.069 25.121C124.879 25.1297 124.658 25.1427 124.406 25.16C124.19 25.1773 123.99 25.2033 123.808 25.238C123.626 25.2727 123.436 25.316 123.236 25.368C123.072 25.4113 122.955 25.4243 122.885 25.407C122.825 25.3897 122.76 25.355 122.69 25.303C122.586 25.225 122.469 25.1297 122.339 25.017C122.209 24.8957 122.136 24.8133 122.118 24.77C122.101 24.692 122.131 24.5967 122.209 24.484C122.296 24.3713 122.4 24.3193 122.521 24.328C122.712 24.3713 122.959 24.4017 123.262 24.419C123.566 24.4277 123.86 24.4277 124.146 24.419C124.649 24.393 125.048 24.3583 125.342 24.315C125.637 24.2717 125.867 24.2197 126.031 24.159C126.109 24.1243 126.166 24.1113 126.2 24.12C126.235 24.12 126.287 24.1287 126.356 24.146H126.369L127.175 24.38C127.297 24.4233 127.336 24.5187 127.292 24.666C127.266 24.7527 127.236 24.874 127.201 25.03C127.167 25.186 127.132 25.342 127.097 25.498C127.071 25.6453 127.05 25.758 127.032 25.836C126.998 25.992 126.963 26.1783 126.928 26.395C126.894 26.6117 126.859 26.824 126.824 27.032C126.79 27.24 126.751 27.4177 126.707 27.565C126.647 27.8077 126.551 27.9983 126.421 28.137C126.291 28.267 126.131 28.3277 125.94 28.319ZM134.106 30.061C134.037 30.087 133.937 30.113 133.807 30.139C133.686 30.1563 133.569 30.1563 133.456 30.139C133.352 30.113 133.283 30.061 133.248 29.983C133.24 29.9397 133.24 29.8833 133.248 29.814C133.266 29.7447 133.331 29.6753 133.443 29.606C133.929 29.294 134.371 28.943 134.769 28.553C135.177 28.1543 135.519 27.747 135.796 27.331C136.082 26.915 136.277 26.512 136.381 26.122C136.39 26.0787 136.394 26.0353 136.394 25.992C136.403 25.94 136.403 25.8923 136.394 25.849C136.134 25.8577 135.87 25.8837 135.601 25.927C135.333 25.9617 135.068 26.0007 134.808 26.044C134.644 26.0787 134.527 26.0917 134.457 26.083C134.388 26.0743 134.306 26.0267 134.21 25.94C134.15 25.888 134.067 25.81 133.963 25.706C133.859 25.5933 133.786 25.498 133.742 25.42C133.725 25.3333 133.76 25.2423 133.846 25.147C133.933 25.043 134.011 24.991 134.08 24.991C134.358 25.043 134.683 25.0733 135.055 25.082C135.437 25.082 135.857 25.0733 136.316 25.056C137.218 25.0213 137.915 24.965 138.409 24.887C138.903 24.809 139.259 24.744 139.475 24.692C139.571 24.666 139.64 24.666 139.683 24.692C139.735 24.7093 139.779 24.744 139.813 24.796C139.883 24.9087 139.939 25.0343 139.982 25.173C140.034 25.303 140.06 25.394 140.06 25.446C140.06 25.5153 140.008 25.5933 139.904 25.68C139.809 25.7667 139.731 25.81 139.67 25.81C139.402 25.7927 139.064 25.784 138.656 25.784C138.249 25.7753 137.829 25.7797 137.395 25.797C137.491 25.8663 137.569 25.9487 137.629 26.044C137.69 26.1307 137.72 26.213 137.72 26.291C137.625 26.5337 137.504 26.7807 137.356 27.032C137.85 27.3007 138.249 27.4913 138.552 27.604C138.864 27.7167 139.159 27.8077 139.436 27.877C139.514 27.903 139.605 27.9767 139.709 28.098C139.813 28.2107 139.904 28.3493 139.982 28.514C140.069 28.67 140.117 28.826 140.125 28.982C140.134 29.138 140.06 29.2637 139.904 29.359C139.757 29.4457 139.627 29.489 139.514 29.489C139.298 29.2723 139.042 29.0513 138.747 28.826C138.461 28.592 138.162 28.3623 137.85 28.137C137.547 27.9117 137.265 27.7123 137.005 27.539C136.563 28.1457 136.1 28.6613 135.614 29.086C135.138 29.5107 134.635 29.8357 134.106 30.061ZM141.607 29.58C141.443 29.58 141.343 29.4933 141.308 29.32C141.265 29.0947 141.239 28.852 141.23 28.592C141.222 28.3233 141.217 28.111 141.217 27.955V24.575C141.217 24.3323 141.209 24.1503 141.191 24.029C141.174 23.899 141.126 23.795 141.048 23.717C140.979 23.639 140.862 23.5437 140.697 23.431C140.611 23.379 140.546 23.3183 140.502 23.249C140.468 23.1797 140.472 23.1017 140.515 23.015C140.585 22.8677 140.676 22.7723 140.788 22.729C140.901 22.6857 141.027 22.677 141.165 22.703C141.365 22.7377 141.568 22.807 141.776 22.911C141.984 23.0063 142.158 23.1017 142.296 23.197C142.452 23.301 142.53 23.4093 142.53 23.522C142.513 23.6347 142.491 23.7907 142.465 23.99C142.439 24.1893 142.426 24.3887 142.426 24.588V26.681C142.764 26.6463 143.068 26.5943 143.336 26.525C143.614 26.447 143.809 26.3907 143.921 26.356C144.017 26.3213 144.095 26.317 144.155 26.343C144.216 26.3603 144.264 26.395 144.298 26.447C144.368 26.5337 144.437 26.655 144.506 26.811C144.576 26.967 144.61 27.0753 144.61 27.136C144.61 27.2227 144.554 27.3093 144.441 27.396C144.337 27.4827 144.255 27.526 144.194 27.526C143.926 27.4827 143.635 27.4567 143.323 27.448C143.02 27.4307 142.721 27.422 142.426 27.422V27.877C142.426 28.0937 142.4 28.3363 142.348 28.605C142.305 28.8737 142.223 29.1033 142.101 29.294C141.98 29.4847 141.815 29.58 141.607 29.58ZM140.749 35.235C140.29 35.235 139.904 35.157 139.592 35.001C139.28 34.845 139.046 34.65 138.89 34.416C138.734 34.182 138.656 33.9523 138.656 33.727C138.656 33.5103 138.73 33.285 138.877 33.051C139.025 32.817 139.254 32.622 139.566 32.466C139.878 32.3013 140.281 32.2147 140.775 32.206C141.443 32.1887 141.954 32.3273 142.309 32.622C142.673 32.908 142.855 33.2547 142.855 33.662C142.855 33.9047 142.773 34.1473 142.608 34.39C142.444 34.6327 142.205 34.832 141.893 34.988C141.581 35.1527 141.2 35.235 140.749 35.235ZM135.627 34.962C135.367 34.9447 135.177 34.8233 135.055 34.598C134.934 34.3727 134.873 34.0997 134.873 33.779V32.635C134.873 32.609 134.873 32.57 134.873 32.518C134.873 32.2927 134.865 32.1107 134.847 31.972C134.839 31.8333 134.804 31.7163 134.743 31.621C134.683 31.5257 134.574 31.426 134.418 31.322C134.28 31.218 134.249 31.0837 134.327 30.919C134.397 30.7803 134.488 30.6893 134.6 30.646C134.722 30.594 134.839 30.5853 134.951 30.62C135.099 30.6547 135.255 30.7153 135.419 30.802C135.593 30.88 135.744 30.9667 135.874 31.062C136.074 31.192 136.173 31.322 136.173 31.452C136.139 31.5733 136.113 31.7467 136.095 31.972C136.078 32.1887 136.069 32.3837 136.069 32.557V33.402C136.069 33.584 136.082 33.6967 136.108 33.74C136.143 33.7833 136.217 33.8007 136.329 33.792C136.572 33.7747 136.871 33.727 137.226 33.649C137.582 33.5623 137.881 33.467 138.123 33.363C138.227 33.3197 138.318 33.3067 138.396 33.324C138.483 33.3413 138.535 33.376 138.552 33.428C138.596 33.584 138.557 33.727 138.435 33.857C138.314 33.987 138.184 34.0953 138.045 34.182C137.967 34.2253 137.833 34.286 137.642 34.364C137.46 34.4507 137.248 34.5373 137.005 34.624C136.771 34.7107 136.529 34.7843 136.277 34.845C136.035 34.9143 135.818 34.9533 135.627 34.962ZM138.539 32.115C138.401 32.1323 138.301 32.1367 138.24 32.128C138.188 32.1107 138.123 32.076 138.045 32.024C137.985 31.9807 137.902 31.9113 137.798 31.816C137.703 31.712 137.634 31.6297 137.59 31.569C137.573 31.491 137.603 31.4043 137.681 31.309C137.759 31.2137 137.833 31.166 137.902 31.166C138.162 31.2267 138.513 31.2657 138.955 31.283C139.397 31.3003 139.896 31.3047 140.45 31.296C141.17 31.2787 141.776 31.2397 142.27 31.179C142.764 31.1097 143.094 31.0577 143.258 31.023C143.354 31.0057 143.423 31.0057 143.466 31.023C143.51 31.0317 143.549 31.0577 143.583 31.101C143.644 31.2137 143.687 31.322 143.713 31.426C143.748 31.53 143.765 31.5993 143.765 31.634C143.765 31.6947 143.718 31.764 143.622 31.842C143.527 31.92 143.453 31.959 143.401 31.959C143.098 31.933 142.712 31.9157 142.244 31.907C141.785 31.8897 141.274 31.894 140.71 31.92C140.381 31.9373 140.021 31.9633 139.631 31.998C139.241 32.0327 138.877 32.0717 138.539 32.115ZM136.446 24.237C136.282 24.211 136.095 24.172 135.887 24.12C135.688 24.0593 135.493 23.99 135.302 23.912C135.12 23.8253 134.973 23.7343 134.86 23.639C134.817 23.561 134.826 23.4527 134.886 23.314C134.947 23.1667 135.038 23.0887 135.159 23.08C135.489 23.1407 135.814 23.1883 136.134 23.223C136.464 23.249 136.789 23.262 137.109 23.262C137.387 23.262 137.642 23.2533 137.876 23.236C138.119 23.21 138.323 23.1883 138.487 23.171C138.626 23.1797 138.739 23.2273 138.825 23.314C138.921 23.392 138.968 23.4657 138.968 23.535C138.96 23.6043 138.921 23.6997 138.851 23.821C138.782 23.9423 138.695 24.0333 138.591 24.094C138.444 24.146 138.24 24.1893 137.98 24.224C137.729 24.25 137.465 24.2673 137.187 24.276C136.91 24.276 136.663 24.263 136.446 24.237ZM140.294 30.841C140.104 30.8063 139.883 30.7543 139.631 30.685C139.38 30.6157 139.172 30.5073 139.007 30.36C138.973 30.2993 138.981 30.2083 139.033 30.087C139.094 29.9657 139.181 29.905 139.293 29.905C139.579 29.957 139.887 29.9917 140.216 30.009C140.546 30.0263 140.866 30.0307 141.178 30.022C141.499 30.0047 141.776 29.9787 142.01 29.944C142.132 29.9527 142.223 29.983 142.283 30.035C142.353 30.087 142.392 30.1477 142.4 30.217C142.409 30.2777 142.387 30.3643 142.335 30.477C142.283 30.5897 142.205 30.672 142.101 30.724C141.876 30.7933 141.599 30.8367 141.269 30.854C140.949 30.8627 140.624 30.8583 140.294 30.841ZM140.736 34.403C141.04 34.3857 141.269 34.299 141.425 34.143C141.581 33.9957 141.664 33.8093 141.672 33.584C141.681 33.428 141.616 33.2677 141.477 33.103C141.347 32.9383 141.122 32.8603 140.801 32.869C140.429 32.8777 140.169 32.96 140.021 33.116C139.883 33.2633 139.813 33.441 139.813 33.649C139.813 33.8397 139.896 34.013 140.06 34.169C140.225 34.3337 140.45 34.4117 140.736 34.403ZM148.522 30.048C147.959 30.0567 147.443 29.9483 146.975 29.723C146.507 29.4977 146.135 29.1813 145.857 28.774C145.589 28.3667 145.454 27.8943 145.454 27.357C145.454 26.8457 145.589 26.3863 145.857 25.979C146.135 25.563 146.507 25.2293 146.975 24.978C147.443 24.7267 147.959 24.5967 148.522 24.588C149.086 24.5793 149.597 24.679 150.056 24.887C150.516 25.0863 150.88 25.3853 151.148 25.784C151.426 26.1827 151.564 26.668 151.564 27.24C151.564 27.7687 151.426 28.2453 151.148 28.67C150.88 29.086 150.516 29.4153 150.056 29.658C149.597 29.9007 149.086 30.0307 148.522 30.048ZM153.605 34.39C153.458 34.39 153.363 34.2817 153.319 34.065C153.293 33.9177 153.272 33.74 153.254 33.532C153.246 33.324 153.241 33.1203 153.241 32.921C153.241 32.7217 153.241 32.5657 153.241 32.453V24.77C153.241 24.7527 153.241 24.7267 153.241 24.692C153.241 24.3887 153.215 24.1503 153.163 23.977C153.12 23.8037 152.96 23.6347 152.682 23.47C152.63 23.4353 152.583 23.3963 152.539 23.353C152.496 23.3097 152.474 23.2577 152.474 23.197C152.474 23.1017 152.522 22.9933 152.617 22.872C152.713 22.7507 152.83 22.69 152.968 22.69C153.064 22.69 153.194 22.716 153.358 22.768C153.523 22.8113 153.692 22.872 153.865 22.95C154.039 23.0193 154.186 23.093 154.307 23.171C154.472 23.275 154.554 23.379 154.554 23.483C154.546 23.5957 154.524 23.782 154.489 24.042C154.463 24.2933 154.45 24.536 154.45 24.77V28.059C154.832 28.0417 155.178 27.994 155.49 27.916C155.802 27.8293 156.019 27.7687 156.14 27.734C156.236 27.6993 156.314 27.695 156.374 27.721C156.435 27.7383 156.483 27.773 156.517 27.825C156.587 27.9117 156.656 28.033 156.725 28.189C156.795 28.345 156.829 28.4533 156.829 28.514C156.829 28.6007 156.773 28.6873 156.66 28.774C156.556 28.852 156.474 28.891 156.413 28.891C156.11 28.8477 155.781 28.8173 155.425 28.8C155.079 28.7827 154.749 28.7783 154.437 28.787V32.388C154.437 32.5527 154.424 32.7477 154.398 32.973C154.372 33.1983 154.325 33.4193 154.255 33.636C154.195 33.8527 154.108 34.0303 153.995 34.169C153.891 34.3163 153.761 34.39 153.605 34.39ZM148.509 29.086C149.021 29.06 149.441 28.878 149.77 28.54C150.1 28.1933 150.264 27.7643 150.264 27.253C150.264 26.733 150.1 26.3083 149.77 25.979C149.45 25.6497 149.034 25.485 148.522 25.485C148.002 25.485 147.573 25.6583 147.235 26.005C146.906 26.3517 146.741 26.798 146.741 27.344C146.741 27.8727 146.906 28.3017 147.235 28.631C147.573 28.9517 147.998 29.1033 148.509 29.086ZM162.698 28.995C162.083 29.0037 161.528 28.9083 161.034 28.709C160.549 28.501 160.163 28.1977 159.877 27.799C159.591 27.4003 159.448 26.9237 159.448 26.369C159.465 25.8403 159.617 25.3767 159.903 24.978C160.198 24.5793 160.592 24.263 161.086 24.029C161.58 23.7863 162.135 23.6563 162.75 23.639C163.391 23.6217 163.963 23.717 164.466 23.925C164.969 24.1243 165.363 24.4233 165.649 24.822C165.935 25.212 166.065 25.6887 166.039 26.252C166.013 26.8067 165.853 27.2877 165.558 27.695C165.263 28.1023 164.869 28.4187 164.375 28.644C163.89 28.8607 163.331 28.9777 162.698 28.995ZM158.317 32.96C158.196 32.96 158.074 32.9167 157.953 32.83C157.814 32.7433 157.663 32.6263 157.498 32.479C157.342 32.323 157.255 32.2147 157.238 32.154C157.212 32.076 157.247 31.972 157.342 31.842C157.437 31.7033 157.541 31.6427 157.654 31.66C157.931 31.7207 158.282 31.7727 158.707 31.816C159.14 31.8507 159.647 31.868 160.228 31.868H160.735C160.726 31.7207 160.713 31.556 160.696 31.374C160.687 31.192 160.674 31.023 160.657 30.867C160.622 30.5897 160.575 30.3947 160.514 30.282C160.462 30.1693 160.38 30.0697 160.267 29.983C160.267 29.983 160.263 29.9787 160.254 29.97C160.176 29.9093 160.12 29.8573 160.085 29.814C160.05 29.7707 160.05 29.7057 160.085 29.619C160.137 29.4717 160.215 29.372 160.319 29.32C160.423 29.2593 160.531 29.2377 160.644 29.255C160.791 29.281 160.952 29.333 161.125 29.411C161.307 29.4803 161.467 29.554 161.606 29.632C161.788 29.7447 161.879 29.8357 161.879 29.905C161.862 30.0437 161.844 30.1823 161.827 30.321C161.818 30.451 161.814 30.5983 161.814 30.763C161.814 30.9623 161.814 31.153 161.814 31.335C161.814 31.517 161.818 31.6903 161.827 31.855C162.191 31.8463 162.564 31.8377 162.945 31.829C163.335 31.8203 163.699 31.8117 164.037 31.803L164.154 30.698C164.171 30.4293 164.167 30.2387 164.141 30.126C164.124 30.0047 164.054 29.8877 163.933 29.775C163.855 29.7057 163.799 29.645 163.764 29.593C163.738 29.541 163.742 29.4717 163.777 29.385C163.838 29.2377 163.929 29.138 164.05 29.086C164.171 29.0253 164.301 29.0167 164.44 29.06C164.605 29.1033 164.769 29.1727 164.934 29.268C165.107 29.3547 165.25 29.437 165.363 29.515C165.528 29.6363 165.597 29.7403 165.571 29.827C165.528 29.931 165.484 30.0697 165.441 30.243C165.406 30.4077 165.367 30.5853 165.324 30.776C165.289 30.9407 165.259 31.1053 165.233 31.27C165.216 31.4347 165.194 31.595 165.168 31.751C165.705 31.7163 166.191 31.673 166.624 31.621C167.066 31.5603 167.421 31.4953 167.69 31.426C167.803 31.3913 167.898 31.374 167.976 31.374C168.071 31.374 168.158 31.4303 168.236 31.543C168.297 31.6383 168.362 31.764 168.431 31.92C168.5 32.076 168.535 32.1843 168.535 32.245C168.535 32.3403 168.474 32.4357 168.353 32.531C168.232 32.6177 168.145 32.661 168.093 32.661C167.885 32.635 167.625 32.6177 167.313 32.609C167.001 32.5917 166.676 32.583 166.338 32.583C166.009 32.5743 165.692 32.57 165.389 32.57C164.644 32.5787 163.829 32.596 162.945 32.622C162.061 32.6393 161.155 32.6653 160.228 32.7C160.089 32.7087 159.903 32.726 159.669 32.752C159.444 32.778 159.223 32.8083 159.006 32.843C158.798 32.869 158.642 32.895 158.538 32.921C158.451 32.947 158.378 32.96 158.317 32.96ZM162.698 28.137C163.279 28.1197 163.76 27.942 164.141 27.604C164.522 27.266 164.717 26.8153 164.726 26.252C164.735 25.6973 164.557 25.2683 164.193 24.965C163.829 24.653 163.348 24.497 162.75 24.497C162.109 24.5143 161.619 24.7093 161.281 25.082C160.943 25.446 160.765 25.8707 160.748 26.356C160.748 26.72 160.835 27.0407 161.008 27.318C161.181 27.5953 161.415 27.8077 161.71 27.955C162.005 28.0937 162.334 28.1543 162.698 28.137ZM229.286 34.845C229.086 34.8363 228.896 34.741 228.714 34.559C228.54 34.3857 228.454 34.1213 228.454 33.766V33.038C228.454 32.9947 228.445 32.9643 228.428 32.947C228.419 32.921 228.389 32.8907 228.337 32.856C228.224 32.7867 228.129 32.7217 228.051 32.661C227.981 32.6003 227.942 32.5483 227.934 32.505C227.942 32.4357 227.977 32.3447 228.038 32.232C228.098 32.1193 228.172 32.0587 228.259 32.05C228.458 32.0847 228.692 32.1107 228.961 32.128C229.238 32.1453 229.459 32.154 229.624 32.154C229.788 32.154 230.018 32.154 230.313 32.154C230.607 32.154 230.932 32.1497 231.288 32.141C231.652 32.1237 232.016 32.1107 232.38 32.102C232.744 32.0847 233.073 32.063 233.368 32.037C233.376 31.8983 233.385 31.7553 233.394 31.608C233.402 31.4607 233.407 31.3177 233.407 31.179C233.407 31.1097 233.394 31.0707 233.368 31.062C233.342 31.0447 233.303 31.036 233.251 31.036C233.155 31.036 232.986 31.0403 232.744 31.049C232.51 31.0577 232.241 31.0707 231.938 31.088C231.634 31.1053 231.34 31.1227 231.054 31.14C230.776 31.1487 230.551 31.1573 230.378 31.166C230.291 31.166 230.17 31.1747 230.014 31.192C229.858 31.2007 229.697 31.2137 229.533 31.231C229.377 31.2483 229.242 31.27 229.13 31.296C228.956 31.3307 228.831 31.3393 228.753 31.322C228.675 31.3047 228.597 31.2657 228.519 31.205C228.441 31.1357 228.341 31.0447 228.22 30.932C228.107 30.8193 228.042 30.7457 228.025 30.711C228.007 30.633 228.038 30.542 228.116 30.438C228.194 30.334 228.28 30.2733 228.376 30.256C228.714 30.3253 229.091 30.3687 229.507 30.386C229.931 30.3947 230.391 30.3947 230.885 30.386C231.041 30.386 231.24 30.3817 231.483 30.373C231.725 30.3557 231.977 30.3383 232.237 30.321C232.505 30.295 232.748 30.269 232.965 30.243C233.181 30.2083 233.342 30.1737 233.446 30.139C233.515 30.113 233.563 30.1 233.589 30.1C233.623 30.0913 233.671 30.0957 233.732 30.113L234.668 30.308C234.806 30.334 234.85 30.4337 234.798 30.607C234.763 30.711 234.711 30.8973 234.642 31.166C234.572 31.4347 234.507 31.6903 234.447 31.933C234.542 31.985 234.633 32.0457 234.72 32.115C234.806 32.1843 234.85 32.2407 234.85 32.284C234.85 32.388 234.811 32.5007 234.733 32.622C234.663 32.7433 234.577 32.8213 234.473 32.856C234.195 32.8473 233.849 32.843 233.433 32.843C233.025 32.843 232.592 32.8473 232.133 32.856C231.682 32.8647 231.24 32.8777 230.807 32.895C230.382 32.9123 230.014 32.9297 229.702 32.947V33.558C229.702 33.6967 229.715 33.8093 229.741 33.896C229.775 33.974 229.845 34.0173 229.949 34.026C230.278 34.0433 230.668 34.0477 231.119 34.039C231.569 34.039 231.994 34.0347 232.393 34.026C233.008 34.0087 233.524 33.9653 233.94 33.896C234.364 33.8267 234.646 33.766 234.785 33.714C234.88 33.6707 234.958 33.6663 235.019 33.701C235.079 33.727 235.127 33.766 235.162 33.818C235.231 33.9047 235.3 34.0087 235.37 34.13C235.439 34.26 235.474 34.351 235.474 34.403C235.474 34.4723 235.422 34.559 235.318 34.663C235.222 34.767 235.144 34.819 235.084 34.819C234.962 34.8103 234.767 34.8017 234.499 34.793C234.23 34.793 233.931 34.793 233.602 34.793C233.272 34.793 232.943 34.7973 232.614 34.806C232.51 34.806 232.315 34.8103 232.029 34.819C231.751 34.8277 231.431 34.832 231.067 34.832C230.711 34.8407 230.369 34.845 230.04 34.845C229.719 34.8537 229.468 34.8537 229.286 34.845ZM227.674 27.539C227.483 27.5737 227.323 27.5693 227.193 27.526C227.071 27.4827 226.998 27.422 226.972 27.344C226.954 27.2833 226.967 27.2227 227.011 27.162C227.054 27.0927 227.102 27.045 227.154 27.019C227.596 26.8283 228.038 26.5943 228.48 26.317C228.93 26.031 229.351 25.7233 229.741 25.394C230.131 25.0647 230.451 24.7267 230.703 24.38C230.833 24.198 230.937 24.0203 231.015 23.847C231.101 23.6737 231.075 23.5177 230.937 23.379C230.876 23.3097 230.828 23.2447 230.794 23.184C230.759 23.1147 230.768 23.041 230.82 22.963C230.915 22.8157 231.023 22.729 231.145 22.703C231.275 22.677 231.4 22.69 231.522 22.742C231.695 22.8027 231.868 22.898 232.042 23.028C232.224 23.158 232.362 23.275 232.458 23.379C232.605 23.5437 232.657 23.665 232.614 23.743C232.562 23.8037 232.471 23.9293 232.341 24.12C232.211 24.302 232.055 24.5013 231.873 24.718C232.271 24.8827 232.614 25.0127 232.9 25.108C233.194 25.1947 233.48 25.2597 233.758 25.303C234.035 25.3463 234.338 25.381 234.668 25.407C234.815 25.459 234.958 25.5587 235.097 25.706C235.235 25.8447 235.352 25.9963 235.448 26.161C235.543 26.3257 235.595 26.473 235.604 26.603C235.621 26.7243 235.56 26.8413 235.422 26.954C235.283 27.0667 235.166 27.123 235.071 27.123C234.707 26.9063 234.308 26.6897 233.875 26.473C233.441 26.2563 233.008 26.0483 232.575 25.849C232.141 25.6497 231.734 25.4677 231.353 25.303C230.989 25.6757 230.581 26.0223 230.131 26.343C229.689 26.6637 229.251 26.928 228.818 27.136C228.384 27.344 228.003 27.4783 227.674 27.539ZM226.881 29.346C226.69 29.3893 226.551 29.4023 226.465 29.385C226.387 29.3677 226.3 29.3243 226.205 29.255C226.153 29.2117 226.075 29.1467 225.971 29.06C225.875 28.9733 225.78 28.8867 225.685 28.8C225.598 28.7133 225.546 28.6483 225.529 28.605C225.511 28.5357 225.55 28.436 225.646 28.306C225.741 28.176 225.841 28.1153 225.945 28.124C226.222 28.1847 226.551 28.2323 226.933 28.267C227.323 28.293 227.734 28.3103 228.168 28.319C228.584 28.319 229.043 28.319 229.546 28.319C230.048 28.3103 230.555 28.2973 231.067 28.28C231.587 28.2627 232.076 28.2453 232.536 28.228C232.995 28.2107 233.389 28.1933 233.719 28.176C234.256 28.1413 234.754 28.098 235.214 28.046C235.682 27.994 236.05 27.9333 236.319 27.864C236.492 27.8207 236.609 27.8077 236.67 27.825C236.739 27.8337 236.804 27.8857 236.865 27.981C236.925 28.0677 236.99 28.189 237.06 28.345C237.129 28.4923 237.164 28.5963 237.164 28.657C237.155 28.7523 237.09 28.8477 236.969 28.943C236.856 29.0297 236.774 29.073 236.722 29.073C236.479 29.047 236.241 29.0297 236.007 29.021C235.781 29.0037 235.513 28.9907 235.201 28.982C234.897 28.9733 234.503 28.969 234.018 28.969C233.524 28.969 232.965 28.9777 232.341 28.995C231.717 29.0037 231.093 29.021 230.469 29.047C229.845 29.073 229.281 29.099 228.779 29.125C228.406 29.1423 228.064 29.1727 227.752 29.216C227.44 29.2507 227.149 29.294 226.881 29.346ZM239.373 31.153C239.286 31.1617 239.2 31.166 239.113 31.166C239.026 31.166 238.935 31.1313 238.84 31.062C238.788 31.0187 238.706 30.9537 238.593 30.867C238.489 30.7803 238.389 30.6937 238.294 30.607C238.207 30.5117 238.16 30.4467 238.151 30.412C238.134 30.3167 238.177 30.217 238.281 30.113C238.385 30.009 238.463 29.9527 238.515 29.944C238.732 29.9787 238.996 30.0047 239.308 30.022C239.629 30.0307 239.902 30.0307 240.127 30.022C240.11 29.788 240.092 29.5713 240.075 29.372C240.066 29.1727 240.053 28.956 240.036 28.722C240.019 28.488 239.993 28.1977 239.958 27.851C239.923 27.5737 239.88 27.3353 239.828 27.136C239.785 26.928 239.637 26.7417 239.386 26.577C239.256 26.4817 239.221 26.3733 239.282 26.252C239.343 26.1047 239.412 26.0093 239.49 25.966C239.568 25.9227 239.65 25.9053 239.737 25.914C239.815 25.914 239.923 25.94 240.062 25.992C240.209 26.0353 240.361 26.096 240.517 26.174C240.673 26.252 240.807 26.3343 240.92 26.421C241.033 26.499 241.093 26.5683 241.102 26.629C241.093 26.7417 241.089 26.915 241.089 27.149C241.098 27.3743 241.106 27.5737 241.115 27.747L241.154 29.151C241.154 29.2637 241.154 29.4067 241.154 29.58C241.154 29.7447 241.145 29.879 241.128 29.983C241.353 29.9657 241.579 29.9483 241.804 29.931C242.029 29.905 242.255 29.8747 242.48 29.84C242.515 29.4587 242.549 29.0687 242.584 28.67C242.619 28.2627 242.653 27.838 242.688 27.396C242.688 27.3787 242.688 27.3483 242.688 27.305C242.705 27.0363 242.697 26.824 242.662 26.668C242.636 26.5033 242.515 26.356 242.298 26.226C242.22 26.1653 242.168 26.1177 242.142 26.083C242.125 26.0397 242.133 25.966 242.168 25.862C242.281 25.576 242.493 25.4677 242.805 25.537C243.004 25.5803 243.208 25.6453 243.416 25.732C243.624 25.81 243.789 25.888 243.91 25.966C244.075 26.0787 244.153 26.1783 244.144 26.265C244.109 26.395 244.079 26.5467 244.053 26.72C244.027 26.8847 243.988 27.149 243.936 27.513L243.65 29.645C244.083 29.567 244.512 29.4673 244.937 29.346C245.084 29.3027 245.197 29.3027 245.275 29.346C245.353 29.3807 245.392 29.4413 245.392 29.528C245.392 29.8313 245.123 30.0653 244.586 30.23C244.153 30.36 243.628 30.477 243.013 30.581C242.406 30.685 241.804 30.7803 241.206 30.867C240.859 30.9017 240.521 30.945 240.192 30.997C239.863 31.0403 239.59 31.0923 239.373 31.153ZM246.939 34.338C246.783 34.338 246.683 34.2297 246.64 34.013C246.597 33.805 246.571 33.5493 246.562 33.246C246.562 32.934 246.562 32.687 246.562 32.505C246.562 32.453 246.562 32.4183 246.562 32.401V27.643L246.328 27.669C246.163 27.695 246.007 27.7253 245.86 27.76C245.721 27.786 245.548 27.8337 245.34 27.903C245.167 27.9463 245.011 27.942 244.872 27.89C244.82 27.8727 244.738 27.8293 244.625 27.76C244.512 27.682 244.408 27.6083 244.313 27.539C244.218 27.461 244.166 27.4133 244.157 27.396C244.122 27.2833 244.144 27.1663 244.222 27.045C244.309 26.9237 244.395 26.863 244.482 26.863H244.508C244.655 26.8803 244.829 26.8977 245.028 26.915C245.227 26.9237 245.435 26.9237 245.652 26.915C245.756 26.915 245.89 26.9107 246.055 26.902C246.22 26.8933 246.389 26.8847 246.562 26.876V24.575C246.562 24.3323 246.549 24.1503 246.523 24.029C246.506 23.9077 246.458 23.808 246.38 23.73C246.311 23.6433 246.194 23.548 246.029 23.444C245.942 23.392 245.877 23.3313 245.834 23.262C245.799 23.1927 245.804 23.1103 245.847 23.015C245.916 22.8677 246.007 22.7723 246.12 22.729C246.233 22.6857 246.358 22.677 246.497 22.703C246.696 22.7377 246.904 22.807 247.121 22.911C247.338 23.015 247.515 23.1147 247.654 23.21C247.81 23.314 247.888 23.418 247.888 23.522C247.871 23.6347 247.849 23.7907 247.823 23.99C247.797 24.1893 247.784 24.3887 247.784 24.588L247.771 32.336C247.771 32.5007 247.758 32.6957 247.732 32.921C247.706 33.1463 247.663 33.3673 247.602 33.584C247.541 33.8007 247.455 33.9783 247.342 34.117C247.238 34.2643 247.104 34.338 246.939 34.338ZM239.438 25.498C239.429 25.498 239.421 25.498 239.412 25.498C239.265 25.5327 239.161 25.55 239.1 25.55C239.048 25.5413 238.974 25.4937 238.879 25.407C238.818 25.355 238.723 25.2597 238.593 25.121C238.472 24.9823 238.389 24.874 238.346 24.796C238.329 24.718 238.363 24.627 238.45 24.523C238.537 24.4103 238.615 24.354 238.684 24.354C238.961 24.4147 239.291 24.4493 239.672 24.458C240.053 24.4667 240.474 24.4667 240.933 24.458C241.834 24.432 242.584 24.3713 243.182 24.276C243.789 24.172 244.196 24.0983 244.404 24.055C244.56 24.0117 244.673 24.042 244.742 24.146C244.811 24.2587 244.872 24.3887 244.924 24.536C244.976 24.6833 245.006 24.7787 245.015 24.822C245.015 24.8913 244.967 24.9737 244.872 25.069C244.777 25.1643 244.699 25.212 244.638 25.212C244.447 25.186 244.17 25.1773 243.806 25.186C243.442 25.186 243.052 25.1947 242.636 25.212C242.229 25.2293 241.856 25.251 241.518 25.277C241.171 25.2943 240.825 25.3203 240.478 25.355C240.14 25.381 239.793 25.4287 239.438 25.498ZM254.917 28.995C254.301 29.0037 253.747 28.9083 253.253 28.709C252.767 28.501 252.382 28.1977 252.096 27.799C251.81 27.4003 251.667 26.9237 251.667 26.369C251.684 25.8403 251.836 25.3767 252.122 24.978C252.416 24.5793 252.811 24.263 253.305 24.029C253.799 23.7863 254.353 23.6563 254.969 23.639C255.61 23.6217 256.182 23.717 256.685 23.925C257.187 24.1243 257.582 24.4233 257.868 24.822C258.154 25.212 258.284 25.6887 258.258 26.252C258.232 26.8067 258.071 27.2877 257.777 27.695C257.482 28.1023 257.088 28.4187 256.594 28.644C256.108 28.8607 255.549 28.9777 254.917 28.995ZM250.536 32.96C250.414 32.96 250.293 32.9167 250.172 32.83C250.033 32.7433 249.881 32.6263 249.717 32.479C249.561 32.323 249.474 32.2147 249.457 32.154C249.431 32.076 249.465 31.972 249.561 31.842C249.656 31.7033 249.76 31.6427 249.873 31.66C250.15 31.7207 250.501 31.7727 250.926 31.816C251.359 31.8507 251.866 31.868 252.447 31.868H252.954C252.945 31.7207 252.932 31.556 252.915 31.374C252.906 31.192 252.893 31.023 252.876 30.867C252.841 30.5897 252.793 30.3947 252.733 30.282C252.681 30.1693 252.598 30.0697 252.486 29.983C252.486 29.983 252.481 29.9787 252.473 29.97C252.395 29.9093 252.338 29.8573 252.304 29.814C252.269 29.7707 252.269 29.7057 252.304 29.619C252.356 29.4717 252.434 29.372 252.538 29.32C252.642 29.2593 252.75 29.2377 252.863 29.255C253.01 29.281 253.17 29.333 253.344 29.411C253.526 29.4803 253.686 29.554 253.825 29.632C254.007 29.7447 254.098 29.8357 254.098 29.905C254.08 30.0437 254.063 30.1823 254.046 30.321C254.037 30.451 254.033 30.5983 254.033 30.763C254.033 30.9623 254.033 31.153 254.033 31.335C254.033 31.517 254.037 31.6903 254.046 31.855C254.41 31.8463 254.782 31.8377 255.164 31.829C255.554 31.8203 255.918 31.8117 256.256 31.803L256.373 30.698C256.39 30.4293 256.386 30.2387 256.36 30.126C256.342 30.0047 256.273 29.8877 256.152 29.775C256.074 29.7057 256.017 29.645 255.983 29.593C255.957 29.541 255.961 29.4717 255.996 29.385C256.056 29.2377 256.147 29.138 256.269 29.086C256.39 29.0253 256.52 29.0167 256.659 29.06C256.823 29.1033 256.988 29.1727 257.153 29.268C257.326 29.3547 257.469 29.437 257.582 29.515C257.746 29.6363 257.816 29.7403 257.79 29.827C257.746 29.931 257.703 30.0697 257.66 30.243C257.625 30.4077 257.586 30.5853 257.543 30.776C257.508 30.9407 257.478 31.1053 257.452 31.27C257.434 31.4347 257.413 31.595 257.387 31.751C257.924 31.7163 258.409 31.673 258.843 31.621C259.285 31.5603 259.64 31.4953 259.909 31.426C260.021 31.3913 260.117 31.374 260.195 31.374C260.29 31.374 260.377 31.4303 260.455 31.543C260.515 31.6383 260.58 31.764 260.65 31.92C260.719 32.076 260.754 32.1843 260.754 32.245C260.754 32.3403 260.693 32.4357 260.572 32.531C260.45 32.6177 260.364 32.661 260.312 32.661C260.104 32.635 259.844 32.6177 259.532 32.609C259.22 32.5917 258.895 32.583 258.557 32.583C258.227 32.5743 257.911 32.57 257.608 32.57C256.862 32.5787 256.048 32.596 255.164 32.622C254.28 32.6393 253.374 32.6653 252.447 32.7C252.308 32.7087 252.122 32.726 251.888 32.752C251.662 32.778 251.441 32.8083 251.225 32.843C251.017 32.869 250.861 32.895 250.757 32.921C250.67 32.947 250.596 32.96 250.536 32.96ZM254.917 28.137C255.497 28.1197 255.978 27.942 256.36 27.604C256.741 27.266 256.936 26.8153 256.945 26.252C256.953 25.6973 256.776 25.2683 256.412 24.965C256.048 24.653 255.567 24.497 254.969 24.497C254.327 24.5143 253.838 24.7093 253.5 25.082C253.162 25.446 252.984 25.8707 252.967 26.356C252.967 26.72 253.053 27.0407 253.227 27.318C253.4 27.5953 253.634 27.8077 253.929 27.955C254.223 28.0937 254.553 28.1543 254.917 28.137Z" fill="white"/>
<rect x="50" y="60" width="87" height="55" rx="6" fill="white" fill-opacity="0.1"/>
<rect x="51.5" y="61.5" width="84" height="52" rx="4.5" stroke="#EAE1E1" stroke-opacity="0.75" stroke-width="3"/>
<rect x="151" y="60" width="87" height="55" rx="6" fill="white" fill-opacity="0.1"/>
<rect x="152.5" y="61.5" width="84" height="52" rx="4.5" stroke="#EAE1E1" stroke-opacity="0.79" stroke-width="3"/>
<path d="M77.345 95.17C76.773 95.17 76.2703 95.0747 75.837 94.884C75.4123 94.6933 75.0787 94.429 74.836 94.091C74.602 93.7617 74.485 93.3803 74.485 92.947C74.485 92.5137 74.615 92.128 74.875 91.79C75.135 91.4433 75.486 91.1747 75.928 90.984C76.37 90.7847 76.8597 90.685 77.397 90.685C77.9343 90.685 78.4197 90.7717 78.853 90.945C79.2863 91.1097 79.6287 91.3567 79.88 91.686C80.14 92.0153 80.27 92.4227 80.27 92.908C80.27 93.35 80.14 93.74 79.88 94.078C79.62 94.416 79.269 94.6803 78.827 94.871C78.385 95.0703 77.891 95.17 77.345 95.17ZM79.542 90.555C79.386 90.555 79.2863 90.4683 79.243 90.295C79.1997 90.1043 79.1737 89.8963 79.165 89.671C79.165 89.4457 79.165 89.2463 79.165 89.073C79.165 89.0037 79.165 88.9517 79.165 88.917V87.318L78.047 87.357V88.423C78.047 88.6397 78.0253 88.8823 77.982 89.151C77.9387 89.411 77.8607 89.6363 77.748 89.827C77.644 90.0177 77.488 90.113 77.28 90.113C77.124 90.113 77.0243 90.0263 76.981 89.853C76.9377 89.671 76.9117 89.476 76.903 89.268C76.903 89.06 76.903 88.865 76.903 88.683C76.903 88.6483 76.903 88.618 76.903 88.592C76.903 88.5573 76.903 88.5227 76.903 88.488V84.913C76.903 84.679 76.8987 84.5013 76.89 84.38C76.8813 84.2587 76.851 84.159 76.799 84.081C76.747 84.003 76.656 83.9163 76.526 83.821C76.4393 83.7517 76.3787 83.691 76.344 83.639C76.3093 83.5783 76.3093 83.5047 76.344 83.418C76.4133 83.2707 76.5043 83.171 76.617 83.119C76.7297 83.0583 76.851 83.0497 76.981 83.093C77.1543 83.145 77.3103 83.21 77.449 83.288C77.5963 83.366 77.735 83.4527 77.865 83.548C78.0297 83.6693 78.112 83.782 78.112 83.886C78.0947 83.9987 78.0773 84.1547 78.06 84.354C78.0513 84.5533 78.047 84.7527 78.047 84.952V86.525L79.165 86.473V84.549C79.165 84.3063 79.1563 84.1243 79.139 84.003C79.1217 83.873 79.0827 83.769 79.022 83.691C78.9613 83.613 78.8573 83.5177 78.71 83.405C78.6233 83.3357 78.5583 83.2707 78.515 83.21C78.4803 83.1493 78.4847 83.0757 78.528 82.989C78.6667 82.7117 78.8833 82.6077 79.178 82.677C79.3773 82.729 79.568 82.8027 79.75 82.898C79.932 82.9847 80.0923 83.0757 80.231 83.171C80.387 83.275 80.465 83.3833 80.465 83.496C80.4477 83.6087 80.426 83.7647 80.4 83.964C80.374 84.1633 80.361 84.3627 80.361 84.562V88.852C80.361 89.0687 80.335 89.3113 80.283 89.58C80.2397 89.84 80.1573 90.0697 80.036 90.269C79.9147 90.4597 79.75 90.555 79.542 90.555ZM73.614 90.217C73.1027 90.2257 72.6737 90.139 72.327 89.957C71.9803 89.775 71.7203 89.5453 71.547 89.268C71.3737 88.982 71.287 88.7047 71.287 88.436C71.287 88.15 71.365 87.8683 71.521 87.591C71.6857 87.3137 71.9413 87.0797 72.288 86.889C72.6347 86.6897 73.081 86.5857 73.627 86.577C74.381 86.5597 74.9573 86.7243 75.356 87.071C75.7547 87.409 75.9497 87.838 75.941 88.358C75.941 88.6527 75.85 88.943 75.668 89.229C75.4947 89.5063 75.2347 89.736 74.888 89.918C74.5413 90.1 74.1167 90.1997 73.614 90.217ZM77.358 94.26C77.8173 94.26 78.1987 94.143 78.502 93.909C78.814 93.6663 78.9743 93.3197 78.983 92.869C79.0003 92.4357 78.8487 92.0977 78.528 91.855C78.2073 91.6123 77.8217 91.491 77.371 91.491C76.903 91.491 76.5173 91.6297 76.214 91.907C75.9107 92.1757 75.759 92.5137 75.759 92.921C75.759 93.337 75.9063 93.6663 76.201 93.909C76.5043 94.143 76.89 94.26 77.358 94.26ZM71.443 86.356C71.287 86.382 71.1787 86.3863 71.118 86.369C71.0573 86.3517 70.9837 86.3127 70.897 86.252C70.8363 86.2087 70.7453 86.135 70.624 86.031C70.5113 85.9183 70.4333 85.823 70.39 85.745C70.3727 85.6583 70.4117 85.5673 70.507 85.472C70.6023 85.368 70.6847 85.316 70.754 85.316C70.9273 85.342 71.1527 85.368 71.43 85.394C71.7073 85.4113 72.002 85.4243 72.314 85.433C72.6347 85.433 72.9467 85.4287 73.25 85.42C73.9953 85.3853 74.602 85.3377 75.07 85.277C75.538 85.2077 75.8543 85.1557 76.019 85.121C76.1143 85.095 76.1837 85.0907 76.227 85.108C76.2703 85.1253 76.3093 85.16 76.344 85.212C76.4047 85.3247 76.4567 85.446 76.5 85.576C76.5433 85.706 76.565 85.7927 76.565 85.836C76.565 85.9053 76.513 85.9833 76.409 86.07C76.305 86.148 76.227 86.187 76.175 86.187C75.8977 86.161 75.5077 86.1437 75.005 86.135C74.511 86.1263 74.0127 86.1307 73.51 86.148C73.1633 86.1567 72.821 86.1783 72.483 86.213C72.145 86.2477 71.7983 86.2953 71.443 86.356ZM73.588 89.424C73.9607 89.4067 74.2423 89.2983 74.433 89.099C74.6237 88.8997 74.7277 88.6527 74.745 88.358C74.7537 88.2107 74.7233 88.0547 74.654 87.89C74.5933 87.7167 74.4807 87.5737 74.316 87.461C74.1513 87.3483 73.9303 87.2963 73.653 87.305C73.2283 87.3223 72.9207 87.4393 72.73 87.656C72.548 87.8727 72.457 88.1283 72.457 88.423C72.457 88.6743 72.5567 88.9083 72.756 89.125C72.964 89.333 73.2413 89.4327 73.588 89.424ZM73.185 84.679C72.9423 84.653 72.6693 84.588 72.366 84.484C72.0627 84.3713 71.8287 84.2457 71.664 84.107C71.6293 84.029 71.638 83.925 71.69 83.795C71.7507 83.6563 71.8417 83.5827 71.963 83.574C72.2923 83.6347 72.6087 83.678 72.912 83.704C73.2153 83.73 73.5273 83.743 73.848 83.743C74.1167 83.743 74.329 83.7343 74.485 83.717C74.6497 83.6997 74.8143 83.6823 74.979 83.665C75.1177 83.6737 75.2303 83.717 75.317 83.795C75.4037 83.8643 75.447 83.9337 75.447 84.003C75.4383 84.0723 75.3993 84.1677 75.33 84.289C75.2693 84.4103 75.187 84.497 75.083 84.549C74.8577 84.627 74.5673 84.6747 74.212 84.692C73.8567 84.7093 73.5143 84.705 73.185 84.679ZM83.4471 90.256C83.2564 90.2993 83.1177 90.3123 83.0311 90.295C82.9531 90.2777 82.8664 90.2343 82.7711 90.165C82.7191 90.1217 82.6411 90.0567 82.5371 89.97C82.4417 89.8833 82.3464 89.7967 82.2511 89.71C82.1644 89.6233 82.1124 89.5583 82.0951 89.515C82.0777 89.4457 82.1167 89.346 82.2121 89.216C82.3074 89.086 82.4071 89.0253 82.5111 89.034C82.7884 89.0947 83.1177 89.1423 83.4991 89.177C83.8891 89.203 84.3007 89.2203 84.7341 89.229C85.1154 89.229 85.5357 89.229 85.9951 89.229C86.4544 89.2203 86.9137 89.2117 87.3731 89.203L87.3081 87.63C87.0307 87.6387 86.7664 87.6473 86.5151 87.656C86.2724 87.6647 86.0687 87.6733 85.9041 87.682C85.8347 87.838 85.7307 87.955 85.5921 88.033C85.4621 88.111 85.3364 88.15 85.2151 88.15C85.1024 88.15 85.0114 88.1023 84.9421 88.007C84.8814 87.903 84.8467 87.7383 84.8381 87.513L84.7861 85.329C84.7861 85.2943 84.7861 85.264 84.7861 85.238C84.7861 85.2033 84.7861 85.1687 84.7861 85.134C84.7774 84.8307 84.7557 84.5967 84.7211 84.432C84.6951 84.2673 84.5824 84.107 84.3831 83.951C84.3224 83.8903 84.2791 83.8297 84.2531 83.769C84.2271 83.7083 84.2401 83.6347 84.2921 83.548C84.3787 83.4007 84.4784 83.3097 84.5911 83.275C84.7037 83.2403 84.8164 83.2403 84.9291 83.275C85.0764 83.3097 85.2411 83.3833 85.4231 83.496C85.6137 83.6087 85.7567 83.704 85.8521 83.782C85.9474 83.86 86.0081 83.925 86.0341 83.977C86.0687 84.029 86.0861 84.0723 86.0861 84.107C86.0687 84.1763 86.0557 84.2587 86.0471 84.354C86.0384 84.4493 86.0341 84.5447 86.0341 84.64C86.2421 84.6487 86.5151 84.6487 86.8531 84.64C87.1997 84.6313 87.5637 84.6227 87.9451 84.614C88.3351 84.5967 88.7034 84.5793 89.0501 84.562C89.4054 84.536 89.6914 84.5143 89.9081 84.497C89.9081 84.1937 89.8907 83.9727 89.8561 83.834C89.8301 83.6867 89.7304 83.5437 89.5571 83.405C89.4791 83.3357 89.4227 83.275 89.3881 83.223C89.3621 83.1623 89.3751 83.0843 89.4271 82.989C89.5051 82.8417 89.6004 82.7507 89.7131 82.716C89.8344 82.6813 89.9514 82.6813 90.0641 82.716C90.3501 82.794 90.6361 82.9283 90.9221 83.119C91.1387 83.2577 91.2514 83.3833 91.2601 83.496C91.2254 83.678 91.1951 83.8947 91.1691 84.146C91.1517 84.3887 91.1431 84.5923 91.1431 84.757L91.1301 86.915C91.1301 87.2357 91.0434 87.4957 90.8701 87.695C90.7054 87.8943 90.5191 87.994 90.3111 87.994C90.0944 87.994 89.9644 87.8597 89.9211 87.591C89.7651 87.591 89.5701 87.591 89.3361 87.591C89.1021 87.591 88.8507 87.5953 88.5821 87.604L88.5041 89.164C88.8507 89.1467 89.1757 89.1337 89.4791 89.125C89.7824 89.1077 90.0511 89.0947 90.2851 89.086C90.8224 89.0513 91.3207 89.008 91.7801 88.956C92.2481 88.904 92.6164 88.8433 92.8851 88.774C93.0584 88.7307 93.1754 88.7177 93.2361 88.735C93.3054 88.7437 93.3704 88.7957 93.4311 88.891C93.4917 88.9777 93.5567 89.099 93.6261 89.255C93.6954 89.4023 93.7301 89.5063 93.7301 89.567C93.7214 89.6623 93.6564 89.7577 93.5351 89.853C93.4224 89.9397 93.3401 89.983 93.2881 89.983C93.0454 89.957 92.8071 89.9397 92.5731 89.931C92.3477 89.9137 92.0791 89.9007 91.7671 89.892C91.4637 89.8833 91.0694 89.879 90.5841 89.879C90.0901 89.879 89.5311 89.8877 88.9071 89.905C88.2831 89.9137 87.6591 89.931 87.0351 89.957C86.4111 89.983 85.8477 90.009 85.3451 90.035C84.9724 90.0523 84.6301 90.0827 84.3181 90.126C84.0061 90.1607 83.7157 90.204 83.4471 90.256ZM90.5841 95.235C90.4627 95.2437 90.3761 95.2177 90.3241 95.157C90.2807 95.0963 90.2504 95.0313 90.2331 94.962C90.1984 94.8147 90.1767 94.65 90.1681 94.468C90.1594 94.2947 90.1551 94.1213 90.1551 93.948L90.1291 92.037C90.1291 91.959 90.1117 91.9113 90.0771 91.894C90.0424 91.868 89.9991 91.855 89.9471 91.855C89.7131 91.8637 89.3231 91.8723 88.7771 91.881C88.2397 91.8897 87.6634 91.9157 87.0481 91.959C86.7534 91.9763 86.4717 92.0023 86.2031 92.037C85.9344 92.063 85.6874 92.102 85.4621 92.154C85.2974 92.1973 85.1804 92.2147 85.1111 92.206C85.0504 92.1887 84.9811 92.154 84.9031 92.102C84.7904 92.024 84.6647 91.9287 84.5261 91.816C84.3874 91.6947 84.2964 91.5907 84.2531 91.504C84.2444 91.4173 84.2834 91.3177 84.3701 91.205C84.4567 91.0923 84.5607 91.0317 84.6821 91.023C84.8901 91.075 85.1544 91.114 85.4751 91.14C85.8044 91.1573 86.1164 91.166 86.4111 91.166C86.8184 91.166 87.2301 91.1617 87.6461 91.153C88.0707 91.1443 88.4824 91.1227 88.8811 91.088C89.1324 91.0707 89.3621 91.0447 89.5701 91.01C89.7867 90.9753 89.9774 90.9277 90.1421 90.867C90.2114 90.841 90.2634 90.828 90.2981 90.828C90.3327 90.8193 90.3891 90.8237 90.4671 90.841L91.3381 90.997C91.4161 91.0057 91.4681 91.0273 91.4941 91.062C91.5201 91.0967 91.5244 91.1573 91.5071 91.244C91.4897 91.322 91.4724 91.4347 91.4551 91.582C91.4377 91.7293 91.4247 91.881 91.4161 92.037C91.4074 92.193 91.4031 92.3273 91.4031 92.44L91.3771 93.753C91.3771 93.9783 91.3467 94.2037 91.2861 94.429C91.2254 94.6543 91.1344 94.8407 91.0131 94.988C90.9004 95.144 90.7574 95.2263 90.5841 95.235ZM86.0081 86.876C86.2421 86.876 86.5324 86.876 86.8791 86.876C87.2257 86.8673 87.5897 86.8587 87.9711 86.85C88.3524 86.8327 88.7164 86.8153 89.0631 86.798C89.4097 86.7807 89.6914 86.7633 89.9081 86.746V85.342C89.7001 85.342 89.4227 85.3463 89.0761 85.355C88.7381 85.355 88.3741 85.3637 87.9841 85.381C87.6027 85.3897 87.2344 85.4027 86.8791 85.42C86.5237 85.4287 86.2334 85.4373 86.0081 85.446V86.876ZM103.87 94.39C103.722 94.39 103.627 94.2817 103.584 94.065C103.558 93.909 103.536 93.727 103.519 93.519C103.51 93.3023 103.501 93.0987 103.493 92.908C103.493 92.7087 103.493 92.557 103.493 92.453V88.475L102.427 88.488V92.037C102.427 92.2017 102.414 92.3923 102.388 92.609C102.362 92.817 102.318 93.025 102.258 93.233C102.206 93.4323 102.128 93.6013 102.024 93.74C101.928 93.87 101.803 93.935 101.647 93.935C101.482 93.935 101.387 93.8267 101.361 93.61C101.343 93.4627 101.326 93.2937 101.309 93.103C101.3 92.9037 101.291 92.713 101.283 92.531C101.283 92.349 101.283 92.206 101.283 92.102V85.069C101.283 84.731 101.257 84.497 101.205 84.367C101.153 84.2283 101.04 84.0853 100.867 83.938C100.806 83.886 100.75 83.8383 100.698 83.795C100.646 83.7517 100.62 83.704 100.62 83.652C100.62 83.5653 100.672 83.4657 100.776 83.353C100.888 83.2403 101.01 83.184 101.14 83.184C101.235 83.184 101.352 83.2143 101.491 83.275C101.638 83.3357 101.781 83.405 101.92 83.483C102.058 83.561 102.167 83.6303 102.245 83.691C102.418 83.821 102.505 83.9337 102.505 84.029C102.479 84.1417 102.457 84.2933 102.44 84.484C102.431 84.6747 102.427 84.8697 102.427 85.069V87.578L103.493 87.539V84.588C103.493 84.3453 103.48 84.1633 103.454 84.042C103.436 83.9207 103.393 83.821 103.324 83.743C103.263 83.6563 103.159 83.561 103.012 83.457C102.951 83.4137 102.899 83.3703 102.856 83.327C102.812 83.275 102.791 83.2187 102.791 83.158C102.791 83.0713 102.843 82.9717 102.947 82.859C103.059 82.7463 103.185 82.69 103.324 82.69C103.428 82.69 103.558 82.7247 103.714 82.794C103.87 82.8547 104.026 82.9283 104.182 83.015C104.338 83.093 104.459 83.1623 104.546 83.223C104.702 83.327 104.78 83.431 104.78 83.535C104.762 83.6477 104.741 83.8037 104.715 84.003C104.689 84.2023 104.676 84.4017 104.676 84.601L104.663 92.388C104.663 92.5527 104.65 92.7477 104.624 92.973C104.606 93.1983 104.567 93.4193 104.507 93.636C104.455 93.8527 104.377 94.0303 104.273 94.169C104.169 94.3163 104.034 94.39 103.87 94.39ZM97.8896 91.4C97.3609 91.4 96.9146 91.296 96.5506 91.088C96.1952 90.88 95.9222 90.62 95.7316 90.308C95.5496 89.9873 95.4586 89.6667 95.4586 89.346C95.4586 89.0253 95.5409 88.709 95.7056 88.397C95.8789 88.0763 96.1476 87.8077 96.5116 87.591C96.8756 87.3743 97.3479 87.2573 97.9286 87.24C98.7172 87.2313 99.3239 87.4177 99.7486 87.799C100.173 88.1717 100.377 88.6657 100.36 89.281C100.351 89.6103 100.251 89.9397 100.061 90.269C99.8786 90.5897 99.6056 90.8583 99.2416 91.075C98.8776 91.2917 98.4269 91.4 97.8896 91.4ZM95.6276 86.785C95.4629 86.811 95.3459 86.8197 95.2766 86.811C95.2072 86.8023 95.1249 86.7547 95.0296 86.668C94.9689 86.616 94.8866 86.5337 94.7826 86.421C94.6872 86.3083 94.6179 86.213 94.5746 86.135C94.5572 86.057 94.5919 85.966 94.6786 85.862C94.7652 85.758 94.8432 85.706 94.9126 85.706C95.1899 85.758 95.5366 85.7927 95.9526 85.81C96.3686 85.8273 96.8062 85.8317 97.2656 85.823C98.1669 85.797 98.8559 85.7493 99.3326 85.68C99.8092 85.6107 100.165 85.55 100.399 85.498C100.494 85.4807 100.559 85.4807 100.594 85.498C100.628 85.5153 100.663 85.55 100.698 85.602C100.767 85.7147 100.819 85.8403 100.854 85.979C100.897 86.1177 100.919 86.2087 100.919 86.252C100.919 86.3213 100.867 86.3993 100.763 86.486C100.667 86.564 100.589 86.603 100.529 86.603C100.251 86.5683 99.8612 86.5467 99.3586 86.538C98.8646 86.5293 98.3619 86.538 97.8506 86.564C97.5039 86.5813 97.1356 86.6073 96.7456 86.642C96.3556 86.668 95.9829 86.7157 95.6276 86.785ZM97.8766 90.542C98.2839 90.5247 98.5959 90.3903 98.8126 90.139C99.0292 89.8877 99.1462 89.5887 99.1636 89.242C99.1809 89.0687 99.1462 88.8867 99.0596 88.696C98.9816 88.4967 98.8516 88.3277 98.6696 88.189C98.4876 88.0503 98.2449 87.9853 97.9416 87.994C97.4649 88.0113 97.1226 88.1543 96.9146 88.423C96.7152 88.6917 96.6156 88.9863 96.6156 89.307C96.6156 89.6277 96.7282 89.9137 96.9536 90.165C97.1789 90.4163 97.4866 90.542 97.8766 90.542ZM97.4216 84.887C97.2569 84.8697 97.0706 84.8307 96.8626 84.77C96.6632 84.7093 96.4682 84.6357 96.2776 84.549C96.0956 84.4623 95.9482 84.3713 95.8356 84.276C95.7922 84.198 95.8009 84.0897 95.8616 83.951C95.9222 83.8123 96.0132 83.7387 96.1346 83.73C96.7846 83.86 97.4346 83.925 98.0846 83.925C98.3619 83.925 98.5916 83.9207 98.7736 83.912C98.9642 83.8947 99.1419 83.8773 99.3066 83.86C99.4452 83.8687 99.5579 83.912 99.6446 83.99C99.7399 84.068 99.7876 84.1417 99.7876 84.211C99.7789 84.2803 99.7399 84.3757 99.6706 84.497C99.6012 84.6183 99.5146 84.7093 99.4106 84.77C99.1852 84.848 98.8776 84.8957 98.4876 84.913C98.1062 84.9217 97.7509 84.913 97.4216 84.887ZM111.75 88.995C111.134 89.0037 110.58 88.9083 110.086 88.709C109.6 88.501 109.215 88.1977 108.929 87.799C108.643 87.4003 108.5 86.9237 108.5 86.369C108.517 85.8403 108.669 85.3767 108.955 84.978C109.249 84.5793 109.644 84.263 110.138 84.029C110.632 83.7863 111.186 83.6563 111.802 83.639C112.443 83.6217 113.015 83.717 113.518 83.925C114.02 84.1243 114.415 84.4233 114.701 84.822C114.987 85.212 115.117 85.6887 115.091 86.252C115.065 86.8067 114.904 87.2877 114.61 87.695C114.315 88.1023 113.921 88.4187 113.427 88.644C112.941 88.8607 112.382 88.9777 111.75 88.995ZM107.369 92.96C107.247 92.96 107.126 92.9167 107.005 92.83C106.866 92.7433 106.714 92.6263 106.55 92.479C106.394 92.323 106.307 92.2147 106.29 92.154C106.264 92.076 106.298 91.972 106.394 91.842C106.489 91.7033 106.593 91.6427 106.706 91.66C106.983 91.7207 107.334 91.7727 107.759 91.816C108.192 91.8507 108.699 91.868 109.28 91.868H109.787C109.778 91.7207 109.765 91.556 109.748 91.374C109.739 91.192 109.726 91.023 109.709 90.867C109.674 90.5897 109.626 90.3947 109.566 90.282C109.514 90.1693 109.431 90.0697 109.319 89.983C109.319 89.983 109.314 89.9787 109.306 89.97C109.228 89.9093 109.171 89.8573 109.137 89.814C109.102 89.7707 109.102 89.7057 109.137 89.619C109.189 89.4717 109.267 89.372 109.371 89.32C109.475 89.2593 109.583 89.2377 109.696 89.255C109.843 89.281 110.003 89.333 110.177 89.411C110.359 89.4803 110.519 89.554 110.658 89.632C110.84 89.7447 110.931 89.8357 110.931 89.905C110.913 90.0437 110.896 90.1823 110.879 90.321C110.87 90.451 110.866 90.5983 110.866 90.763C110.866 90.9623 110.866 91.153 110.866 91.335C110.866 91.517 110.87 91.6903 110.879 91.855C111.243 91.8463 111.615 91.8377 111.997 91.829C112.387 91.8203 112.751 91.8117 113.089 91.803L113.206 90.698C113.223 90.4293 113.219 90.2387 113.193 90.126C113.175 90.0047 113.106 89.8877 112.985 89.775C112.907 89.7057 112.85 89.645 112.816 89.593C112.79 89.541 112.794 89.4717 112.829 89.385C112.889 89.2377 112.98 89.138 113.102 89.086C113.223 89.0253 113.353 89.0167 113.492 89.06C113.656 89.1033 113.821 89.1727 113.986 89.268C114.159 89.3547 114.302 89.437 114.415 89.515C114.579 89.6363 114.649 89.7403 114.623 89.827C114.579 89.931 114.536 90.0697 114.493 90.243C114.458 90.4077 114.419 90.5853 114.376 90.776C114.341 90.9407 114.311 91.1053 114.285 91.27C114.267 91.4347 114.246 91.595 114.22 91.751C114.757 91.7163 115.242 91.673 115.676 91.621C116.118 91.5603 116.473 91.4953 116.742 91.426C116.854 91.3913 116.95 91.374 117.028 91.374C117.123 91.374 117.21 91.4303 117.288 91.543C117.348 91.6383 117.413 91.764 117.483 91.92C117.552 92.076 117.587 92.1843 117.587 92.245C117.587 92.3403 117.526 92.4357 117.405 92.531C117.283 92.6177 117.197 92.661 117.145 92.661C116.937 92.635 116.677 92.6177 116.365 92.609C116.053 92.5917 115.728 92.583 115.39 92.583C115.06 92.5743 114.744 92.57 114.441 92.57C113.695 92.5787 112.881 92.596 111.997 92.622C111.113 92.6393 110.207 92.6653 109.28 92.7C109.141 92.7087 108.955 92.726 108.721 92.752C108.495 92.778 108.274 92.8083 108.058 92.843C107.85 92.869 107.694 92.895 107.59 92.921C107.503 92.947 107.429 92.96 107.369 92.96ZM111.75 88.137C112.33 88.1197 112.811 87.942 113.193 87.604C113.574 87.266 113.769 86.8153 113.778 86.252C113.786 85.6973 113.609 85.2683 113.245 84.965C112.881 84.653 112.4 84.497 111.802 84.497C111.16 84.5143 110.671 84.7093 110.333 85.082C109.995 85.446 109.817 85.8707 109.8 86.356C109.8 86.72 109.886 87.0407 110.06 87.318C110.233 87.5953 110.467 87.8077 110.762 87.955C111.056 88.0937 111.386 88.1543 111.75 88.137ZM179.905 92.362C179.818 92.3707 179.74 92.375 179.671 92.375C179.602 92.375 179.519 92.3447 179.424 92.284C179.363 92.2493 179.268 92.1887 179.138 92.102C179.008 92.0067 178.887 91.9157 178.774 91.829C178.67 91.7337 178.614 91.6643 178.605 91.621C178.605 91.5257 178.648 91.4303 178.735 91.335C178.822 91.2397 178.895 91.179 178.956 91.153C179.259 91.1877 179.584 91.2093 179.931 91.218C180.278 91.218 180.559 91.2137 180.776 91.205C180.993 91.1963 181.222 91.1877 181.465 91.179C181.716 91.1617 181.976 91.14 182.245 91.114C182.245 90.9233 182.241 90.7327 182.232 90.542C182.232 90.3513 182.228 90.1607 182.219 89.97C181.586 89.9007 181.097 89.684 180.75 89.32C180.403 88.9473 180.226 88.5357 180.217 88.085C180.217 87.7643 180.304 87.4653 180.477 87.188C180.659 86.902 180.936 86.6637 181.309 86.473C181.682 86.2823 182.15 86.174 182.713 86.148C183.207 86.1133 183.649 86.1653 184.039 86.304C184.429 86.4427 184.732 86.655 184.949 86.941C185.174 87.2183 185.287 87.5607 185.287 87.968C185.287 88.4187 185.131 88.8217 184.819 89.177C184.507 89.5323 184.052 89.7707 183.454 89.892L183.363 90.997C183.9 90.9277 184.416 90.8497 184.91 90.763C185.413 90.6677 185.837 90.568 186.184 90.464C186.323 90.4207 186.427 90.4293 186.496 90.49C186.565 90.5507 186.6 90.6157 186.6 90.685C186.6 90.8237 186.561 90.9493 186.483 91.062C186.414 91.166 186.292 91.2397 186.119 91.283C185.902 91.3437 185.621 91.4087 185.274 91.478C184.927 91.5473 184.55 91.6167 184.143 91.686C183.744 91.7553 183.354 91.8203 182.973 91.881C182.592 91.933 182.249 91.9807 181.946 92.024C181.721 92.05 181.474 92.0847 181.205 92.128C180.945 92.1713 180.698 92.2147 180.464 92.258C180.239 92.2927 180.052 92.3273 179.905 92.362ZM187.276 94.338C187.12 94.338 187.02 94.2297 186.977 94.013C186.934 93.805 186.908 93.5493 186.899 93.246C186.899 92.934 186.899 92.687 186.899 92.505C186.899 92.453 186.899 92.4183 186.899 92.401V84.575C186.899 84.3323 186.886 84.1503 186.86 84.029C186.843 83.9077 186.795 83.808 186.717 83.73C186.648 83.6433 186.531 83.548 186.366 83.444C186.279 83.392 186.214 83.3313 186.171 83.262C186.136 83.1927 186.141 83.1103 186.184 83.015C186.253 82.8677 186.344 82.7723 186.457 82.729C186.57 82.6857 186.695 82.677 186.834 82.703C187.033 82.7377 187.241 82.807 187.458 82.911C187.675 83.015 187.852 83.1147 187.991 83.21C188.147 83.314 188.225 83.418 188.225 83.522C188.208 83.6347 188.186 83.7907 188.16 83.99C188.134 84.1893 188.121 84.3887 188.121 84.588L188.108 88.241C188.489 88.2237 188.827 88.176 189.122 88.098C189.425 88.0113 189.633 87.9507 189.746 87.916C189.841 87.8813 189.919 87.877 189.98 87.903C190.041 87.9203 190.088 87.955 190.123 88.007C190.192 88.0937 190.262 88.215 190.331 88.371C190.4 88.527 190.435 88.6353 190.435 88.696C190.435 88.7827 190.379 88.8693 190.266 88.956C190.162 89.034 190.08 89.073 190.019 89.073C189.716 89.0297 189.395 89.0037 189.057 88.995C188.719 88.9777 188.403 88.969 188.108 88.969V92.336C188.108 92.5007 188.095 92.6957 188.069 92.921C188.043 93.1463 188 93.3673 187.939 93.584C187.878 93.8007 187.792 93.9783 187.679 94.117C187.575 94.2643 187.441 94.338 187.276 94.338ZM180.087 85.927C179.922 85.9617 179.805 85.9747 179.736 85.966C179.667 85.9573 179.584 85.9097 179.489 85.823C179.428 85.771 179.346 85.693 179.242 85.589C179.138 85.4763 179.064 85.381 179.021 85.303C179.004 85.2163 179.038 85.1253 179.125 85.03C179.212 84.926 179.29 84.874 179.359 84.874C179.541 84.9087 179.81 84.9347 180.165 84.952C180.529 84.9693 180.915 84.978 181.322 84.978C181.729 84.978 182.085 84.9737 182.388 84.965C183.289 84.939 183.996 84.887 184.507 84.809C185.027 84.731 185.395 84.666 185.612 84.614C185.777 84.5707 185.894 84.601 185.963 84.705C186.032 84.8177 186.084 84.939 186.119 85.069C186.162 85.1903 186.184 85.2727 186.184 85.316C186.184 85.3853 186.132 85.4677 186.028 85.563C185.933 85.6497 185.855 85.6887 185.794 85.68C185.569 85.6627 185.274 85.654 184.91 85.654C184.555 85.6453 184.169 85.6453 183.753 85.654C183.346 85.654 182.951 85.667 182.57 85.693C182.345 85.7017 182.08 85.719 181.777 85.745C181.482 85.7623 181.183 85.7883 180.88 85.823C180.585 85.849 180.321 85.8837 180.087 85.927ZM182.752 89.19C183.047 89.1727 183.285 89.099 183.467 88.969C183.658 88.839 183.796 88.6873 183.883 88.514C183.978 88.332 184.026 88.1543 184.026 87.981C184.026 87.8337 183.987 87.6733 183.909 87.5C183.831 87.318 183.697 87.162 183.506 87.032C183.324 86.8933 183.077 86.8283 182.765 86.837C182.462 86.837 182.21 86.9063 182.011 87.045C181.812 87.1837 181.669 87.344 181.582 87.526C181.495 87.708 181.452 87.877 181.452 88.033C181.461 88.3623 181.578 88.644 181.803 88.878C182.037 89.1033 182.353 89.2073 182.752 89.19ZM182.297 84.263C182.132 84.237 181.942 84.1937 181.725 84.133C181.508 84.0723 181.3 83.9987 181.101 83.912C180.902 83.8253 180.746 83.7343 180.633 83.639C180.59 83.561 180.598 83.4527 180.659 83.314C180.72 83.1753 180.811 83.1017 180.932 83.093C181.261 83.1537 181.599 83.2013 181.946 83.236C182.301 83.2707 182.639 83.288 182.96 83.288C183.237 83.288 183.497 83.2793 183.74 83.262C183.991 83.2447 184.199 83.2273 184.364 83.21C184.503 83.2187 184.615 83.262 184.702 83.34C184.797 83.418 184.845 83.4917 184.845 83.561C184.836 83.6303 184.797 83.73 184.728 83.86C184.659 83.9813 184.572 84.0723 184.468 84.133C184.321 84.185 184.117 84.224 183.857 84.25C183.597 84.276 183.324 84.2933 183.038 84.302C182.761 84.302 182.514 84.289 182.297 84.263ZM199.303 94.39C199.156 94.39 199.061 94.2817 199.017 94.065C198.991 93.9177 198.97 93.74 198.952 93.532C198.944 93.324 198.939 93.1203 198.939 92.921C198.939 92.7217 198.939 92.5657 198.939 92.453V84.77C198.939 84.7527 198.939 84.7267 198.939 84.692C198.939 84.3887 198.913 84.1503 198.861 83.977C198.818 83.8037 198.658 83.6347 198.38 83.47C198.328 83.4353 198.281 83.3963 198.237 83.353C198.194 83.3097 198.172 83.2577 198.172 83.197C198.172 83.1017 198.22 82.9933 198.315 82.872C198.411 82.7507 198.528 82.69 198.666 82.69C198.762 82.69 198.892 82.716 199.056 82.768C199.221 82.8113 199.39 82.872 199.563 82.95C199.737 83.0193 199.884 83.093 200.005 83.171C200.17 83.275 200.252 83.379 200.252 83.483C200.244 83.5957 200.222 83.782 200.187 84.042C200.161 84.2933 200.148 84.536 200.148 84.77V88.059C200.53 88.0417 200.876 87.994 201.188 87.916C201.5 87.8293 201.717 87.7687 201.838 87.734C201.934 87.6993 202.012 87.695 202.072 87.721C202.133 87.7383 202.181 87.773 202.215 87.825C202.285 87.9117 202.354 88.033 202.423 88.189C202.493 88.345 202.527 88.4533 202.527 88.514C202.527 88.6007 202.471 88.6873 202.358 88.774C202.254 88.852 202.172 88.891 202.111 88.891C201.808 88.8477 201.479 88.8173 201.123 88.8C200.777 88.7827 200.447 88.7783 200.135 88.787V92.388C200.135 92.5527 200.122 92.7477 200.096 92.973C200.07 93.1983 200.023 93.4193 199.953 93.636C199.893 93.8527 199.806 94.0303 199.693 94.169C199.589 94.3163 199.459 94.39 199.303 94.39ZM192.738 91.153C192.496 91.1097 192.314 90.9797 192.192 90.763C192.071 90.5377 192.01 90.282 192.01 89.996V86.382C192.01 86.0007 191.989 85.7103 191.945 85.511C191.911 85.303 191.781 85.108 191.555 84.926C191.399 84.8133 191.369 84.679 191.464 84.523C191.551 84.3843 191.651 84.2933 191.763 84.25C191.876 84.2067 191.989 84.2023 192.101 84.237C192.249 84.2717 192.409 84.3367 192.582 84.432C192.764 84.5187 192.92 84.6097 193.05 84.705C193.146 84.7657 193.228 84.8307 193.297 84.9C193.367 84.9693 193.397 85.0387 193.388 85.108C193.354 85.264 193.328 85.459 193.31 85.693C193.293 85.9183 193.284 86.1133 193.284 86.278V89.463C193.284 89.6537 193.306 89.788 193.349 89.866C193.393 89.9353 193.501 89.9657 193.674 89.957C194.082 89.9397 194.498 89.8963 194.922 89.827C195.356 89.7577 195.767 89.6753 196.157 89.58C196.556 89.476 196.911 89.3763 197.223 89.281C197.535 89.177 197.778 89.0903 197.951 89.021C198.09 88.9603 198.198 88.9517 198.276 88.995C198.354 89.0297 198.398 89.086 198.406 89.164C198.415 89.4327 198.172 89.684 197.678 89.918C197.436 90.0307 197.115 90.1563 196.716 90.295C196.318 90.425 195.884 90.555 195.416 90.685C194.948 90.8063 194.48 90.9103 194.012 90.997C193.544 91.0837 193.12 91.1357 192.738 91.153ZM208.386 88.995C207.771 89.0037 207.216 88.9083 206.722 88.709C206.237 88.501 205.851 88.1977 205.565 87.799C205.279 87.4003 205.136 86.9237 205.136 86.369C205.154 85.8403 205.305 85.3767 205.591 84.978C205.886 84.5793 206.28 84.263 206.774 84.029C207.268 83.7863 207.823 83.6563 208.438 83.639C209.08 83.6217 209.652 83.717 210.154 83.925C210.657 84.1243 211.051 84.4233 211.337 84.822C211.623 85.212 211.753 85.6887 211.727 86.252C211.701 86.8067 211.541 87.2877 211.246 87.695C210.952 88.1023 210.557 88.4187 210.063 88.644C209.578 88.8607 209.019 88.9777 208.386 88.995ZM204.005 92.96C203.884 92.96 203.763 92.9167 203.641 92.83C203.503 92.7433 203.351 92.6263 203.186 92.479C203.03 92.323 202.944 92.2147 202.926 92.154C202.9 92.076 202.935 91.972 203.03 91.842C203.126 91.7033 203.23 91.6427 203.342 91.66C203.62 91.7207 203.971 91.7727 204.395 91.816C204.829 91.8507 205.336 91.868 205.916 91.868H206.423C206.415 91.7207 206.402 91.556 206.384 91.374C206.376 91.192 206.363 91.023 206.345 90.867C206.311 90.5897 206.263 90.3947 206.202 90.282C206.15 90.1693 206.068 90.0697 205.955 89.983C205.955 89.983 205.951 89.9787 205.942 89.97C205.864 89.9093 205.808 89.8573 205.773 89.814C205.739 89.7707 205.739 89.7057 205.773 89.619C205.825 89.4717 205.903 89.372 206.007 89.32C206.111 89.2593 206.22 89.2377 206.332 89.255C206.48 89.281 206.64 89.333 206.813 89.411C206.995 89.4803 207.156 89.554 207.294 89.632C207.476 89.7447 207.567 89.8357 207.567 89.905C207.55 90.0437 207.533 90.1823 207.515 90.321C207.507 90.451 207.502 90.5983 207.502 90.763C207.502 90.9623 207.502 91.153 207.502 91.335C207.502 91.517 207.507 91.6903 207.515 91.855C207.879 91.8463 208.252 91.8377 208.633 91.829C209.023 91.8203 209.387 91.8117 209.725 91.803L209.842 90.698C209.86 90.4293 209.855 90.2387 209.829 90.126C209.812 90.0047 209.743 89.8877 209.621 89.775C209.543 89.7057 209.487 89.645 209.452 89.593C209.426 89.541 209.431 89.4717 209.465 89.385C209.526 89.2377 209.617 89.138 209.738 89.086C209.86 89.0253 209.99 89.0167 210.128 89.06C210.293 89.1033 210.458 89.1727 210.622 89.268C210.796 89.3547 210.939 89.437 211.051 89.515C211.216 89.6363 211.285 89.7403 211.259 89.827C211.216 89.931 211.173 90.0697 211.129 90.243C211.095 90.4077 211.056 90.5853 211.012 90.776C210.978 90.9407 210.947 91.1053 210.921 91.27C210.904 91.4347 210.882 91.595 210.856 91.751C211.394 91.7163 211.879 91.673 212.312 91.621C212.754 91.5603 213.11 91.4953 213.378 91.426C213.491 91.3913 213.586 91.374 213.664 91.374C213.76 91.374 213.846 91.4303 213.924 91.543C213.985 91.6383 214.05 91.764 214.119 91.92C214.189 92.076 214.223 92.1843 214.223 92.245C214.223 92.3403 214.163 92.4357 214.041 92.531C213.92 92.6177 213.833 92.661 213.781 92.661C213.573 92.635 213.313 92.6177 213.001 92.609C212.689 92.5917 212.364 92.583 212.026 92.583C211.697 92.5743 211.381 92.57 211.077 92.57C210.332 92.5787 209.517 92.596 208.633 92.622C207.749 92.6393 206.844 92.6653 205.916 92.7C205.778 92.7087 205.591 92.726 205.357 92.752C205.132 92.778 204.911 92.8083 204.694 92.843C204.486 92.869 204.33 92.895 204.226 92.921C204.14 92.947 204.066 92.96 204.005 92.96ZM208.386 88.137C208.967 88.1197 209.448 87.942 209.829 87.604C210.211 87.266 210.406 86.8153 210.414 86.252C210.423 85.6973 210.245 85.2683 209.881 84.965C209.517 84.653 209.036 84.497 208.438 84.497C207.797 84.5143 207.307 84.7093 206.969 85.082C206.631 85.446 206.454 85.8707 206.436 86.356C206.436 86.72 206.523 87.0407 206.696 87.318C206.87 87.5953 207.104 87.8077 207.398 87.955C207.693 88.0937 208.022 88.1543 208.386 88.137Z" fill="white"/>
</svg>
