<svg width="276" height="70" viewBox="0 0 276 70" fill="none" xmlns="http://www.w3.org/2000/svg">
<path d="M249 1H27C12.0883 1 0 13.0883 0 28V41C0 55.9117 12.0883 68 27 68H249C263.912 68 276 55.9117 276 41V28C276 13.0883 263.912 1 249 1Z" fill="#D9D9D9" fill-opacity="0.36"/>
<path d="M22.4446 32.9999V31.7726C22.4446 31.4241 22.5128 31.0681 22.6492 30.7044C22.7856 30.3408 22.9655 29.998 23.189 29.676C23.4124 29.3541 23.6549 29.0851 23.9162 28.8692L24.9844 29.4999C24.7723 29.8332 24.5981 30.1817 24.4617 30.5454C24.3291 30.909 24.2628 31.3143 24.2628 31.7613V32.9999H22.4446ZM29.423 28.7439H31.135V30.8879C31.135 31.8052 31.055 32.7012 30.895 33.5759C30.735 34.4399 30.4843 35.2452 30.143 35.9919C29.8123 36.7386 29.391 37.4052 28.879 37.9919C28.367 38.5679 27.7643 39.0266 27.071 39.3679L25.791 37.6559C26.4203 37.3679 26.959 36.9839 27.407 36.5039C27.8656 36.0239 28.2443 35.4799 28.543 34.8719C28.8416 34.2639 29.0603 33.6239 29.199 32.9519C29.3483 32.2692 29.423 31.5812 29.423 30.8879V28.7439ZM29.839 28.7439H31.551V30.8879C31.551 31.5599 31.615 32.2212 31.743 32.8719C31.8816 33.5226 32.0896 34.1412 32.367 34.7279C32.655 35.3039 33.0123 35.8212 33.439 36.2799C33.8656 36.7386 34.3776 37.1172 34.975 37.4159L33.679 39.1119C33.0176 38.7706 32.4416 38.3226 31.951 37.7679C31.471 37.2026 31.0763 36.5572 30.767 35.8319C30.4576 35.0959 30.223 34.3119 30.063 33.4799C29.9136 32.6372 29.839 31.7732 29.839 30.8879V28.7439ZM35.551 27.6079H37.695V42.4239H35.551V27.6079ZM37.231 33.3039H39.839V35.0639H37.231V33.3039ZM44.4137 28.7439H46.1577V30.8879C46.1577 31.8479 46.0724 32.7706 45.9017 33.6559C45.731 34.5306 45.4697 35.3519 45.1177 36.1199C44.7764 36.8772 44.3337 37.5492 43.7897 38.1359C43.2564 38.7119 42.6217 39.1706 41.8857 39.5119L40.6217 37.7519C41.2724 37.4639 41.8324 37.0852 42.3017 36.6159C42.7817 36.1359 43.1764 35.5919 43.4857 34.9839C43.795 34.3652 44.0244 33.7092 44.1737 33.0159C44.3337 32.3226 44.4137 31.6132 44.4137 30.8879V28.7439ZM44.8297 28.7439H46.5577V30.8879C46.5577 31.5812 46.6324 32.2586 46.7817 32.9199C46.931 33.5812 47.155 34.2052 47.4537 34.7919C47.763 35.3786 48.147 35.9012 48.6057 36.3599C49.075 36.8079 49.6244 37.1652 50.2537 37.4319L49.0217 39.1599C48.307 38.8292 47.683 38.3866 47.1497 37.8319C46.627 37.2772 46.195 36.6372 45.8537 35.9119C45.5124 35.1759 45.2564 34.3866 45.0857 33.5439C44.915 32.6906 44.8297 31.8052 44.8297 30.8879V28.7439ZM50.9737 27.5759H53.1017V42.4399H50.9737V27.5759ZM66.5885 33.1919H69.1965V34.9519H66.5885V33.1919ZM64.9885 27.5759H67.1325V42.3919H64.9885V27.5759ZM55.9805 28.9999H58.0925V38.2159H55.9805V28.9999ZM55.9805 37.0159H57.2445C58.3005 37.0159 59.3991 36.9732 60.5405 36.8879C61.6818 36.8026 62.8498 36.6426 64.0445 36.4079L64.2685 38.1359C63.0311 38.3919 61.8258 38.5679 60.6525 38.6639C59.4791 38.7492 58.3431 38.7919 57.2445 38.7919H55.9805V37.0159ZM70.2512 35.8799H83.6592V37.5919H70.2512V35.8799ZM75.8352 36.9679H77.9632V42.4239H75.8352V36.9679ZM71.7872 28.3279H82.0592V34.2959H71.7872V28.3279ZM79.9792 29.9919H73.8832V32.6319H79.9792V29.9919ZM86.7231 29.3635V30.3863C86.7231 30.6969 86.6662 31.0283 86.5526 31.3806C86.4428 31.7291 86.2799 32.0681 86.064 32.3976C85.8518 32.7234 85.5943 33.0075 85.2912 33.2499L84.564 32.659C84.8026 32.3181 85.009 31.9639 85.1833 31.5965C85.3613 31.2253 85.4503 30.8294 85.4503 30.409V29.3635H86.7231ZM102.375 27.7679H103.687V42.2639H102.375V27.7679ZM103.383 33.5119H106.055V34.6319H103.383V33.5119ZM93.1591 37.6559H94.3111C95.2071 37.6559 96.0284 37.6452 96.7751 37.6239C97.5324 37.5919 98.2631 37.5439 98.9671 37.4799C99.6711 37.4052 100.386 37.2986 101.111 37.1599L101.239 38.2479C100.492 38.3866 99.7618 38.4932 99.0471 38.5679C98.3431 38.6426 97.6071 38.6959 96.8391 38.7279C96.0711 38.7599 95.2284 38.7759 94.3111 38.7759H93.1591V37.6559ZM93.1271 29.1119H99.6551V34.3119H94.4711V38.1039H93.1591V33.2079H98.3431V30.1999H93.1271V29.1119ZM109.046 32.1199H118.886V33.1919H109.046V32.1199ZM107.27 35.1279H120.39V36.2159H107.27V35.1279ZM109.046 28.2959H110.358V32.6639H109.046V28.2959ZM108.95 40.8079H118.966V41.8959H108.95V40.8079ZM108.95 37.6719H110.278V41.0959H108.95V37.6719ZM136.409 27.7679H137.737V38.2479H136.409V27.7679ZM137.321 32.0559H139.881V33.1599H137.321V32.0559ZM127.177 34.5839H128.297C129.289 34.5839 130.158 34.5732 130.905 34.5519C131.651 34.5306 132.339 34.4826 132.969 34.4079C133.598 34.3332 134.233 34.2319 134.873 34.1039L135.033 35.1919C134.361 35.3199 133.699 35.4212 133.049 35.4959C132.409 35.5706 131.71 35.6239 130.953 35.6559C130.195 35.6772 129.31 35.6879 128.297 35.6879H127.177V34.5839ZM127.177 29.0159H133.561V30.1039H128.489V35.1759H127.177V29.0159ZM128.729 40.8399H138.377V41.9279H128.729V40.8399ZM128.729 37.1919H130.041V41.3359H128.729V37.1919ZM145.079 28.8879C145.783 28.8879 146.407 29.0959 146.951 29.5119C147.495 29.9172 147.917 30.4986 148.215 31.2559C148.525 32.0132 148.679 32.9039 148.679 33.9279C148.679 34.9519 148.525 35.8426 148.215 36.5999C147.917 37.3572 147.495 37.9439 146.951 38.3599C146.407 38.7759 145.783 38.9839 145.079 38.9839C144.386 38.9839 143.762 38.7759 143.207 38.3599C142.663 37.9439 142.237 37.3572 141.927 36.5999C141.629 35.8426 141.479 34.9519 141.479 33.9279C141.479 32.9039 141.629 32.0132 141.927 31.2559C142.237 30.4986 142.663 29.9172 143.207 29.5119C143.762 29.0959 144.386 28.8879 145.079 28.8879ZM145.079 30.0719C144.621 30.0719 144.215 30.2319 143.863 30.5519C143.511 30.8612 143.234 31.3092 143.031 31.8959C142.839 32.4719 142.743 33.1492 142.743 33.9279C142.743 34.7066 142.839 35.3892 143.031 35.9759C143.234 36.5519 143.511 36.9999 143.863 37.3199C144.215 37.6399 144.621 37.7999 145.079 37.7999C145.549 37.7999 145.959 37.6399 146.311 37.3199C146.663 36.9999 146.935 36.5519 147.127 35.9759C147.33 35.3892 147.431 34.7066 147.431 33.9279C147.431 33.1492 147.33 32.4719 147.127 31.8959C146.935 31.3092 146.663 30.8612 146.311 30.5519C145.959 30.2319 145.549 30.0719 145.079 30.0719ZM151.815 27.7679H153.127V42.2639H151.815V27.7679ZM148.247 33.2879H152.407V34.3599H148.247V33.2879ZM155.926 34.4879H169.046V35.5119H155.926V34.4879ZM157.494 36.6639H167.414V39.7519H158.838V41.4479H157.526V38.8399H166.102V37.6239H157.494V36.6639ZM157.526 41.0959H167.878V42.0559H157.526V41.0959ZM157.59 28.1999H167.366V31.2079H158.934V32.7759H157.622V30.3119H166.054V29.1439H157.59V28.1999ZM157.622 32.4559H167.622V33.4159H157.622V32.4559ZM182.825 31.7679H186.489V32.8559H182.825V31.7679ZM185.737 27.7839H187.065V38.3919H185.737V27.7839ZM177.833 40.8399H187.465V41.9279H177.833V40.8399ZM177.833 37.4479H179.145V41.3839H177.833V37.4479ZM178.841 29.5759H179.929V30.7439C179.929 31.6186 179.758 32.4452 179.417 33.2239C179.086 33.9919 178.617 34.6639 178.009 35.2399C177.401 35.8052 176.697 36.2426 175.897 36.5519L175.209 35.4799C175.742 35.2879 176.228 35.0319 176.665 34.7119C177.113 34.3919 177.502 34.0239 177.833 33.6079C178.164 33.1919 178.414 32.7386 178.585 32.2479C178.756 31.7572 178.841 31.2559 178.841 30.7439V29.5759ZM179.097 29.5759H180.185V30.7439C180.185 31.3626 180.329 31.9652 180.617 32.5519C180.905 33.1386 181.316 33.6612 181.849 34.1199C182.382 34.5679 182.996 34.9146 183.689 35.1599L183.017 36.2159C182.228 35.9279 181.54 35.5119 180.953 34.9679C180.366 34.4132 179.908 33.7732 179.577 33.0479C179.257 32.3226 179.097 31.5546 179.097 30.7439V29.5759ZM175.625 28.9519H183.353V30.0399H175.625V28.9519ZM195.752 32.8399H197.064V35.5279H195.752V32.8399ZM195.736 27.9919H196.872V28.6479C196.872 29.1599 196.77 29.6452 196.568 30.1039C196.365 30.5626 196.077 30.9839 195.704 31.3679C195.341 31.7519 194.92 32.0932 194.44 32.3919C193.96 32.6799 193.442 32.9306 192.888 33.1439C192.333 33.3466 191.757 33.4959 191.16 33.5919L190.664 32.5359C191.176 32.4612 191.677 32.3439 192.168 32.1839C192.669 32.0132 193.133 31.8106 193.56 31.5759C193.986 31.3306 194.36 31.0532 194.68 30.7439C195.01 30.4346 195.266 30.1039 195.448 29.7519C195.64 29.3999 195.736 29.0319 195.736 28.6479V27.9919ZM195.944 27.9919H197.08V28.6479C197.08 29.0319 197.17 29.3999 197.352 29.7519C197.533 30.1039 197.789 30.4346 198.12 30.7439C198.45 31.0426 198.829 31.3146 199.256 31.5599C199.682 31.8052 200.141 32.0132 200.632 32.1839C201.133 32.3439 201.64 32.4612 202.152 32.5359L201.64 33.5919C201.053 33.4959 200.482 33.3466 199.928 33.1439C199.384 32.9306 198.866 32.6746 198.376 32.3759C197.896 32.0772 197.469 31.7412 197.096 31.3679C196.733 30.9839 196.45 30.5679 196.248 30.1199C196.045 29.6612 195.944 29.1706 195.944 28.6479V27.9919ZM189.88 34.9519H202.952V36.0239H189.88V34.9519ZM196.408 37.2079C197.954 37.2079 199.165 37.4266 200.04 37.8639C200.914 38.3012 201.352 38.9199 201.352 39.7199C201.352 40.5199 200.914 41.1332 200.04 41.5599C199.165 41.9972 197.954 42.2159 196.408 42.2159C194.85 42.2159 193.634 41.9972 192.76 41.5599C191.885 41.1332 191.448 40.5199 191.448 39.7199C191.448 38.9199 191.885 38.3012 192.76 37.8639C193.634 37.4266 194.85 37.2079 196.408 37.2079ZM196.408 38.2479C195.266 38.2479 194.376 38.3759 193.736 38.6319C193.106 38.8772 192.792 39.2399 192.792 39.7199C192.792 40.1892 193.106 40.5519 193.736 40.8079C194.376 41.0639 195.266 41.1919 196.408 41.1919C197.538 41.1919 198.424 41.0639 199.064 40.8079C199.704 40.5519 200.024 40.1892 200.024 39.7199C200.024 39.2399 199.704 38.8772 199.064 38.6319C198.424 38.3759 197.538 38.2479 196.408 38.2479ZM215.526 27.7839H216.79V36.7439H215.526V27.7839ZM213.158 31.7519H215.894V32.8399H213.158V31.7519ZM212.454 28.0079H213.702V36.5199H212.454V28.0079ZM204.518 29.4159H211.846V30.4879H204.518V29.4159ZM208.198 31.2079C208.806 31.2079 209.34 31.3146 209.798 31.5279C210.268 31.7306 210.63 32.0186 210.886 32.3919C211.153 32.7546 211.286 33.1866 211.286 33.6879C211.286 34.1786 211.153 34.6106 210.886 34.9839C210.63 35.3572 210.268 35.6506 209.798 35.8639C209.34 36.0666 208.806 36.1679 208.198 36.1679C207.601 36.1679 207.068 36.0666 206.598 35.8639C206.129 35.6506 205.766 35.3572 205.51 34.9839C205.254 34.6106 205.126 34.1786 205.126 33.6879C205.126 33.1866 205.254 32.7546 205.51 32.3919C205.766 32.0186 206.129 31.7306 206.598 31.5279C207.068 31.3146 207.601 31.2079 208.198 31.2079ZM208.198 32.1999C207.644 32.1999 207.19 32.3332 206.838 32.5999C206.486 32.8666 206.31 33.2292 206.31 33.6879C206.31 34.1359 206.486 34.4986 206.838 34.7759C207.19 35.0426 207.644 35.1759 208.198 35.1759C208.764 35.1759 209.217 35.0426 209.558 34.7759C209.91 34.4986 210.086 34.1359 210.086 33.6879C210.086 33.2292 209.91 32.8666 209.558 32.5999C209.217 32.3332 208.764 32.1999 208.198 32.1999ZM207.542 27.8319H208.854V30.0559H207.542V27.8319ZM208.406 37.1759H209.446V37.6559C209.446 38.2639 209.313 38.8612 209.046 39.4479C208.79 40.0239 208.417 40.5412 207.926 40.9999C207.436 41.4586 206.838 41.8159 206.134 42.0719L205.51 41.0639C206.118 40.8612 206.636 40.5786 207.062 40.2159C207.5 39.8426 207.83 39.4319 208.054 38.9839C208.289 38.5359 208.406 38.0932 208.406 37.6559V37.1759ZM208.71 37.1759H209.702V37.6559C209.702 38.1146 209.793 38.5786 209.974 39.0479C210.166 39.5066 210.454 39.9226 210.838 40.2959C211.222 40.6692 211.697 40.9679 212.262 41.1919L211.718 42.1999C211.025 41.9332 210.454 41.5599 210.006 41.0799C209.569 40.6106 209.244 40.0772 209.03 39.4799C208.817 38.8826 208.71 38.2746 208.71 37.6559V37.1759ZM213.718 37.1759H214.71V37.6559C214.71 38.1999 214.604 38.7706 214.39 39.3679C214.177 39.9652 213.846 40.5146 213.398 41.0159C212.961 41.5279 212.401 41.9226 211.718 42.1999L211.158 41.1919C211.724 40.9359 212.193 40.6106 212.566 40.2159C212.95 39.8212 213.238 39.3946 213.43 38.9359C213.622 38.4772 213.718 38.0506 213.718 37.6559V37.1759ZM214.006 37.1759H215.03V37.6559C215.03 38.1252 215.142 38.5892 215.366 39.0479C215.601 39.4959 215.937 39.8959 216.374 40.2479C216.812 40.5999 217.329 40.8719 217.926 41.0639L217.302 42.0719C216.598 41.8266 216.001 41.4799 215.51 41.0319C215.02 40.5946 214.646 40.0826 214.39 39.4959C214.134 38.9092 214.006 38.2959 214.006 37.6559V37.1759ZM223.173 28.8879C223.877 28.8879 224.501 29.0959 225.045 29.5119C225.589 29.9172 226.01 30.4986 226.309 31.2559C226.618 32.0132 226.773 32.9039 226.773 33.9279C226.773 34.9519 226.618 35.8426 226.309 36.5999C226.01 37.3572 225.589 37.9439 225.045 38.3599C224.501 38.7759 223.877 38.9839 223.173 38.9839C222.48 38.9839 221.856 38.7759 221.301 38.3599C220.757 37.9439 220.33 37.3572 220.021 36.5999C219.722 35.8426 219.573 34.9519 219.573 33.9279C219.573 32.9039 219.722 32.0132 220.021 31.2559C220.33 30.4986 220.757 29.9172 221.301 29.5119C221.856 29.0959 222.48 28.8879 223.173 28.8879ZM223.173 30.0719C222.714 30.0719 222.309 30.2319 221.957 30.5519C221.605 30.8612 221.328 31.3092 221.125 31.8959C220.933 32.4719 220.837 33.1492 220.837 33.9279C220.837 34.7066 220.933 35.3892 221.125 35.9759C221.328 36.5519 221.605 36.9999 221.957 37.3199C222.309 37.6399 222.714 37.7999 223.173 37.7999C223.642 37.7999 224.053 37.6399 224.405 37.3199C224.757 36.9999 225.029 36.5519 225.221 35.9759C225.424 35.3892 225.525 34.7066 225.525 33.9279C225.525 33.1492 225.424 32.4719 225.221 31.8959C225.029 31.3092 224.757 30.8612 224.405 30.5519C224.053 30.2319 223.642 30.0719 223.173 30.0719ZM229.909 27.7679H231.221V42.2639H229.909V27.7679ZM226.341 33.2879H230.501V34.3599H226.341V33.2879ZM237.252 35.2239H238.564V39.5439H237.252V35.2239ZM242.596 35.2239H243.924V39.5439H242.596V35.2239ZM234.036 39.2879H247.156V40.3919H234.036V39.2879ZM240.564 28.6799C241.588 28.6799 242.495 28.8346 243.284 29.1439C244.073 29.4532 244.692 29.8852 245.14 30.4399C245.599 30.9946 245.828 31.6506 245.828 32.4079C245.828 33.1546 245.599 33.8106 245.14 34.3759C244.692 34.9306 244.073 35.3626 243.284 35.6719C242.495 35.9706 241.588 36.1199 240.564 36.1199C239.551 36.1199 238.644 35.9706 237.844 35.6719C237.055 35.3626 236.436 34.9306 235.988 34.3759C235.54 33.8106 235.316 33.1546 235.316 32.4079C235.316 31.6506 235.54 30.9946 235.988 30.4399C236.436 29.8852 237.055 29.4532 237.844 29.1439C238.644 28.8346 239.551 28.6799 240.564 28.6799ZM240.564 29.7359C239.796 29.7359 239.113 29.8479 238.516 30.0719C237.919 30.2959 237.449 30.6106 237.108 31.0159C236.767 31.4106 236.596 31.8746 236.596 32.4079C236.596 32.9412 236.767 33.4106 237.108 33.8159C237.449 34.2106 237.919 34.5199 238.516 34.7439C239.113 34.9679 239.796 35.0799 240.564 35.0799C241.343 35.0799 242.031 34.9679 242.628 34.7439C243.225 34.5199 243.695 34.2106 244.036 33.8159C244.377 33.4106 244.548 32.9412 244.548 32.4079C244.548 31.8746 244.377 31.4106 244.036 31.0159C243.695 30.6106 243.225 30.2959 242.628 30.0719C242.031 29.8479 241.343 29.7359 240.564 29.7359ZM250.159 41.0908C249.879 41.0908 249.638 40.9904 249.438 40.7897C249.237 40.5889 249.136 40.3484 249.136 40.0681C249.136 39.7878 249.237 39.5472 249.438 39.3465C249.638 39.1457 249.879 39.0454 250.159 39.0454C250.439 39.0454 250.68 39.1457 250.881 39.3465C251.081 39.5472 251.182 39.7878 251.182 40.0681C251.182 40.2537 251.135 40.4241 251.04 40.5794C250.949 40.7347 250.826 40.8597 250.67 40.9544C250.519 41.0454 250.349 41.0908 250.159 41.0908Z" fill="black"/>
<path d="M247 35C247 47.1503 237.15 57 225 57C212.85 57 203 47.1503 203 35C203 22.8497 212.85 13 225 13C237.15 13 247 22.8497 247 35Z" fill="#D9D9D9" fill-opacity="0.68"/>
</svg>
