<svg width="278" height="43" viewBox="0 0 278 43" fill="none" xmlns="http://www.w3.org/2000/svg">
<path d="M21.5 1V1.5H256.5V1V0.5H21.5V1ZM256.5 42V41.5H21.5V42V42.5H256.5V42ZM21.5 42V41.5C10.4543 41.5 1.5 32.5457 1.5 21.5H1H0.5C0.5 33.098 9.90202 42.5 21.5 42.5V42ZM277 21.5H276.5C276.5 32.5457 267.546 41.5 256.5 41.5V42V42.5C268.098 42.5 277.5 33.098 277.5 21.5H277ZM256.5 1V1.5C267.546 1.5 276.5 10.4543 276.5 21.5H277H277.5C277.5 9.90202 268.098 0.5 256.5 0.5V1ZM21.5 1V0.5C9.90202 0.5 0.5 9.90202 0.5 21.5H1H1.5C1.5 10.4543 10.4543 1.5 21.5 1.5V1Z" fill="#D9D9D9"/>
<path d="M27.704 14.268H29.032V24.748H27.704V14.268ZM28.616 18.556H31.176V19.66H28.616V18.556ZM18.472 21.084H19.592C20.584 21.084 21.4533 21.0733 22.2 21.052C22.9467 21.0307 23.6347 20.9827 24.264 20.908C24.8933 20.8333 25.528 20.732 26.168 20.604L26.328 21.692C25.656 21.82 24.9947 21.9213 24.344 21.996C23.704 22.0707 23.0053 22.124 22.248 22.156C21.4907 22.1773 20.6053 22.188 19.592 22.188H18.472V21.084ZM18.472 15.516H24.856V16.604H19.784V21.676H18.472V15.516ZM20.024 27.34H29.672V28.428H20.024V27.34ZM20.024 23.692H21.336V27.836H20.024V23.692ZM36.3748 15.388C37.0788 15.388 37.7028 15.596 38.2468 16.012C38.7908 16.4173 39.2121 16.9987 39.5108 17.756C39.8201 18.5133 39.9748 19.404 39.9748 20.428C39.9748 21.452 39.8201 22.3427 39.5108 23.1C39.2121 23.8573 38.7908 24.444 38.2468 24.86C37.7028 25.276 37.0788 25.484 36.3748 25.484C35.6814 25.484 35.0574 25.276 34.5028 24.86C33.9588 24.444 33.5321 23.8573 33.2228 23.1C32.9241 22.3427 32.7747 21.452 32.7747 20.428C32.7747 19.404 32.9241 18.5133 33.2228 17.756C33.5321 16.9987 33.9588 16.4173 34.5028 16.012C35.0574 15.596 35.6814 15.388 36.3748 15.388ZM36.3748 16.572C35.9161 16.572 35.5108 16.732 35.1588 17.052C34.8068 17.3613 34.5294 17.8093 34.3268 18.396C34.1348 18.972 34.0388 19.6493 34.0388 20.428C34.0388 21.2067 34.1348 21.8893 34.3268 22.476C34.5294 23.052 34.8068 23.5 35.1588 23.82C35.5108 24.14 35.9161 24.3 36.3748 24.3C36.8441 24.3 37.2548 24.14 37.6068 23.82C37.9588 23.5 38.2308 23.052 38.4228 22.476C38.6254 21.8893 38.7268 21.2067 38.7268 20.428C38.7268 19.6493 38.6254 18.972 38.4228 18.396C38.2308 17.8093 37.9588 17.3613 37.6068 17.052C37.2548 16.732 36.8441 16.572 36.3748 16.572ZM43.1108 14.268H44.4228V28.764H43.1108V14.268ZM39.5428 19.788H43.7028V20.86H39.5428V19.788ZM47.2215 20.988H60.3415V22.012H47.2215V20.988ZM48.7895 23.164H58.7095V26.252H50.1335V27.948H48.8215V25.34H57.3975V24.124H48.7895V23.164ZM48.8215 27.596H59.1735V28.556H48.8215V27.596ZM48.8855 14.7H58.6615V17.708H50.2295V19.276H48.9175V16.812H57.3495V15.644H48.8855V14.7ZM48.9175 18.956H58.9175V19.916H48.9175V18.956ZM76.9843 14.268H78.3123V22.044H76.9843V14.268ZM69.0003 22.764H70.2963V24.508H77.0003V22.764H78.3123V28.556H69.0003V22.764ZM70.2963 25.564V27.468H77.0003V25.564H70.2963ZM70.5523 14.956C71.2883 14.956 71.9389 15.1 72.5043 15.388C73.0696 15.6653 73.5123 16.0547 73.8323 16.556C74.1629 17.0573 74.3283 17.6387 74.3283 18.3C74.3283 18.9507 74.1629 19.532 73.8323 20.044C73.5123 20.5453 73.0696 20.9347 72.5043 21.212C71.9389 21.4893 71.2883 21.628 70.5523 21.628C69.8269 21.628 69.1763 21.4893 68.6003 21.212C68.0349 20.9347 67.5869 20.5453 67.2563 20.044C66.9363 19.532 66.7763 18.9507 66.7763 18.3C66.7763 17.6387 66.9363 17.0573 67.2563 16.556C67.5869 16.0547 68.0349 15.6653 68.6003 15.388C69.1763 15.1 69.8269 14.956 70.5523 14.956ZM70.5523 16.076C70.0723 16.076 69.6456 16.172 69.2723 16.364C68.8989 16.5453 68.6056 16.8067 68.3923 17.148C68.1789 17.4787 68.0723 17.8627 68.0723 18.3C68.0723 18.7267 68.1789 19.1107 68.3923 19.452C68.6056 19.7827 68.8989 20.044 69.2723 20.236C69.6456 20.428 70.0723 20.524 70.5523 20.524C71.0323 20.524 71.4589 20.428 71.8323 20.236C72.2056 20.044 72.4989 19.7827 72.7123 19.452C72.9256 19.1107 73.0323 18.7267 73.0323 18.3C73.0323 17.8627 72.9256 17.4787 72.7123 17.148C72.4989 16.8067 72.2056 16.5453 71.8323 16.364C71.4589 16.172 71.0323 16.076 70.5523 16.076ZM81.783 21.452H82.807C83.7563 21.452 84.567 21.4467 85.239 21.436C85.9217 21.4147 86.5403 21.3773 87.095 21.324C87.6603 21.2707 88.231 21.1907 88.807 21.084L88.935 22.172C88.4977 22.2467 88.0657 22.3107 87.639 22.364C87.2123 22.4067 86.7643 22.4387 86.295 22.46C85.8257 22.4813 85.3083 22.4973 84.743 22.508C84.1777 22.5187 83.5323 22.524 82.807 22.524H81.783V21.452ZM81.751 15.148H87.975V19.244H83.095V22.092H81.783V18.22H86.663V16.22H81.751V15.148ZM91.751 14.284H93.079V23.18H91.751V14.284ZM88.935 16.428H92.055V17.5H88.935V16.428ZM88.935 19.42H92.055V20.508H88.935V19.42ZM83.399 23.948H93.079V28.764H91.751V25.036H83.399V23.948ZM105.702 14.268H107.014V28.748H105.702V14.268ZM106.71 20.22H109.382V21.34H106.71V20.22ZM95.8138 16.588H104.342V17.676H95.8138V16.588ZM100.15 18.86C100.832 18.86 101.435 19.004 101.958 19.292C102.491 19.58 102.907 19.9747 103.206 20.476C103.515 20.9667 103.67 21.5373 103.67 22.188C103.67 22.8387 103.515 23.4147 103.206 23.916C102.907 24.4173 102.491 24.812 101.958 25.1C101.435 25.3773 100.832 25.516 100.15 25.516C99.4671 25.516 98.8591 25.3773 98.3258 25.1C97.8031 24.812 97.3871 24.4173 97.0778 23.916C96.7684 23.4147 96.6138 22.8387 96.6138 22.188C96.6138 21.5373 96.7684 20.9667 97.0778 20.476C97.3871 19.9747 97.8031 19.58 98.3258 19.292C98.8591 19.004 99.4671 18.86 100.15 18.86ZM100.15 19.964C99.7124 19.964 99.3231 20.06 98.9818 20.252C98.6404 20.444 98.3684 20.7053 98.1658 21.036C97.9738 21.3667 97.8778 21.7507 97.8778 22.188C97.8778 22.6253 97.9738 23.0147 98.1658 23.356C98.3684 23.6867 98.6404 23.948 98.9818 24.14C99.3231 24.3213 99.7124 24.412 100.15 24.412C100.576 24.412 100.96 24.3213 101.302 24.14C101.643 23.948 101.91 23.6867 102.102 23.356C102.304 23.0147 102.406 22.6253 102.406 22.188C102.406 21.7507 102.304 21.3667 102.102 21.036C101.91 20.7053 101.643 20.444 101.302 20.252C100.96 20.06 100.576 19.964 100.15 19.964ZM99.4618 14.444H100.79V17.068H99.4618V14.444ZM116.309 19.452H119.093V20.556H116.309V19.452ZM113.621 15.628H114.661V18.396C114.661 19.1427 114.581 19.8787 114.421 20.604C114.271 21.3293 114.047 22.012 113.749 22.652C113.461 23.292 113.109 23.868 112.693 24.38C112.277 24.892 111.807 25.308 111.285 25.628L110.453 24.636C110.943 24.3373 111.386 23.964 111.781 23.516C112.175 23.068 112.506 22.5667 112.773 22.012C113.05 21.4467 113.258 20.86 113.397 20.252C113.546 19.6333 113.621 19.0147 113.621 18.396V15.628ZM113.877 15.628H114.901V18.348C114.901 18.924 114.965 19.5053 115.093 20.092C115.231 20.668 115.423 21.2227 115.669 21.756C115.925 22.2787 116.239 22.7587 116.613 23.196C116.986 23.6333 117.407 23.996 117.877 24.284L117.125 25.308C116.602 24.988 116.138 24.5827 115.733 24.092C115.327 23.5907 114.986 23.0307 114.709 22.412C114.431 21.7827 114.223 21.1213 114.085 20.428C113.946 19.7347 113.877 19.0413 113.877 18.348V15.628ZM121.637 14.268H122.917V28.748H121.637V14.268ZM118.693 14.572H119.941V28.012H118.693V14.572ZM128.547 21.724H129.859V26.044H128.547V21.724ZM133.891 21.724H135.219V26.044H133.891V21.724ZM125.331 25.788H138.451V26.892H125.331V25.788ZM131.859 15.18C132.883 15.18 133.79 15.3347 134.579 15.644C135.369 15.9533 135.987 16.3853 136.435 16.94C136.894 17.4947 137.123 18.1507 137.123 18.908C137.123 19.6547 136.894 20.3107 136.435 20.876C135.987 21.4307 135.369 21.8627 134.579 22.172C133.79 22.4707 132.883 22.62 131.859 22.62C130.846 22.62 129.939 22.4707 129.139 22.172C128.35 21.8627 127.731 21.4307 127.283 20.876C126.835 20.3107 126.611 19.6547 126.611 18.908C126.611 18.1507 126.835 17.4947 127.283 16.94C127.731 16.3853 128.35 15.9533 129.139 15.644C129.939 15.3347 130.846 15.18 131.859 15.18ZM131.859 16.236C131.091 16.236 130.409 16.348 129.811 16.572C129.214 16.796 128.745 17.1107 128.403 17.516C128.062 17.9107 127.891 18.3747 127.891 18.908C127.891 19.4413 128.062 19.9107 128.403 20.316C128.745 20.7107 129.214 21.02 129.811 21.244C130.409 21.468 131.091 21.58 131.859 21.58C132.638 21.58 133.326 21.468 133.923 21.244C134.521 21.02 134.99 20.7107 135.331 20.316C135.673 19.9107 135.843 19.4413 135.843 18.908C135.843 18.3747 135.673 17.9107 135.331 17.516C134.99 17.1107 134.521 16.796 133.923 16.572C133.326 16.348 132.638 16.236 131.859 16.236ZM141.455 27.5909C141.174 27.5909 140.934 27.4905 140.733 27.2898C140.532 27.089 140.432 26.8485 140.432 26.5682C140.432 26.2879 140.532 26.0473 140.733 25.8466C140.934 25.6458 141.174 25.5455 141.455 25.5455C141.735 25.5455 141.975 25.6458 142.176 25.8466C142.377 26.0473 142.477 26.2879 142.477 26.5682C142.477 26.7538 142.43 26.9242 142.335 27.0795C142.244 27.2348 142.121 27.3598 141.966 27.4545C141.814 27.5455 141.644 27.5909 141.455 27.5909Z" fill="#B3B3B3"/>
<path d="M259 27.5L256.1 24.6M257.667 20.8333C257.667 23.7789 255.279 26.1667 252.333 26.1667C249.388 26.1667 247 23.7789 247 20.8333C247 17.8878 249.388 15.5 252.333 15.5C255.279 15.5 257.667 17.8878 257.667 20.8333Z" stroke="#F5F5F5" stroke-width="1.6" stroke-linecap="round" stroke-linejoin="round"/>
</svg>
