<svg width="312" height="81" viewBox="0 0 312 81" fill="none" xmlns="http://www.w3.org/2000/svg">
<g opacity="0.87">
<path d="M0 20C0 8.9543 8.95431 0 20 0H292C303.046 0 312 8.95431 312 20V73C312 77.4183 308.418 81 304 81H20C8.95431 81 0 72.0457 0 61V20Z" fill="#EEE4FF" fill-opacity="0.42"/>
<path d="M20 1.5H292C302.217 1.5 310.5 9.78273 310.5 20V73C310.5 76.5899 307.59 79.5 304 79.5H20C9.78274 79.5 1.5 71.2173 1.5 61V20L1.50586 19.5225C1.75512 9.68458 9.68458 1.75513 19.5225 1.50586L20 1.5Z" stroke="white" stroke-opacity="0.65" stroke-width="3"/>
<path d="M19.3249 13.592C19.3676 13.6347 19.3569 13.6667 19.2929 13.688C19.0369 13.8267 18.8396 14.0613 18.7009 14.392C18.5729 14.7227 18.5089 15.032 18.5089 15.32C18.5089 15.544 18.5409 15.768 18.6049 15.992C18.6689 16.216 18.7703 16.408 18.9089 16.568C18.9409 16.6 18.9569 16.6267 18.9569 16.648C18.9569 16.7013 18.9249 16.7387 18.8609 16.76L17.9649 17C17.8903 17.0107 17.8423 17.016 17.8209 17.016C17.7996 17.016 17.7783 17.0053 17.7569 16.984C17.6183 16.8347 17.5276 16.664 17.4849 16.472C17.4423 16.2693 17.4209 16.0667 17.4209 15.864C17.4209 15.5547 17.4796 15.2293 17.5969 14.888C17.7143 14.536 17.8849 14.216 18.1089 13.928C18.3329 13.6293 18.5943 13.4053 18.8929 13.256C18.9356 13.2453 18.9676 13.2507 18.9889 13.272L19.3249 13.592ZM21.6449 13.592C21.6876 13.6347 21.6769 13.6667 21.6129 13.688C21.3569 13.8267 21.1596 14.0613 21.0209 14.392C20.8929 14.7227 20.8289 15.032 20.8289 15.32C20.8289 15.544 20.8609 15.768 20.9249 15.992C20.9889 16.216 21.0903 16.408 21.2289 16.568C21.2609 16.6 21.2769 16.6267 21.2769 16.648C21.2769 16.7013 21.2449 16.7387 21.1809 16.76L20.2849 17C20.2103 17.0107 20.1623 17.016 20.1409 17.016C20.1196 17.016 20.0983 17.0053 20.0769 16.984C19.9383 16.8347 19.8476 16.664 19.8049 16.472C19.7623 16.2693 19.7409 16.0667 19.7409 15.864C19.7409 15.5547 19.7996 15.2293 19.9169 14.888C20.0343 14.536 20.2049 14.216 20.4289 13.928C20.6529 13.6293 20.9143 13.4053 21.2129 13.256C21.2556 13.2453 21.2876 13.2507 21.3089 13.272L21.6449 13.592ZM35.5783 20.792C34.8423 20.792 34.181 20.664 33.5943 20.408C33.0183 20.1413 32.565 19.768 32.2343 19.288C31.9036 18.7973 31.7436 18.216 31.7543 17.544C31.7756 16.9253 31.9623 16.376 32.3143 15.896C32.677 15.4053 33.1623 15.016 33.7703 14.728C34.3783 14.44 35.0503 14.2907 35.7863 14.28C36.5436 14.28 37.2156 14.4133 37.8023 14.68C38.389 14.9467 38.8476 15.3253 39.1783 15.816C39.5196 16.296 39.6743 16.856 39.6423 17.496C39.5996 18.1787 39.397 18.7653 39.0343 19.256C38.6823 19.7467 38.2076 20.1253 37.6103 20.392C37.013 20.6587 36.3356 20.792 35.5783 20.792ZM35.6103 19.976C36.453 19.9547 37.1463 19.7307 37.6903 19.304C38.2343 18.8773 38.5276 18.2747 38.5703 17.496C38.613 16.7707 38.373 16.1893 37.8503 15.752C37.3276 15.3147 36.6236 15.096 35.7383 15.096C35.1196 15.096 34.5916 15.2133 34.1543 15.448C33.717 15.6827 33.3863 15.9867 33.1623 16.36C32.9383 16.7227 32.8156 17.1173 32.7943 17.544C32.773 18.0347 32.885 18.4667 33.1303 18.84C33.3756 19.2133 33.717 19.5013 34.1543 19.704C34.5916 19.896 35.077 19.9867 35.6103 19.976ZM29.6903 25.544C29.573 25.5547 29.493 25.544 29.4503 25.512C29.4076 25.48 29.3756 25.432 29.3543 25.368C29.3116 25.2507 29.2743 25.1333 29.2423 25.016C29.2103 24.888 29.173 24.7333 29.1303 24.552C29.1196 24.5307 29.125 24.504 29.1463 24.472C29.1676 24.4293 29.205 24.4133 29.2583 24.424C29.6636 24.4773 30.213 24.5147 30.9063 24.536C31.6103 24.5467 32.3836 24.552 33.2263 24.552C33.5676 24.552 33.9196 24.552 34.2823 24.552C34.645 24.552 35.013 24.5467 35.3863 24.536V23.528C35.3863 23.112 35.3703 22.7493 35.3383 22.44C35.3063 22.1307 35.269 21.9227 35.2263 21.816C35.1836 21.7093 35.221 21.656 35.3383 21.656H36.2983C36.3623 21.656 36.3943 21.6987 36.3943 21.784C36.3943 21.7947 36.3943 21.8053 36.3943 21.816C36.373 22.0933 36.357 22.36 36.3463 22.616C36.3463 22.872 36.341 23.1387 36.3303 23.416L36.2983 24.52C37.109 24.4987 37.8876 24.472 38.6343 24.44C39.3916 24.3973 40.0636 24.3493 40.6503 24.296C41.2476 24.2427 41.7116 24.1893 42.0423 24.136C42.149 24.1147 42.2183 24.12 42.2503 24.152C42.2823 24.184 42.3036 24.2267 42.3143 24.28L42.4103 25.048C42.4103 25.1013 42.3943 25.1493 42.3623 25.192C42.3303 25.2347 42.245 25.256 42.1063 25.256C41.7436 25.2453 41.3223 25.24 40.8423 25.24C40.3623 25.24 39.8503 25.24 39.3063 25.24C37.973 25.24 36.6823 25.256 35.4343 25.288C34.1863 25.3093 33.0663 25.3413 32.0743 25.384C31.0823 25.4267 30.2876 25.48 29.6903 25.544ZM48.6446 27.96C48.3139 27.9493 48.0579 27.8427 47.8766 27.64C47.7059 27.4373 47.6206 27.1067 47.6206 26.648V25.992C47.6206 25.6613 47.5619 25.336 47.4446 25.016C47.4232 24.984 47.4286 24.9413 47.4606 24.888C47.4926 24.8347 47.5459 24.8133 47.6206 24.824C47.7379 24.8347 47.9886 24.8453 48.3726 24.856C48.7672 24.8667 49.2312 24.872 49.7646 24.872C50.2979 24.872 50.8419 24.8667 51.3966 24.856C51.9619 24.8453 52.4792 24.8293 52.9486 24.808C53.4286 24.7867 53.7966 24.76 54.0526 24.728L54.0846 23.512C54.0846 23.3947 54.0312 23.336 53.9246 23.336C53.6899 23.336 53.3646 23.3413 52.9486 23.352C52.5326 23.3627 52.0899 23.3733 51.6206 23.384C51.1512 23.3947 50.7032 23.4107 50.2766 23.432C49.8499 23.4427 49.5032 23.4533 49.2366 23.464L47.8126 23.528C47.7166 23.5387 47.6472 23.5333 47.6046 23.512C47.5619 23.48 47.5299 23.416 47.5086 23.32L47.3966 22.76C47.3859 22.7387 47.3912 22.712 47.4126 22.68C47.4339 22.648 47.4712 22.6373 47.5246 22.648C47.6952 22.6587 47.9726 22.6693 48.3566 22.68C48.7406 22.6907 49.1779 22.7013 49.6686 22.712C50.1699 22.712 50.6872 22.7067 51.2206 22.696C51.7539 22.6747 52.2659 22.6533 52.7566 22.632C53.2579 22.6 53.6899 22.5573 54.0526 22.504C54.0739 22.504 54.0952 22.4987 54.1166 22.488C54.1912 22.4773 54.2499 22.4773 54.2926 22.488L55.1086 22.6C55.1726 22.6107 55.2046 22.6587 55.2046 22.744C55.1512 23.2133 55.1086 23.6347 55.0766 24.008C55.0552 24.3707 55.0286 24.7867 54.9966 25.256C54.9859 25.3627 54.9646 25.432 54.9326 25.464C54.9006 25.496 54.8366 25.512 54.7406 25.512C54.3779 25.512 53.9299 25.5173 53.3966 25.528C52.8739 25.528 52.3192 25.5333 51.7326 25.544C51.1459 25.544 50.5806 25.5493 50.0366 25.56C49.4926 25.5707 49.0232 25.5867 48.6286 25.608V26.584C48.6286 26.8293 48.6446 26.9787 48.6766 27.032C48.7086 27.096 48.8152 27.1333 48.9966 27.144C49.6899 27.1653 50.4152 27.1707 51.1726 27.16C51.9299 27.1493 52.6552 27.1227 53.3486 27.08C53.7966 27.0587 54.2019 27.0267 54.5646 26.984C54.9272 26.9413 55.2419 26.888 55.5086 26.824C55.6152 26.8027 55.6846 26.808 55.7166 26.84C55.7486 26.872 55.7699 26.9147 55.7806 26.968L55.8766 27.672C55.8766 27.7253 55.8552 27.7733 55.8126 27.816C55.7806 27.8587 55.6899 27.88 55.5406 27.88C54.4099 27.88 53.2419 27.8853 52.0366 27.896C50.8312 27.9173 49.7006 27.9387 48.6446 27.96ZM44.8366 21.064C44.7192 21.0747 44.6392 21.064 44.5966 21.032C44.5539 21 44.5219 20.952 44.5006 20.888C44.4579 20.7707 44.4206 20.6533 44.3886 20.536C44.3566 20.4187 44.3192 20.2693 44.2766 20.088C44.2659 20.0667 44.2712 20.04 44.2926 20.008C44.3139 19.9653 44.3512 19.9493 44.4046 19.96C44.8099 20.0133 45.3646 20.056 46.0686 20.088C46.7726 20.1093 47.5459 20.1147 48.3886 20.104C49.0392 20.104 49.7326 20.0987 50.4686 20.088C51.2046 20.0667 51.9352 20.0453 52.6606 20.024C53.3966 19.992 54.0899 19.96 54.7406 19.928C55.4019 19.896 55.9832 19.8587 56.4846 19.816C56.9966 19.7733 57.3912 19.7253 57.6686 19.672C57.7752 19.6507 57.8446 19.656 57.8766 19.688C57.9086 19.72 57.9299 19.7627 57.9406 19.816L58.0366 20.52C58.0472 20.6693 57.9459 20.7387 57.7326 20.728C57.4019 20.7067 56.9539 20.696 56.3886 20.696C55.8339 20.696 55.2312 20.7013 54.5806 20.712C54.0046 20.712 53.4126 20.7227 52.8046 20.744C52.2072 20.7547 51.6419 20.7653 51.1086 20.776C50.5859 20.7867 50.1326 20.7973 49.7486 20.808C48.6712 20.84 47.7006 20.8773 46.8366 20.92C45.9726 20.9627 45.3059 21.0107 44.8366 21.064ZM48.0206 18.12C47.6472 18.1307 47.3859 18.0347 47.2366 17.832C47.0872 17.6293 47.0126 17.272 47.0126 16.76V15.256C47.0126 14.968 46.9912 14.696 46.9486 14.44C46.9166 14.1733 46.8846 13.9867 46.8526 13.88C46.8206 13.7733 46.8579 13.72 46.9646 13.72C47.0179 13.72 47.1246 13.7307 47.2846 13.752C47.4446 13.7627 47.5992 13.7733 47.7486 13.784C47.8979 13.7947 47.9832 13.8053 48.0046 13.816C48.0472 13.8267 48.0686 13.8693 48.0686 13.944C48.0366 14.4987 48.0206 15.0427 48.0206 15.576V16.568C48.0206 16.8667 48.0472 17.064 48.1006 17.16C48.1539 17.2453 48.2659 17.2933 48.4366 17.304C48.7032 17.3147 49.0232 17.32 49.3966 17.32C49.7699 17.32 50.1486 17.3147 50.5326 17.304C50.9272 17.2933 51.2952 17.2827 51.6366 17.272C51.9779 17.2613 52.2552 17.2507 52.4686 17.24C53.0979 17.208 53.6472 17.1653 54.1166 17.112C54.5859 17.0587 54.9539 17.0053 55.2206 16.952C55.3272 16.9307 55.3966 16.936 55.4286 16.968C55.4606 16.9893 55.4819 17.0267 55.4926 17.08L55.5566 17.816C55.5672 17.88 55.5512 17.9227 55.5086 17.944C55.4659 17.9653 55.3699 17.976 55.2206 17.976C54.0792 17.976 52.9006 17.9973 51.6846 18.04C50.4686 18.072 49.2472 18.0987 48.0206 18.12ZM70.1651 23.8C69.4824 23.8213 68.9011 23.704 68.4211 23.448C67.9517 23.192 67.5944 22.8507 67.3491 22.424C67.1037 21.9973 66.9811 21.56 66.9811 21.112C66.9811 20.696 67.0984 20.2907 67.3331 19.896C67.5784 19.5013 67.9357 19.1707 68.4051 18.904C68.8851 18.6267 69.4771 18.4773 70.1811 18.456C70.7891 18.4347 71.3277 18.5307 71.7971 18.744C72.2771 18.9573 72.6557 19.2613 72.9331 19.656C73.2104 20.0507 73.3384 20.52 73.3171 21.064C73.3064 21.512 73.1784 21.944 72.9331 22.36C72.6984 22.7653 72.3464 23.1013 71.8771 23.368C71.4184 23.6347 70.8477 23.7787 70.1651 23.8ZM75.6211 27.16C75.5784 27.16 75.5571 27.1333 75.5571 27.08V15.528C75.5571 15.1227 75.5411 14.7493 75.5091 14.408C75.4877 14.056 75.4504 13.8267 75.3971 13.72C75.3757 13.6667 75.3757 13.6293 75.3971 13.608C75.4291 13.576 75.4664 13.56 75.5091 13.56C75.5731 13.56 75.6797 13.5653 75.8291 13.576C75.9891 13.576 76.1437 13.5813 76.2931 13.592C76.4424 13.592 76.5277 13.592 76.5491 13.592C76.6024 13.592 76.6291 13.6347 76.6291 13.72C76.5971 14.1147 76.5757 14.4613 76.5651 14.76C76.5651 15.048 76.5651 15.384 76.5651 15.768V19.752C76.8531 19.752 77.1624 19.7413 77.4931 19.72C77.8344 19.688 78.1491 19.656 78.4371 19.624C78.7357 19.5813 78.9597 19.5387 79.1091 19.496C79.2051 19.4853 79.2584 19.5173 79.2691 19.592C79.2904 19.7307 79.3064 19.8693 79.3171 20.008C79.3277 20.1467 79.3384 20.2853 79.3491 20.424C79.3491 20.5413 79.3011 20.6 79.2051 20.6C79.0451 20.5787 78.8104 20.568 78.5011 20.568C78.2024 20.568 77.8824 20.568 77.5411 20.568C77.1997 20.568 76.8744 20.5733 76.5651 20.584V26.76C76.5651 26.92 76.5544 27.016 76.5331 27.048C76.5224 27.08 76.4904 27.1013 76.4371 27.112L75.6211 27.16ZM70.1651 22.936C70.6344 22.9147 71.0237 22.8133 71.3331 22.632C71.6424 22.4507 71.8771 22.2213 72.0371 21.944C72.1971 21.656 72.2824 21.3627 72.2931 21.064C72.3144 20.7867 72.2611 20.5093 72.1331 20.232C72.0051 19.9547 71.7864 19.72 71.4771 19.528C71.1677 19.3253 70.7517 19.2187 70.2291 19.208C69.7277 19.208 69.3064 19.304 68.9651 19.496C68.6344 19.6773 68.3891 19.912 68.2291 20.2C68.0691 20.4773 67.9891 20.7707 67.9891 21.08C67.9891 21.6027 68.1811 22.0507 68.5651 22.424C68.9491 22.7867 69.4824 22.9573 70.1651 22.936ZM66.0851 17.752C65.9784 17.7627 65.9091 17.752 65.8771 17.72C65.8451 17.6773 65.8184 17.6293 65.7971 17.576C65.7864 17.5653 65.7811 17.5547 65.7811 17.544C65.7384 17.4267 65.7064 17.32 65.6851 17.224C65.6637 17.128 65.6317 16.9893 65.5891 16.808C65.5784 16.7867 65.5837 16.76 65.6051 16.728C65.6264 16.696 65.6637 16.6853 65.7171 16.696C66.0157 16.728 66.3571 16.7547 66.7411 16.776C67.1357 16.7973 67.5891 16.8027 68.1011 16.792C68.6451 16.7813 69.2317 16.7707 69.8611 16.76C70.5011 16.7387 71.1144 16.7067 71.7011 16.664C72.1704 16.632 72.6131 16.5893 73.0291 16.536C73.4451 16.4827 73.8237 16.4293 74.1651 16.376C74.1971 16.3653 74.2344 16.3707 74.2771 16.392C74.3197 16.4027 74.3464 16.4347 74.3571 16.488C74.3891 16.7013 74.4104 16.8667 74.4211 16.984C74.4317 17.1013 74.4371 17.1973 74.4371 17.272C74.4584 17.3893 74.3944 17.448 74.2451 17.448C74.0424 17.4373 73.7971 17.432 73.5091 17.432C73.2211 17.432 72.9704 17.432 72.7571 17.432C72.5224 17.432 72.1811 17.4373 71.7331 17.448C71.2851 17.4587 70.7997 17.4747 70.2771 17.496C69.7651 17.5067 69.2851 17.5227 68.8371 17.544C68.3891 17.5653 68.0531 17.5867 67.8291 17.608L66.0851 17.752ZM69.6531 15.32C69.4931 15.2987 69.2691 15.272 68.9811 15.24C68.7037 15.208 68.4264 15.16 68.1491 15.096C67.8824 15.032 67.6744 14.9413 67.5251 14.824C67.4824 14.792 67.4717 14.728 67.4931 14.632C67.5144 14.5253 67.5517 14.424 67.6051 14.328C67.6584 14.232 67.7117 14.1947 67.7651 14.216C68.2771 14.312 68.8211 14.3707 69.3971 14.392C69.9731 14.4133 70.5224 14.4133 71.0451 14.392C71.5784 14.3707 72.0157 14.3493 72.3571 14.328C72.4424 14.3173 72.4957 14.3227 72.5171 14.344C72.5384 14.3547 72.5544 14.3867 72.5651 14.44C72.5651 14.4507 72.5651 14.4773 72.5651 14.52C72.5651 14.6267 72.5597 14.7547 72.5491 14.904C72.5491 15.0533 72.5171 15.1387 72.4531 15.16C72.3891 15.1813 72.1971 15.2133 71.8771 15.256C71.5677 15.288 71.2051 15.3147 70.7891 15.336C70.3837 15.3467 70.0051 15.3413 69.6531 15.32ZM84.7679 19.848C84.4586 19.8373 84.2613 19.7253 84.1759 19.512C84.0906 19.2987 84.0533 19.0373 84.0639 18.728V17.928C84.0639 17.7573 84.0479 17.56 84.0159 17.336C83.9946 17.112 83.9519 16.9147 83.8879 16.744C83.8666 16.712 83.8719 16.664 83.9039 16.6C83.9359 16.5253 83.9893 16.4987 84.0639 16.52C84.1813 16.5413 84.4373 16.5627 84.8319 16.584C85.2373 16.5947 85.7119 16.6 86.2559 16.6C86.8106 16.5893 87.3759 16.5787 87.9519 16.568C88.5279 16.5573 89.0559 16.5413 89.5359 16.52C90.0159 16.488 90.3786 16.4507 90.6239 16.408L90.6879 15.016C90.6879 15.0053 90.6879 14.9893 90.6879 14.968C90.6879 14.9147 90.6826 14.8827 90.6719 14.872C90.6613 14.8507 90.6133 14.84 90.5279 14.84C90.2826 14.84 89.9626 14.8453 89.5679 14.856C89.1839 14.856 88.7679 14.8613 88.3199 14.872C87.8826 14.8827 87.4613 14.8987 87.0559 14.92C86.6506 14.9307 86.3146 14.9413 86.0479 14.952C85.8026 14.9627 85.5199 14.9787 85.1999 15C84.8906 15.0107 84.6186 15.0267 84.3839 15.048C84.2879 15.0587 84.2186 15.048 84.1759 15.016C84.1439 14.984 84.1173 14.936 84.0959 14.872L83.9199 14.264C83.9093 14.2427 83.9146 14.216 83.9359 14.184C83.9573 14.152 83.9946 14.1413 84.0479 14.152C84.2293 14.1627 84.5119 14.1733 84.8959 14.184C85.2799 14.1947 85.7173 14.2 86.2079 14.2C86.7093 14.2 87.2266 14.1947 87.7599 14.184C88.3039 14.1627 88.8213 14.1413 89.3119 14.12C89.8133 14.088 90.2506 14.0453 90.6239 13.992C90.6453 13.992 90.6666 13.9867 90.6879 13.976C90.7626 13.9653 90.8213 13.9653 90.8639 13.976L91.7599 14.136C91.8133 14.1573 91.8399 14.1787 91.8399 14.2C91.8506 14.2213 91.8559 14.2427 91.8559 14.264C91.8559 14.2747 91.8559 14.28 91.8559 14.28L91.7119 15.288C91.6906 15.5547 91.6693 15.768 91.6479 15.928C91.6266 16.088 91.6106 16.2373 91.5999 16.376C91.5893 16.5147 91.5733 16.696 91.5519 16.92C91.5413 17.0373 91.5093 17.1173 91.4559 17.16C91.4026 17.192 91.3493 17.208 91.2959 17.208C90.9333 17.208 90.4853 17.2133 89.9519 17.224C89.4293 17.2347 88.8693 17.2453 88.2719 17.256C87.6853 17.2667 87.1093 17.2827 86.5439 17.304C85.9893 17.3147 85.4986 17.3253 85.0719 17.336V18.584C85.0719 18.7653 85.0879 18.888 85.1199 18.952C85.1626 19.016 85.2373 19.048 85.3439 19.048C86.7306 19.0907 88.1173 19.0747 89.5039 19C89.9519 18.9787 90.3733 18.952 90.7679 18.92C91.1626 18.888 91.5359 18.84 91.8879 18.776C91.9946 18.7547 92.0639 18.7707 92.0959 18.824C92.1279 18.8667 92.1493 18.9147 92.1599 18.968C92.1813 19.0533 92.1919 19.1493 92.1919 19.256C92.2026 19.352 92.2133 19.4587 92.2239 19.576C92.2239 19.576 92.2239 19.5813 92.2239 19.592C92.2239 19.6453 92.2133 19.6827 92.1919 19.704C92.1706 19.7253 92.0853 19.736 91.9359 19.736C91.1893 19.736 90.3946 19.7413 89.5519 19.752C88.7093 19.7627 87.8773 19.7787 87.0559 19.8C86.2346 19.8107 85.4719 19.8267 84.7679 19.848ZM87.6479 27.192C87.6053 27.192 87.5839 27.1653 87.5839 27.112V22.408C86.3039 22.4293 85.1413 22.4667 84.0959 22.52C83.0506 22.5627 82.2293 22.6107 81.6319 22.664C81.5146 22.6747 81.4346 22.664 81.3919 22.632C81.3493 22.6 81.3173 22.552 81.2959 22.488C81.2533 22.3707 81.2159 22.2533 81.1839 22.136C81.1519 22.008 81.1146 21.8533 81.0719 21.672C81.0613 21.6507 81.0666 21.624 81.0879 21.592C81.1093 21.5493 81.1466 21.5333 81.1999 21.544C81.6053 21.5973 82.1546 21.6347 82.8479 21.656C83.5519 21.6667 84.3253 21.672 85.1679 21.672C85.9893 21.672 86.8533 21.6613 87.7599 21.64C88.6773 21.6187 89.5679 21.592 90.4319 21.56C91.2959 21.528 92.0639 21.4853 92.7359 21.432C93.4186 21.3787 93.9359 21.32 94.2879 21.256C94.3946 21.2347 94.4639 21.24 94.4959 21.272C94.5279 21.304 94.5493 21.3467 94.5599 21.4L94.6559 22.168C94.6559 22.2213 94.6399 22.2693 94.6079 22.312C94.5759 22.3547 94.4906 22.376 94.3519 22.376C93.9893 22.3653 93.5679 22.36 93.0879 22.36C92.6079 22.36 92.0959 22.36 91.5519 22.36C91.0506 22.36 90.5546 22.3653 90.0639 22.376C89.5733 22.376 89.0879 22.3813 88.6079 22.392V26.792C88.6079 26.952 88.5973 27.048 88.5759 27.08C88.5653 27.112 88.5333 27.1333 88.4799 27.144C88.4373 27.144 88.3573 27.144 88.2399 27.144C88.1226 27.1547 88.0053 27.1653 87.8879 27.176C87.7706 27.1867 87.6906 27.192 87.6479 27.192ZM97.2428 22.184C97.1255 22.1947 97.0455 22.184 97.0028 22.152C96.9601 22.12 96.9281 22.072 96.9068 22.008C96.8641 21.8907 96.8268 21.7733 96.7948 21.656C96.7628 21.5387 96.7255 21.3893 96.6828 21.208C96.6721 21.1867 96.6775 21.16 96.6988 21.128C96.7201 21.0853 96.7575 21.0693 96.8108 21.08C97.2161 21.1333 97.7708 21.176 98.4748 21.208C99.1788 21.2293 99.9521 21.2347 100.795 21.224C101.445 21.224 102.139 21.2187 102.875 21.208C103.611 21.1867 104.341 21.1653 105.067 21.144C105.803 21.112 106.496 21.08 107.147 21.048C107.808 21.016 108.389 20.9787 108.891 20.936C109.403 20.8933 109.797 20.8453 110.075 20.792C110.181 20.7707 110.251 20.776 110.283 20.808C110.315 20.84 110.336 20.8827 110.347 20.936L110.443 21.64C110.453 21.7893 110.352 21.8587 110.139 21.848C109.808 21.8267 109.36 21.816 108.795 21.816C108.24 21.816 107.637 21.8213 106.987 21.832C106.411 21.832 105.819 21.8427 105.211 21.864C104.613 21.8747 104.048 21.8853 103.515 21.896C102.992 21.9067 102.539 21.9173 102.155 21.928C101.077 21.96 100.107 21.9973 99.2428 22.04C98.3788 22.0827 97.7121 22.1307 97.2428 22.184ZM100.587 18.76C100.213 18.7707 99.9521 18.6693 99.8028 18.456C99.6535 18.2427 99.5788 17.88 99.5788 17.368V15.576C99.5788 15.288 99.5575 15 99.5148 14.712C99.4828 14.424 99.4508 14.2267 99.4188 14.12C99.3868 14.0133 99.4241 13.96 99.5308 13.96C99.5841 13.96 99.6908 13.9707 99.8508 13.992C100.011 14.0027 100.165 14.0133 100.315 14.024C100.464 14.0347 100.549 14.0453 100.571 14.056C100.613 14.0667 100.635 14.1093 100.635 14.184C100.603 14.7387 100.587 15.3093 100.587 15.896V17.016C100.587 17.4107 100.613 17.6613 100.667 17.768C100.72 17.8747 100.832 17.9333 101.003 17.944C101.269 17.9547 101.589 17.96 101.963 17.96C102.336 17.96 102.715 17.9547 103.099 17.944C103.493 17.9333 103.861 17.9227 104.203 17.912C104.544 17.9013 104.821 17.8907 105.035 17.88C105.664 17.848 106.213 17.8053 106.683 17.752C107.152 17.6987 107.52 17.6453 107.787 17.592C107.893 17.5707 107.963 17.576 107.995 17.608C108.027 17.6293 108.048 17.6667 108.059 17.72L108.123 18.456C108.133 18.52 108.117 18.5627 108.075 18.584C108.032 18.6053 107.936 18.616 107.787 18.616C106.645 18.616 105.467 18.6373 104.251 18.68C103.035 18.712 101.813 18.7387 100.587 18.76ZM101.227 27.8C100.853 27.8 100.571 27.656 100.379 27.368C100.187 27.08 100.091 26.7173 100.091 26.28V25.256C100.091 24.8827 100.069 24.5733 100.027 24.328C99.9948 24.0827 99.9628 23.9067 99.9308 23.8C99.8988 23.6933 99.9361 23.64 100.043 23.64C100.096 23.64 100.197 23.6453 100.347 23.656C100.507 23.656 100.656 23.6613 100.795 23.672C100.944 23.6827 101.029 23.688 101.051 23.688C101.104 23.6987 101.131 23.752 101.131 23.848C101.12 24.0933 101.109 24.312 101.099 24.504C101.099 24.6853 101.099 24.9147 101.099 25.192V26.232C101.099 26.5093 101.131 26.7013 101.195 26.808C101.269 26.904 101.408 26.9573 101.611 26.968C101.909 26.9787 102.288 26.9893 102.747 27C103.205 27 103.68 26.9947 104.171 26.984C104.672 26.9733 105.136 26.9573 105.563 26.936C106.011 26.9147 106.464 26.8827 106.923 26.84C107.392 26.7867 107.76 26.7333 108.027 26.68C108.133 26.6587 108.203 26.664 108.235 26.696C108.267 26.728 108.288 26.7707 108.299 26.824L108.427 27.544C108.437 27.6613 108.357 27.72 108.187 27.72C107.131 27.72 106.016 27.7307 104.843 27.752C103.68 27.784 102.475 27.8 101.227 27.8ZM121.819 22.2C121.169 22.2107 120.571 22.0773 120.027 21.8C119.483 21.5227 119.046 21.128 118.715 20.616C118.395 20.0933 118.235 19.496 118.235 18.824C118.235 18.1733 118.395 17.592 118.715 17.08C119.035 16.5573 119.467 16.1413 120.011 15.832C120.566 15.512 121.174 15.3467 121.835 15.336C122.497 15.3147 123.094 15.432 123.627 15.688C124.171 15.944 124.603 16.3227 124.923 16.824C125.243 17.3253 125.403 17.944 125.403 18.68C125.403 19.3413 125.243 19.9333 124.923 20.456C124.603 20.9787 124.171 21.3947 123.627 21.704C123.083 22.0133 122.481 22.1787 121.819 22.2ZM121.835 21.288C122.305 21.2667 122.731 21.1493 123.115 20.936C123.499 20.712 123.803 20.408 124.027 20.024C124.262 19.6293 124.379 19.1867 124.379 18.696C124.379 18.152 124.262 17.688 124.027 17.304C123.803 16.92 123.499 16.632 123.115 16.44C122.731 16.2373 122.305 16.1467 121.835 16.168C121.366 16.1787 120.934 16.3013 120.539 16.536C120.145 16.76 119.83 17.0693 119.595 17.464C119.361 17.848 119.243 18.296 119.243 18.808C119.243 19.3413 119.361 19.7947 119.595 20.168C119.841 20.5413 120.161 20.824 120.555 21.016C120.95 21.208 121.377 21.2987 121.835 21.288ZM128.347 27.16C128.305 27.16 128.283 27.1333 128.283 27.08V18.888C128.177 18.888 128.07 18.8933 127.963 18.904C127.867 18.904 127.761 18.9093 127.643 18.92C127.387 18.9413 127.11 18.968 126.811 19C126.523 19.0213 126.251 19.048 125.995 19.08C125.878 19.1013 125.798 19.1013 125.755 19.08C125.723 19.048 125.697 18.9947 125.675 18.92L125.547 18.2C125.547 18.1787 125.553 18.152 125.563 18.12C125.574 18.088 125.606 18.0773 125.659 18.088C125.819 18.1093 126.043 18.1253 126.331 18.136C126.63 18.136 126.95 18.1307 127.291 18.12C127.643 18.1093 127.974 18.0987 128.283 18.088V15.528C128.283 15.1227 128.267 14.7493 128.235 14.408C128.214 14.056 128.177 13.8267 128.123 13.72C128.102 13.6667 128.102 13.6293 128.123 13.608C128.155 13.576 128.193 13.56 128.235 13.56C128.299 13.56 128.406 13.5653 128.555 13.576C128.715 13.576 128.87 13.5813 129.019 13.592C129.169 13.592 129.254 13.592 129.275 13.592C129.329 13.592 129.355 13.6347 129.355 13.72C129.323 14.1147 129.302 14.4613 129.291 14.76C129.291 15.048 129.291 15.384 129.291 15.768V26.76C129.291 26.92 129.281 27.016 129.259 27.048C129.249 27.08 129.217 27.1013 129.163 27.112L128.347 27.16ZM137.325 21.24C137.144 21.2507 136.995 21.16 136.877 20.968C136.771 20.776 136.707 20.552 136.685 20.296C136.419 20.4453 136.12 20.5893 135.789 20.728C135.459 20.856 135.128 20.968 134.797 21.064C134.477 21.1493 134.189 21.2027 133.933 21.224C133.688 21.224 133.528 21.0853 133.453 20.808C133.389 20.5307 133.357 20.2267 133.357 19.896V16.84C133.357 16.4987 133.336 16.2 133.293 15.944C133.251 15.6773 133.203 15.4907 133.149 15.384C133.117 15.3307 133.117 15.2827 133.149 15.24C133.181 15.1973 133.219 15.176 133.261 15.176L134.077 15.208C134.355 15.208 134.669 15.192 135.021 15.16C135.373 15.128 135.672 15.0853 135.917 15.032C136.035 15 136.099 15.0373 136.109 15.144L136.189 15.736C136.211 15.8533 136.157 15.912 136.029 15.912C135.667 15.912 135.357 15.9173 135.101 15.928C134.845 15.928 134.563 15.9387 134.253 15.96V19.704C134.253 19.928 134.269 20.0827 134.301 20.168C134.333 20.2427 134.397 20.2747 134.493 20.264C134.867 20.2213 135.24 20.136 135.613 20.008C135.997 19.88 136.355 19.7307 136.685 19.56V16.744C136.685 16.008 136.637 15.5173 136.541 15.272C136.52 15.2187 136.52 15.1707 136.541 15.128C136.573 15.0853 136.611 15.064 136.653 15.064C136.717 15.064 136.824 15.0693 136.973 15.08C137.123 15.08 137.277 15.0853 137.437 15.096C137.651 15.096 137.901 15.0907 138.189 15.08C138.488 15.0693 138.776 15.0533 139.053 15.032C139.341 15 139.571 14.9627 139.741 14.92C139.773 14.9093 139.805 14.9147 139.837 14.936C139.88 14.9467 139.907 14.9787 139.917 15.032L139.997 15.624C140.019 15.7413 139.96 15.8 139.821 15.8C139.075 15.7787 138.333 15.7947 137.597 15.848V19.768C137.597 19.992 137.613 20.136 137.645 20.2C137.677 20.264 137.752 20.2907 137.869 20.28C138.275 20.2587 138.712 20.1893 139.181 20.072C139.661 19.9547 140.077 19.816 140.429 19.656C140.525 19.624 140.579 19.6507 140.589 19.736L140.653 20.2C140.675 20.3173 140.616 20.408 140.477 20.472C140.253 20.568 139.944 20.6747 139.549 20.792C139.155 20.8987 138.755 20.9947 138.349 21.08C137.944 21.1653 137.603 21.2187 137.325 21.24ZM143.629 21.88C143.587 21.88 143.565 21.8533 143.565 21.8V18.328C143.256 18.328 142.979 18.3333 142.733 18.344C142.499 18.344 142.243 18.3493 141.965 18.36V21.336C141.965 21.496 141.955 21.592 141.933 21.624C141.923 21.656 141.891 21.6773 141.837 21.688L141.069 21.72C141.027 21.72 141.005 21.6933 141.005 21.64V15.592C141.005 14.7493 140.957 14.2053 140.861 13.96C140.84 13.9067 140.84 13.8693 140.861 13.848C140.893 13.816 140.931 13.8 140.973 13.8L141.917 13.816C141.971 13.816 141.997 13.864 141.997 13.96C141.976 14.3013 141.965 14.584 141.965 14.808C141.965 15.032 141.965 15.2667 141.965 15.512C141.965 15.5867 141.965 15.6613 141.965 15.736C141.965 15.8 141.965 15.8747 141.965 15.96V17.528C142.019 17.528 142.072 17.528 142.125 17.528C142.189 17.528 142.248 17.528 142.301 17.528C142.504 17.528 142.701 17.528 142.893 17.528C143.096 17.528 143.32 17.5173 143.565 17.496V15.192C143.565 14.4027 143.523 13.912 143.437 13.72C143.416 13.6667 143.416 13.6293 143.437 13.608C143.469 13.576 143.507 13.56 143.549 13.56L144.509 13.576C144.552 13.576 144.573 13.6187 144.573 13.704C144.573 13.7147 144.573 13.7253 144.573 13.736C144.563 14.024 144.552 14.2693 144.541 14.472C144.531 14.6747 144.525 14.872 144.525 15.064C144.525 15.2453 144.525 15.464 144.525 15.72V21.496C144.525 21.656 144.515 21.752 144.493 21.784C144.483 21.816 144.451 21.8373 144.397 21.848L143.629 21.88ZM139.341 28.6C139.149 28.4827 139 28.3813 138.893 28.296C138.829 28.2427 138.835 28.1893 138.909 28.136C139.528 27.752 140.12 27.224 140.685 26.552C141.261 25.8693 141.736 25.1173 142.109 24.296C142.237 24.008 142.339 23.688 142.413 23.336C142.499 22.984 142.525 22.696 142.493 22.472C142.483 22.408 142.499 22.3707 142.541 22.36C142.584 22.3387 142.621 22.3333 142.653 22.344L143.677 22.616C143.752 22.6267 143.779 22.6747 143.757 22.76C143.672 22.9947 143.581 23.2453 143.485 23.512C143.4 23.7787 143.299 24.0347 143.181 24.28L143.021 24.632C143.64 25.0587 144.216 25.496 144.749 25.944C145.293 26.392 145.704 26.7707 145.981 27.08C146.035 27.1333 146.067 27.192 146.077 27.256C146.099 27.32 146.077 27.3947 146.013 27.48C145.971 27.544 145.88 27.64 145.741 27.768C145.603 27.9067 145.485 28.008 145.389 28.072C145.325 28.1253 145.267 28.1147 145.213 28.04C145.032 27.752 144.797 27.4427 144.509 27.112C144.221 26.792 143.917 26.472 143.597 26.152C143.277 25.832 142.968 25.544 142.669 25.288C142.232 26.0027 141.773 26.6267 141.293 27.16C140.813 27.704 140.296 28.1787 139.741 28.584C139.603 28.68 139.469 28.6853 139.341 28.6ZM134.893 27.992C134.776 28.0773 134.643 28.072 134.493 27.976L134.109 27.704C134.067 27.6613 134.083 27.608 134.157 27.544C134.627 27.2667 135.059 26.936 135.453 26.552C135.859 26.168 136.211 25.768 136.509 25.352C136.808 24.9253 137.048 24.5307 137.229 24.168C137.357 23.912 137.459 23.64 137.533 23.352C137.619 23.0533 137.656 22.7973 137.645 22.584C137.645 22.52 137.667 22.4827 137.709 22.472C137.752 22.4507 137.789 22.4453 137.821 22.456L138.765 22.776C138.829 22.7973 138.845 22.856 138.813 22.952C138.728 23.1653 138.627 23.4 138.509 23.656C138.392 23.912 138.275 24.1467 138.157 24.36L138.077 24.488C138.461 24.7227 138.856 24.984 139.261 25.272C139.677 25.5493 139.981 25.7893 140.173 25.992C140.227 26.0453 140.269 26.0987 140.301 26.152C140.333 26.2053 140.323 26.2693 140.269 26.344C140.195 26.44 140.115 26.5413 140.029 26.648C139.944 26.744 139.843 26.8347 139.725 26.92C139.672 26.952 139.629 26.952 139.597 26.92C139.341 26.5893 139.048 26.2693 138.717 25.96C138.397 25.64 138.067 25.3467 137.725 25.08C137.331 25.72 136.899 26.2747 136.429 26.744C135.971 27.2027 135.459 27.6187 134.893 27.992ZM157.504 27.16C157.462 27.16 157.44 27.1333 157.44 27.08V15.528C157.44 15.1227 157.424 14.7493 157.392 14.408C157.371 14.056 157.334 13.8267 157.28 13.72C157.259 13.6667 157.259 13.6293 157.28 13.608C157.312 13.576 157.35 13.56 157.392 13.56C157.456 13.56 157.563 13.5653 157.712 13.576C157.872 13.576 158.027 13.5813 158.176 13.592C158.326 13.592 158.411 13.592 158.432 13.592C158.486 13.592 158.512 13.6347 158.512 13.72C158.48 14.1147 158.459 14.4613 158.448 14.76C158.448 15.048 158.448 15.384 158.448 15.768V19.512C158.736 19.512 159.046 19.5013 159.376 19.48C159.718 19.448 160.032 19.416 160.32 19.384C160.619 19.3413 160.843 19.2987 160.992 19.256C161.088 19.2453 161.142 19.2773 161.152 19.352C161.174 19.4907 161.19 19.6293 161.2 19.768C161.211 19.9067 161.222 20.0453 161.232 20.184C161.232 20.3013 161.184 20.36 161.088 20.36C160.928 20.3387 160.694 20.328 160.384 20.328C160.086 20.328 159.766 20.328 159.424 20.328C159.083 20.328 158.758 20.3333 158.448 20.344V26.76C158.448 26.92 158.438 27.016 158.416 27.048C158.406 27.08 158.374 27.1013 158.32 27.112L157.504 27.16ZM149.664 23.336C149.366 23.336 149.152 23.1973 149.024 22.92C148.907 22.6427 148.848 22.328 148.848 21.976V16.76C148.848 16.472 148.827 16.184 148.784 15.896C148.752 15.608 148.72 15.4107 148.688 15.304C148.656 15.1973 148.694 15.144 148.8 15.144C148.854 15.144 148.96 15.1547 149.12 15.176C149.28 15.1867 149.435 15.2027 149.584 15.224C149.744 15.2347 149.835 15.24 149.856 15.24C149.899 15.2507 149.915 15.288 149.904 15.352C149.904 15.3733 149.904 15.3893 149.904 15.4C149.883 15.6773 149.867 15.96 149.856 16.248C149.856 16.5253 149.856 16.8027 149.856 17.08V21.464C149.856 21.6667 149.872 21.864 149.904 22.056C149.936 22.2373 150.043 22.328 150.224 22.328C150.715 22.328 151.318 22.2853 152.032 22.2C152.758 22.104 153.515 21.96 154.304 21.768C155.104 21.5653 155.862 21.304 156.576 20.984C156.662 20.9307 156.715 20.9573 156.736 21.064L156.816 21.608C156.838 21.736 156.784 21.8267 156.656 21.88C156.091 22.1147 155.43 22.3387 154.672 22.552C153.915 22.7653 153.11 22.9413 152.256 23.08C151.403 23.2187 150.539 23.304 149.664 23.336ZM169.219 20.792C168.483 20.792 167.822 20.664 167.235 20.408C166.659 20.1413 166.206 19.768 165.875 19.288C165.544 18.7973 165.384 18.216 165.395 17.544C165.416 16.9253 165.603 16.376 165.955 15.896C166.318 15.4053 166.803 15.016 167.411 14.728C168.019 14.44 168.691 14.2907 169.427 14.28C170.184 14.28 170.856 14.4133 171.443 14.68C172.03 14.9467 172.488 15.3253 172.819 15.816C173.16 16.296 173.315 16.856 173.283 17.496C173.24 18.1787 173.038 18.7653 172.675 19.256C172.323 19.7467 171.848 20.1253 171.251 20.392C170.654 20.6587 169.976 20.792 169.219 20.792ZM169.251 19.976C170.094 19.9547 170.787 19.7307 171.331 19.304C171.875 18.8773 172.168 18.2747 172.211 17.496C172.254 16.7707 172.014 16.1893 171.491 15.752C170.968 15.3147 170.264 15.096 169.379 15.096C168.76 15.096 168.232 15.2133 167.795 15.448C167.358 15.6827 167.027 15.9867 166.803 16.36C166.579 16.7227 166.456 17.1173 166.435 17.544C166.414 18.0347 166.526 18.4667 166.771 18.84C167.016 19.2133 167.358 19.5013 167.795 19.704C168.232 19.896 168.718 19.9867 169.251 19.976ZM163.331 25.544C163.214 25.5547 163.134 25.544 163.091 25.512C163.048 25.48 163.016 25.432 162.995 25.368C162.952 25.2507 162.915 25.1333 162.883 25.016C162.851 24.888 162.814 24.7333 162.771 24.552C162.76 24.5307 162.766 24.504 162.787 24.472C162.808 24.4293 162.846 24.4133 162.899 24.424C163.294 24.4773 163.832 24.5147 164.515 24.536C165.208 24.5467 165.971 24.552 166.803 24.552L166.723 23.272C166.712 23.0693 166.691 22.8453 166.659 22.6C166.627 22.3547 166.59 22.1307 166.547 21.928C166.504 21.7147 166.462 21.576 166.419 21.512C166.398 21.448 166.398 21.4053 166.419 21.384C166.451 21.3627 166.488 21.3467 166.531 21.336H167.603C167.646 21.3467 167.667 21.3947 167.667 21.48C167.667 21.4907 167.667 21.5013 167.667 21.512C167.667 21.7893 167.667 22.0613 167.667 22.328C167.667 22.5947 167.672 22.8667 167.683 23.144L167.715 24.552C168.291 24.552 168.867 24.5467 169.443 24.536C170.019 24.5147 170.59 24.4933 171.155 24.472L171.235 23.08C171.246 22.8773 171.251 22.6587 171.251 22.424C171.262 22.1893 171.256 21.976 171.235 21.784C171.224 21.5813 171.198 21.4427 171.155 21.368C171.134 21.2933 171.139 21.2507 171.171 21.24C171.203 21.2187 171.24 21.208 171.283 21.208C171.336 21.208 171.443 21.2133 171.603 21.224C171.763 21.224 171.918 21.2293 172.067 21.24C172.227 21.2507 172.318 21.256 172.339 21.256C172.392 21.288 172.408 21.3413 172.387 21.416C172.387 21.4267 172.387 21.432 172.387 21.432C172.355 21.7093 172.323 21.976 172.291 22.232C172.259 22.488 172.232 22.7547 172.211 23.032L172.083 24.44C172.872 24.3973 173.582 24.3547 174.211 24.312C174.851 24.2587 175.342 24.2 175.683 24.136C175.79 24.1147 175.859 24.12 175.891 24.152C175.923 24.184 175.944 24.2267 175.955 24.28L176.051 25.048C176.051 25.1013 176.035 25.1493 176.003 25.192C175.971 25.2347 175.886 25.256 175.747 25.256C175.384 25.2453 174.963 25.24 174.483 25.24C174.003 25.24 173.491 25.24 172.947 25.24C171.614 25.24 170.323 25.256 169.075 25.288C167.827 25.3093 166.707 25.3413 165.715 25.384C164.723 25.4267 163.928 25.48 163.331 25.544ZM178.957 16.552C178.936 16.616 178.893 16.6373 178.829 16.616L178.141 16.312C178.077 16.2907 178.056 16.248 178.077 16.184C178.376 15.5333 178.819 15.0533 179.405 14.744C180.003 14.4347 180.621 14.28 181.261 14.28C181.784 14.28 182.275 14.3813 182.733 14.584C183.203 14.7867 183.581 15.08 183.869 15.464C184.168 15.848 184.317 16.3227 184.317 16.888C184.317 17.3467 184.195 17.8213 183.949 18.312C183.704 18.792 183.325 19.2347 182.813 19.64C182.579 19.832 182.333 20.0507 182.077 20.296C181.832 20.5307 181.624 20.8133 181.453 21.144C181.293 21.464 181.213 21.848 181.213 22.296V22.664C181.213 22.728 181.187 22.76 181.133 22.76H180.445C180.392 22.76 180.355 22.728 180.333 22.664C180.323 22.5787 180.312 22.4933 180.301 22.408C180.301 22.3227 180.301 22.2427 180.301 22.168C180.301 21.6027 180.408 21.128 180.621 20.744C180.845 20.36 181.101 20.0347 181.389 19.768C181.688 19.4907 181.949 19.2507 182.173 19.048C182.568 18.7067 182.856 18.3493 183.037 17.976C183.219 17.6027 183.309 17.2453 183.309 16.904C183.309 16.52 183.208 16.2 183.005 15.944C182.813 15.6773 182.557 15.48 182.237 15.352C181.928 15.224 181.597 15.16 181.245 15.16C180.787 15.16 180.339 15.2773 179.901 15.512C179.464 15.736 179.149 16.0827 178.957 16.552ZM180.973 26.36C180.717 26.36 180.504 26.2747 180.333 26.104C180.163 25.9333 180.077 25.72 180.077 25.464C180.077 25.2187 180.163 25.016 180.333 24.856C180.504 24.6853 180.717 24.6 180.973 24.6C181.219 24.6 181.421 24.6853 181.581 24.856C181.752 25.016 181.837 25.2187 181.837 25.464C181.837 25.72 181.752 25.9333 181.581 26.104C181.421 26.2747 181.219 26.36 180.973 26.36ZM192.359 16.728C192.316 16.6853 192.327 16.6533 192.391 16.632C192.647 16.4827 192.839 16.248 192.967 15.928C193.105 15.5973 193.175 15.288 193.175 15C193.175 14.776 193.143 14.552 193.079 14.328C193.015 14.104 192.913 13.912 192.775 13.752C192.743 13.72 192.727 13.6933 192.727 13.672C192.727 13.608 192.759 13.5707 192.823 13.56L193.719 13.32C193.793 13.2987 193.841 13.2933 193.863 13.304C193.884 13.304 193.905 13.3147 193.927 13.336C194.076 13.4747 194.167 13.6453 194.199 13.848C194.241 14.04 194.263 14.2427 194.263 14.456C194.263 14.7653 194.204 15.096 194.087 15.448C193.969 15.7893 193.799 16.1093 193.575 16.408C193.361 16.696 193.1 16.9147 192.791 17.064C192.748 17.0747 192.716 17.0693 192.695 17.048L192.359 16.728ZM194.679 16.728C194.636 16.6853 194.647 16.6533 194.711 16.632C194.967 16.4827 195.159 16.248 195.287 15.928C195.425 15.5973 195.495 15.288 195.495 15C195.495 14.776 195.463 14.552 195.399 14.328C195.335 14.104 195.233 13.912 195.095 13.752C195.063 13.72 195.047 13.6933 195.047 13.672C195.047 13.608 195.079 13.5707 195.143 13.56L196.039 13.32C196.113 13.2987 196.161 13.2933 196.183 13.304C196.204 13.304 196.225 13.3147 196.247 13.336C196.396 13.4747 196.487 13.6453 196.519 13.848C196.561 14.04 196.583 14.2427 196.583 14.456C196.583 14.7653 196.524 15.096 196.407 15.448C196.289 15.7893 196.119 16.1093 195.895 16.408C195.681 16.696 195.42 16.9147 195.111 17.064C195.068 17.0747 195.036 17.0693 195.015 17.048L194.679 16.728Z" fill="white"/>
</g>
<g opacity="0.36">
<rect x="10" y="41" width="82" height="32" rx="16" fill="white"/>
<rect x="11.5" y="42.5" width="79" height="29" rx="14.5" stroke="white" stroke-opacity="0.65" stroke-width="3"/>
<path d="M24.08 52.428H28.16V53.244H24.08V52.428ZM25.364 54.9H26.3V57.468H25.364V54.9ZM27.656 52.428H28.592V53.148C28.592 53.524 28.58 53.964 28.556 54.468C28.54 54.964 28.468 55.528 28.34 56.16L27.404 56.064C27.532 55.44 27.604 54.892 27.62 54.42C27.644 53.94 27.656 53.516 27.656 53.148V52.428ZM23.6 57.972L23.492 57.144C23.86 57.144 24.276 57.14 24.74 57.132C25.204 57.124 25.688 57.112 26.192 57.096C26.696 57.08 27.192 57.056 27.68 57.024C28.168 56.992 28.628 56.948 29.06 56.892L29.108 57.612C28.532 57.716 27.908 57.796 27.236 57.852C26.572 57.9 25.924 57.932 25.292 57.948C24.66 57.964 24.096 57.972 23.6 57.972ZM31.784 51.588H32.744V59.82H31.784V51.588ZM30.224 55.032H32.096V55.86H30.224V55.032ZM29.576 51.78H30.512V59.508H29.576V51.78ZM25.424 61.38H33.044V62.196H25.424V61.38ZM25.424 58.968H26.432V61.644H25.424V58.968ZM42.0671 51.576H43.0631V57.18H42.0671V51.576ZM42.6311 54.036H44.6591V54.864H42.6311V54.036ZM35.7671 61.368H36.2951C36.5111 61.368 36.7631 61.36 37.0511 61.344C37.3391 61.328 37.6431 61.292 37.9631 61.236C38.2911 61.18 38.6071 61.104 38.9111 61.008L39.0671 61.8C38.7231 61.912 38.3831 61.996 38.0471 62.052C37.7191 62.108 37.4071 62.144 37.1111 62.16C36.8151 62.184 36.5431 62.196 36.2951 62.196H35.7671V61.368ZM35.7671 58.176H36.7391V61.62H35.7671V58.176ZM38.6831 58.356H44.1191V59.1H38.6831V58.356ZM41.4071 59.496C41.9991 59.496 42.4791 59.628 42.8471 59.892C43.2231 60.156 43.4111 60.512 43.4111 60.96C43.4111 61.408 43.2231 61.764 42.8471 62.028C42.4791 62.292 41.9991 62.424 41.4071 62.424C40.8231 62.424 40.3391 62.292 39.9551 62.028C39.5791 61.764 39.3911 61.408 39.3911 60.96C39.3911 60.512 39.5791 60.156 39.9551 59.892C40.3391 59.628 40.8231 59.496 41.4071 59.496ZM41.4071 60.192C41.0871 60.192 40.8191 60.26 40.6031 60.396C40.3951 60.532 40.2911 60.72 40.2911 60.96C40.2911 61.192 40.3951 61.376 40.6031 61.512C40.8191 61.656 41.0871 61.728 41.4071 61.728C41.7271 61.728 41.9911 61.656 42.1991 61.512C42.4071 61.376 42.5111 61.192 42.5111 60.96C42.5111 60.72 42.4071 60.532 42.1991 60.396C41.9911 60.26 41.7271 60.192 41.4071 60.192ZM40.9271 57.408H41.8991V58.884H40.9271V57.408ZM37.3511 53.232H38.1551V53.688C38.1551 54.272 38.0231 54.804 37.7591 55.284C37.5031 55.764 37.1431 56.176 36.6791 56.52C36.2151 56.864 35.6751 57.124 35.0591 57.3L34.6151 56.52C35.0151 56.416 35.3831 56.272 35.7191 56.088C36.0551 55.904 36.3431 55.688 36.5831 55.44C36.8231 55.192 37.0111 54.92 37.1471 54.624C37.2831 54.328 37.3511 54.016 37.3511 53.688V53.232ZM37.5311 53.232H38.3351V53.688C38.3351 54.072 38.4471 54.432 38.6711 54.768C38.9031 55.104 39.2191 55.396 39.6191 55.644C40.0271 55.892 40.4951 56.08 41.0231 56.208L40.6031 56.976C39.9951 56.824 39.4591 56.592 38.9951 56.28C38.5311 55.96 38.1711 55.58 37.9151 55.14C37.6591 54.7 37.5311 54.216 37.5311 53.688V53.232ZM34.9391 52.692H40.7351V53.496H34.9391V52.692ZM37.3511 51.54H38.3471V53.112H37.3511V51.54ZM48.7021 52.212C49.2541 52.212 49.7421 52.324 50.1661 52.548C50.5901 52.764 50.9221 53.064 51.1621 53.448C51.4101 53.824 51.5341 54.264 51.5341 54.768C51.5341 55.28 51.4101 55.728 51.1621 56.112C50.9221 56.488 50.5901 56.784 50.1661 57C49.7421 57.216 49.2541 57.324 48.7021 57.324C48.1661 57.324 47.6821 57.216 47.2501 57C46.8261 56.784 46.4901 56.488 46.2421 56.112C45.9941 55.728 45.8701 55.28 45.8701 54.768C45.8701 54.264 45.9941 53.824 46.2421 53.448C46.4901 53.064 46.8261 52.764 47.2501 52.548C47.6821 52.324 48.1661 52.212 48.7021 52.212ZM48.7021 53.052C48.3501 53.052 48.0341 53.128 47.7541 53.28C47.4741 53.424 47.2501 53.624 47.0821 53.88C46.9221 54.136 46.8421 54.432 46.8421 54.768C46.8421 55.112 46.9221 55.412 47.0821 55.668C47.2501 55.924 47.4741 56.124 47.7541 56.268C48.0341 56.412 48.3501 56.484 48.7021 56.484C49.0621 56.484 49.3821 56.412 49.6621 56.268C49.9421 56.124 50.1621 55.924 50.3221 55.668C50.4901 55.412 50.5741 55.112 50.5741 54.768C50.5741 54.432 50.4901 54.136 50.3221 53.88C50.1621 53.624 49.9421 53.424 49.6621 53.28C49.3821 53.128 49.0621 53.052 48.7021 53.052ZM53.1061 51.576H54.1021V57.756H53.1061V51.576ZM53.8261 54.18H55.6981V54.996H53.8261V54.18ZM48.2821 58.248H49.0501V58.824C49.0501 59.296 48.9541 59.764 48.7621 60.228C48.5701 60.684 48.2901 61.092 47.9221 61.452C47.5621 61.812 47.1221 62.096 46.6021 62.304L46.1101 61.56C46.5661 61.384 46.9541 61.152 47.2741 60.864C47.6021 60.568 47.8501 60.244 48.0181 59.892C48.1941 59.532 48.2821 59.176 48.2821 58.824V58.248ZM48.4981 58.248H49.2301V58.824C49.2301 59.192 49.3021 59.56 49.4461 59.928C49.5901 60.288 49.8061 60.62 50.0941 60.924C50.3821 61.22 50.7461 61.46 51.1861 61.644L50.7541 62.4C50.2341 62.192 49.8061 61.9 49.4701 61.524C49.1421 61.148 48.8981 60.728 48.7381 60.264C48.5781 59.792 48.4981 59.312 48.4981 58.824V58.248ZM52.2781 58.248H53.0221V58.824C53.0221 59.248 52.9421 59.696 52.7821 60.168C52.6221 60.64 52.3741 61.076 52.0381 61.476C51.7021 61.868 51.2741 62.176 50.7541 62.4L50.3341 61.644C50.7661 61.444 51.1261 61.184 51.4141 60.864C51.7021 60.544 51.9181 60.204 52.0621 59.844C52.2061 59.476 52.2781 59.136 52.2781 58.824V58.248ZM52.4821 58.248H53.2501V58.824C53.2501 59.2 53.3341 59.568 53.5021 59.928C53.6781 60.288 53.9261 60.612 54.2461 60.9C54.5741 61.18 54.9661 61.4 55.4221 61.56L54.9301 62.304C54.4021 62.104 53.9541 61.832 53.5861 61.488C53.2181 61.136 52.9421 60.732 52.7581 60.276C52.5741 59.812 52.4821 59.328 52.4821 58.824V58.248ZM59.6092 52.416C60.1372 52.416 60.6052 52.572 61.0132 52.884C61.4212 53.188 61.7372 53.624 61.9612 54.192C62.1932 54.76 62.3092 55.428 62.3092 56.196C62.3092 56.964 62.1932 57.632 61.9612 58.2C61.7372 58.768 61.4212 59.208 61.0132 59.52C60.6052 59.832 60.1372 59.988 59.6092 59.988C59.0892 59.988 58.6212 59.832 58.2052 59.52C57.7972 59.208 57.4772 58.768 57.2452 58.2C57.0212 57.632 56.9092 56.964 56.9092 56.196C56.9092 55.428 57.0212 54.76 57.2452 54.192C57.4772 53.624 57.7972 53.188 58.2052 52.884C58.6212 52.572 59.0892 52.416 59.6092 52.416ZM59.6092 53.304C59.2652 53.304 58.9612 53.424 58.6972 53.664C58.4332 53.896 58.2252 54.232 58.0732 54.672C57.9292 55.104 57.8572 55.612 57.8572 56.196C57.8572 56.78 57.9292 57.292 58.0732 57.732C58.2252 58.164 58.4332 58.5 58.6972 58.74C58.9612 58.98 59.2652 59.1 59.6092 59.1C59.9612 59.1 60.2692 58.98 60.5332 58.74C60.7972 58.5 61.0012 58.164 61.1452 57.732C61.2972 57.292 61.3732 56.78 61.3732 56.196C61.3732 55.612 61.2972 55.104 61.1452 54.672C61.0012 54.232 60.7972 53.896 60.5332 53.664C60.2692 53.424 59.9612 53.304 59.6092 53.304ZM64.6612 51.576H65.6452V62.448H64.6612V51.576ZM61.9852 55.716H65.1052V56.52H61.9852V55.716ZM70.1683 57.168H71.1523V60.408H70.1683V57.168ZM74.1763 57.168H75.1723V60.408H74.1763V57.168ZM67.7563 60.216H77.5963V61.044H67.7563V60.216ZM72.6523 52.26C73.4203 52.26 74.1003 52.376 74.6923 52.608C75.2843 52.84 75.7483 53.164 76.0843 53.58C76.4283 53.996 76.6003 54.488 76.6003 55.056C76.6003 55.616 76.4283 56.108 76.0843 56.532C75.7483 56.948 75.2843 57.272 74.6923 57.504C74.1003 57.728 73.4203 57.84 72.6523 57.84C71.8923 57.84 71.2123 57.728 70.6123 57.504C70.0203 57.272 69.5563 56.948 69.2203 56.532C68.8843 56.108 68.7163 55.616 68.7163 55.056C68.7163 54.488 68.8843 53.996 69.2203 53.58C69.5563 53.164 70.0203 52.84 70.6123 52.608C71.2123 52.376 71.8923 52.26 72.6523 52.26ZM72.6523 53.052C72.0763 53.052 71.5643 53.136 71.1163 53.304C70.6683 53.472 70.3163 53.708 70.0603 54.012C69.8043 54.308 69.6763 54.656 69.6763 55.056C69.6763 55.456 69.8043 55.808 70.0603 56.112C70.3163 56.408 70.6683 56.64 71.1163 56.808C71.5643 56.976 72.0763 57.06 72.6523 57.06C73.2363 57.06 73.7523 56.976 74.2003 56.808C74.6483 56.64 75.0003 56.408 75.2563 56.112C75.5123 55.808 75.6403 55.456 75.6403 55.056C75.6403 54.656 75.5123 54.308 75.2563 54.012C75.0003 53.708 74.6483 53.472 74.2003 53.304C73.7523 53.136 73.2363 53.052 72.6523 53.052Z" fill="#463D56"/>
</g>
<g opacity="0.36">
<rect x="99" y="41" width="79" height="32" rx="16" fill="white"/>
<rect x="100.5" y="42.5" width="76" height="29" rx="14.5" stroke="white" stroke-opacity="0.65" stroke-width="3"/>
<path d="M120.992 51.66H121.844V52.056C121.844 52.424 121.764 52.768 121.604 53.088C121.444 53.408 121.228 53.7 120.956 53.964C120.684 54.228 120.36 54.46 119.984 54.66C119.616 54.86 119.22 55.028 118.796 55.164C118.372 55.3 117.932 55.396 117.476 55.452L117.14 54.696C117.532 54.648 117.916 54.572 118.292 54.468C118.668 54.356 119.016 54.22 119.336 54.06C119.664 53.892 119.952 53.704 120.2 53.496C120.456 53.288 120.652 53.064 120.788 52.824C120.924 52.576 120.992 52.32 120.992 52.056V51.66ZM121.16 51.66H122.012V52.056C122.012 52.32 122.08 52.576 122.216 52.824C122.352 53.064 122.544 53.288 122.792 53.496C123.04 53.704 123.328 53.892 123.656 54.06C123.984 54.22 124.336 54.356 124.712 54.468C125.088 54.572 125.472 54.648 125.864 54.696L125.516 55.452C125.068 55.396 124.632 55.3 124.208 55.164C123.784 55.028 123.388 54.86 123.02 54.66C122.652 54.46 122.328 54.228 122.048 53.964C121.768 53.7 121.548 53.408 121.388 53.088C121.236 52.768 121.16 52.424 121.16 52.056V51.66ZM116.6 56.136H126.404V56.952H116.6V56.136ZM117.788 57.936H125.144V60.432H118.784V61.716H117.812V59.7H124.172V58.704H117.788V57.936ZM117.812 61.536H125.468V62.316H117.812V61.536ZM133.627 54.36H136.123V55.164H133.627V54.36ZM127.963 52.344H133.699V53.16H127.963V52.344ZM127.783 57.432L127.663 56.58C128.287 56.58 128.967 56.576 129.703 56.568C130.439 56.552 131.191 56.528 131.959 56.496C132.727 56.456 133.459 56.396 134.155 56.316L134.215 57.06C133.503 57.172 132.767 57.256 132.007 57.312C131.247 57.36 130.503 57.392 129.775 57.408C129.055 57.424 128.391 57.432 127.783 57.432ZM129.031 52.956H130.003V56.88H129.031V52.956ZM131.647 52.956H132.619V56.88H131.647V52.956ZM135.571 51.576H136.567V58.02H135.571V51.576ZM130.423 58.344H131.191V58.884C131.191 59.356 131.095 59.816 130.903 60.264C130.711 60.712 130.431 61.116 130.063 61.476C129.703 61.828 129.263 62.1 128.743 62.292L128.251 61.548C128.699 61.388 129.087 61.168 129.415 60.888C129.743 60.6 129.991 60.28 130.159 59.928C130.335 59.576 130.423 59.228 130.423 58.884V58.344ZM130.639 58.344H131.383V58.884C131.383 59.244 131.455 59.604 131.599 59.964C131.743 60.324 131.959 60.652 132.247 60.948C132.535 61.236 132.891 61.468 133.315 61.644L132.895 62.388C132.375 62.188 131.947 61.904 131.611 61.536C131.283 61.168 131.039 60.756 130.879 60.3C130.719 59.836 130.639 59.364 130.639 58.884V58.344ZM134.419 58.344H135.163V58.884C135.163 59.308 135.083 59.748 134.923 60.204C134.763 60.66 134.515 61.084 134.179 61.476C133.843 61.868 133.415 62.172 132.895 62.388L132.487 61.644C132.919 61.452 133.275 61.2 133.555 60.888C133.843 60.568 134.059 60.232 134.203 59.88C134.347 59.528 134.419 59.196 134.419 58.884V58.344ZM134.635 58.344H135.391V58.884C135.391 59.252 135.479 59.616 135.655 59.976C135.831 60.328 136.079 60.644 136.399 60.924C136.727 61.196 137.119 61.404 137.575 61.548L137.083 62.292C136.555 62.108 136.107 61.844 135.739 61.5C135.379 61.156 135.103 60.76 134.911 60.312C134.727 59.856 134.635 59.38 134.635 58.884V58.344ZM141.57 52.416C142.098 52.416 142.566 52.572 142.974 52.884C143.382 53.188 143.698 53.624 143.922 54.192C144.154 54.76 144.27 55.428 144.27 56.196C144.27 56.964 144.154 57.632 143.922 58.2C143.698 58.768 143.382 59.208 142.974 59.52C142.566 59.832 142.098 59.988 141.57 59.988C141.05 59.988 140.582 59.832 140.166 59.52C139.758 59.208 139.438 58.768 139.206 58.2C138.982 57.632 138.87 56.964 138.87 56.196C138.87 55.428 138.982 54.76 139.206 54.192C139.438 53.624 139.758 53.188 140.166 52.884C140.582 52.572 141.05 52.416 141.57 52.416ZM141.57 53.304C141.226 53.304 140.922 53.424 140.658 53.664C140.394 53.896 140.186 54.232 140.034 54.672C139.89 55.104 139.818 55.612 139.818 56.196C139.818 56.78 139.89 57.292 140.034 57.732C140.186 58.164 140.394 58.5 140.658 58.74C140.922 58.98 141.226 59.1 141.57 59.1C141.922 59.1 142.23 58.98 142.494 58.74C142.758 58.5 142.962 58.164 143.106 57.732C143.258 57.292 143.334 56.78 143.334 56.196C143.334 55.612 143.258 55.104 143.106 54.672C142.962 54.232 142.758 53.896 142.494 53.664C142.23 53.424 141.922 53.304 141.57 53.304ZM146.622 51.576H147.606V62.448H146.622V51.576ZM143.946 55.716H147.066V56.52H143.946V55.716ZM152.129 57.168H153.113V60.408H152.129V57.168ZM156.137 57.168H157.133V60.408H156.137V57.168ZM149.717 60.216H159.557V61.044H149.717V60.216ZM154.613 52.26C155.381 52.26 156.061 52.376 156.653 52.608C157.245 52.84 157.709 53.164 158.045 53.58C158.389 53.996 158.561 54.488 158.561 55.056C158.561 55.616 158.389 56.108 158.045 56.532C157.709 56.948 157.245 57.272 156.653 57.504C156.061 57.728 155.381 57.84 154.613 57.84C153.853 57.84 153.173 57.728 152.573 57.504C151.981 57.272 151.517 56.948 151.181 56.532C150.845 56.108 150.677 55.616 150.677 55.056C150.677 54.488 150.845 53.996 151.181 53.58C151.517 53.164 151.981 52.84 152.573 52.608C153.173 52.376 153.853 52.26 154.613 52.26ZM154.613 53.052C154.037 53.052 153.525 53.136 153.077 53.304C152.629 53.472 152.277 53.708 152.021 54.012C151.765 54.308 151.637 54.656 151.637 55.056C151.637 55.456 151.765 55.808 152.021 56.112C152.277 56.408 152.629 56.64 153.077 56.808C153.525 56.976 154.037 57.06 154.613 57.06C155.197 57.06 155.713 56.976 156.161 56.808C156.609 56.64 156.961 56.408 157.217 56.112C157.473 55.808 157.601 55.456 157.601 55.056C157.601 54.656 157.473 54.308 157.217 54.012C156.961 53.708 156.609 53.472 156.161 53.304C155.713 53.136 155.197 53.052 154.613 53.052Z" fill="#463D56"/>
</g>
<g opacity="0.36">
<rect x="184" y="41" width="119" height="32" rx="16" fill="white"/>
<rect x="185.5" y="42.5" width="116" height="29" rx="14.5" stroke="white" stroke-opacity="0.65" stroke-width="3"/>
<path d="M204.196 51.576H205.192V57.096H204.196V51.576ZM204.748 53.916H206.788V54.744H204.748V53.916ZM197.212 52.188H202.204V56.544H197.212V52.188ZM201.232 52.992H198.184V55.74H201.232V52.992ZM198.292 57.612H205.192V60.276H199.3V61.908H198.328V59.532H204.208V58.404H198.292V57.612ZM198.328 61.488H205.576V62.292H198.328V61.488ZM215.163 51.576H216.147V62.436H215.163V51.576ZM215.919 56.04H217.923V56.88H215.919V56.04ZM207.747 53.316H214.143V54.132H207.747V53.316ZM210.999 55.02C211.511 55.02 211.963 55.128 212.355 55.344C212.755 55.56 213.067 55.856 213.291 56.232C213.523 56.6 213.639 57.028 213.639 57.516C213.639 58.004 213.523 58.436 213.291 58.812C213.067 59.188 212.755 59.484 212.355 59.7C211.963 59.908 211.511 60.012 210.999 60.012C210.487 60.012 210.031 59.908 209.631 59.7C209.239 59.484 208.927 59.188 208.695 58.812C208.463 58.436 208.347 58.004 208.347 57.516C208.347 57.028 208.463 56.6 208.695 56.232C208.927 55.856 209.239 55.56 209.631 55.344C210.031 55.128 210.487 55.02 210.999 55.02ZM210.999 55.848C210.671 55.848 210.379 55.92 210.123 56.064C209.867 56.208 209.663 56.404 209.511 56.652C209.367 56.9 209.295 57.188 209.295 57.516C209.295 57.844 209.367 58.136 209.511 58.392C209.663 58.64 209.867 58.836 210.123 58.98C210.379 59.116 210.671 59.184 210.999 59.184C211.319 59.184 211.607 59.116 211.863 58.98C212.119 58.836 212.319 58.64 212.463 58.392C212.615 58.136 212.691 57.844 212.691 57.516C212.691 57.188 212.615 56.9 212.463 56.652C212.319 56.404 212.119 56.208 211.863 56.064C211.607 55.92 211.319 55.848 210.999 55.848ZM210.483 51.708H211.479V53.676H210.483V51.708ZM219.89 52.668H226.874V53.484H219.89V52.668ZM218.846 60.084H228.65V60.912H218.846V60.084ZM222.662 56.208H223.646V60.504H222.662V56.208ZM226.49 52.668H227.486V53.736C227.486 54.184 227.478 54.656 227.462 55.152C227.454 55.648 227.422 56.192 227.366 56.784C227.318 57.376 227.226 58.036 227.09 58.764L226.082 58.644C226.29 57.604 226.41 56.692 226.442 55.908C226.474 55.116 226.49 54.392 226.49 53.736V52.668ZM240.957 51.588H241.953V57.612H240.957V51.588ZM235.881 51.984H236.709V53.04C236.709 53.704 236.581 54.328 236.325 54.912C236.069 55.488 235.709 55.992 235.245 56.424C234.781 56.848 234.241 57.172 233.625 57.396L233.121 56.604C233.537 56.46 233.913 56.268 234.249 56.028C234.585 55.788 234.873 55.512 235.113 55.2C235.361 54.88 235.549 54.536 235.677 54.168C235.813 53.8 235.881 53.424 235.881 53.04V51.984ZM236.061 51.984H236.889V53.04C236.889 53.416 236.953 53.78 237.081 54.132C237.217 54.476 237.405 54.796 237.645 55.092C237.893 55.388 238.185 55.648 238.521 55.872C238.857 56.096 239.225 56.272 239.625 56.4L239.145 57.192C238.689 57.04 238.273 56.828 237.897 56.556C237.521 56.284 237.197 55.968 236.925 55.608C236.653 55.248 236.441 54.852 236.289 54.42C236.137 53.98 236.061 53.52 236.061 53.04V51.984ZM234.777 58.26H242.025V59.064H234.777V58.26ZM234.681 61.476H242.133V62.292H234.681V61.476ZM236.265 58.596H237.249V61.956H236.265V58.596ZM239.565 58.596H240.549V61.956H239.565V58.596ZM246.968 53.136H247.784V54.888C247.784 55.464 247.704 56.032 247.544 56.592C247.384 57.144 247.16 57.668 246.872 58.164C246.592 58.652 246.264 59.084 245.888 59.46C245.512 59.836 245.108 60.132 244.676 60.348L244.1 59.556C244.492 59.364 244.86 59.104 245.204 58.776C245.556 58.448 245.864 58.072 246.128 57.648C246.392 57.224 246.596 56.776 246.74 56.304C246.892 55.832 246.968 55.36 246.968 54.888V53.136ZM247.172 53.136H247.976V54.888C247.976 55.344 248.048 55.8 248.192 56.256C248.344 56.704 248.552 57.128 248.816 57.528C249.088 57.92 249.396 58.268 249.74 58.572C250.092 58.876 250.468 59.116 250.868 59.292L250.316 60.084C249.876 59.876 249.464 59.596 249.08 59.244C248.696 58.892 248.36 58.488 248.072 58.032C247.792 57.568 247.572 57.072 247.412 56.544C247.252 56.008 247.172 55.456 247.172 54.888V53.136ZM244.448 52.692H250.508V53.52H244.448V52.692ZM251.984 51.576H252.98V62.436H251.984V51.576ZM261.315 52.188C261.851 52.188 262.331 52.296 262.755 52.512C263.179 52.728 263.511 53.024 263.751 53.4C263.991 53.776 264.111 54.208 264.111 54.696C264.111 55.184 263.991 55.62 263.751 56.004C263.511 56.38 263.179 56.676 262.755 56.892C262.331 57.1 261.851 57.204 261.315 57.204C260.779 57.204 260.299 57.1 259.875 56.892C259.451 56.676 259.115 56.38 258.867 56.004C258.627 55.62 258.507 55.184 258.507 54.696C258.507 54.208 258.627 53.776 258.867 53.4C259.115 53.024 259.451 52.728 259.875 52.512C260.299 52.296 260.779 52.188 261.315 52.188ZM261.315 53.016C260.971 53.016 260.659 53.088 260.379 53.232C260.099 53.376 259.879 53.576 259.719 53.832C259.559 54.08 259.479 54.368 259.479 54.696C259.479 55.024 259.559 55.316 259.719 55.572C259.879 55.828 260.099 56.028 260.379 56.172C260.659 56.316 260.971 56.388 261.315 56.388C261.667 56.388 261.979 56.316 262.251 56.172C262.531 56.028 262.751 55.828 262.911 55.572C263.071 55.316 263.151 55.024 263.151 54.696C263.151 54.368 263.071 54.08 262.911 53.832C262.751 53.576 262.531 53.376 262.251 53.232C261.979 53.088 261.667 53.016 261.315 53.016ZM265.743 51.576H266.739V56.988H265.743V51.576ZM266.307 54.012H268.335V54.84H266.307V54.012ZM259.443 61.332H259.971C260.187 61.332 260.439 61.324 260.727 61.308C261.015 61.284 261.319 61.248 261.639 61.2C261.959 61.144 262.275 61.064 262.587 60.96L262.743 61.752C262.399 61.864 262.059 61.948 261.723 62.004C261.395 62.06 261.083 62.096 260.787 62.112C260.491 62.136 260.219 62.148 259.971 62.148H259.443V61.332ZM259.443 58.164H260.415V61.62H259.443V58.164ZM262.359 58.224H267.795V58.98H262.359V58.224ZM265.083 59.352C265.675 59.352 266.155 59.492 266.523 59.772C266.899 60.044 267.087 60.416 267.087 60.888C267.087 61.36 266.899 61.732 266.523 62.004C266.155 62.276 265.675 62.412 265.083 62.412C264.491 62.412 264.007 62.276 263.631 62.004C263.255 61.732 263.067 61.36 263.067 60.888C263.067 60.416 263.255 60.044 263.631 59.772C264.007 59.492 264.491 59.352 265.083 59.352ZM265.083 60.072C264.755 60.072 264.483 60.148 264.267 60.3C264.059 60.444 263.955 60.64 263.955 60.888C263.955 61.136 264.059 61.336 264.267 61.488C264.483 61.632 264.755 61.704 265.083 61.704C265.411 61.704 265.679 61.632 265.887 61.488C266.095 61.336 266.199 61.136 266.199 60.888C266.199 60.64 266.095 60.444 265.887 60.3C265.679 60.148 265.411 60.072 265.083 60.072ZM264.603 57.264H265.575V58.812H264.603V57.264ZM272.234 52.416C272.77 52.416 273.242 52.572 273.65 52.884C274.058 53.188 274.378 53.624 274.61 54.192C274.842 54.76 274.958 55.428 274.958 56.196C274.958 56.964 274.842 57.632 274.61 58.2C274.378 58.768 274.058 59.208 273.65 59.52C273.242 59.832 272.77 59.988 272.234 59.988C271.706 59.988 271.234 59.832 270.818 59.52C270.41 59.208 270.09 58.768 269.858 58.2C269.626 57.632 269.51 56.964 269.51 56.196C269.51 55.428 269.626 54.76 269.858 54.192C270.09 53.624 270.41 53.188 270.818 52.884C271.234 52.572 271.706 52.416 272.234 52.416ZM272.234 53.304C271.89 53.304 271.582 53.424 271.31 53.664C271.046 53.896 270.838 54.232 270.686 54.672C270.534 55.104 270.458 55.612 270.458 56.196C270.458 56.78 270.534 57.292 270.686 57.732C270.838 58.164 271.046 58.5 271.31 58.74C271.582 58.98 271.894 59.1 272.246 59.1C272.59 59.1 272.894 58.98 273.158 58.74C273.43 58.5 273.638 58.164 273.782 57.732C273.934 57.292 274.01 56.78 274.01 56.196C274.01 55.612 273.934 55.104 273.782 54.672C273.638 54.232 273.43 53.896 273.158 53.664C272.894 53.424 272.586 53.304 272.234 53.304ZM276.698 51.576H277.694V62.436H276.698V51.576ZM277.466 55.908H279.47V56.748H277.466V55.908ZM282.805 57.168H283.789V60.408H282.805V57.168ZM286.813 57.168H287.809V60.408H286.813V57.168ZM280.393 60.216H290.233V61.044H280.393V60.216ZM285.289 52.26C286.057 52.26 286.737 52.376 287.329 52.608C287.921 52.84 288.385 53.164 288.721 53.58C289.065 53.996 289.237 54.488 289.237 55.056C289.237 55.616 289.065 56.108 288.721 56.532C288.385 56.948 287.921 57.272 287.329 57.504C286.737 57.728 286.057 57.84 285.289 57.84C284.529 57.84 283.849 57.728 283.249 57.504C282.657 57.272 282.193 56.948 281.857 56.532C281.521 56.108 281.353 55.616 281.353 55.056C281.353 54.488 281.521 53.996 281.857 53.58C282.193 53.164 282.657 52.84 283.249 52.608C283.849 52.376 284.529 52.26 285.289 52.26ZM285.289 53.052C284.713 53.052 284.201 53.136 283.753 53.304C283.305 53.472 282.953 53.708 282.697 54.012C282.441 54.308 282.313 54.656 282.313 55.056C282.313 55.456 282.441 55.808 282.697 56.112C282.953 56.408 283.305 56.64 283.753 56.808C284.201 56.976 284.713 57.06 285.289 57.06C285.873 57.06 286.389 56.976 286.837 56.808C287.285 56.64 287.637 56.408 287.893 56.112C288.149 55.808 288.277 55.456 288.277 55.056C288.277 54.656 288.149 54.308 287.893 54.012C287.637 53.708 287.285 53.472 286.837 53.304C286.389 53.136 285.873 53.052 285.289 53.052Z" fill="#463D56"/>
</g>
</svg>
