<svg width="257" height="50" viewBox="0 0 257 50" fill="none" xmlns="http://www.w3.org/2000/svg">
<rect y="0.948975" width="257" height="48.7347" rx="23" fill="#F7CACB" fill-opacity="0.6"/>
<rect x="0.5" y="1.44897" width="256" height="47.7347" rx="22.5" stroke="black" stroke-opacity="0.05"/>
<path d="M52.17 22.9944H60.85V23.9464H52.17V22.9944ZM50.7 25.8364H62.18V26.8024H50.7V25.8364ZM55.81 26.3544H56.972V31.4084H55.81V26.3544ZM52.17 19.3824H53.332V23.4564H52.17V19.3824ZM65.0349 19.4104H73.1129V20.3624H65.0349V19.4104ZM63.5789 24.3244H75.0589V25.2624H63.5789V24.3244ZM68.7869 24.8984H69.9349V28.3004H68.7869V24.8984ZM72.4269 19.4104H73.5749V20.4184C73.5749 20.9971 73.5562 21.6364 73.5189 22.3364C73.4816 23.0364 73.3602 23.8624 73.1549 24.8144L72.0069 24.6744C72.2122 23.7597 72.3336 22.9617 72.3709 22.2804C72.4082 21.5991 72.4269 20.9784 72.4269 20.4184V19.4104ZM65.0209 30.1764H73.8269V31.1284H65.0209V30.1764ZM65.0209 27.1664H66.1829V30.4284H65.0209V27.1664ZM85.0258 18.7384H86.1878V31.3944H85.0258V18.7384ZM85.8798 23.8764H88.2038V24.8424H85.8798V23.8764ZM81.7918 20.0964H82.9258C82.9258 21.3004 82.7298 22.4531 82.3378 23.5544C81.9458 24.6464 81.3298 25.6591 80.4898 26.5924C79.6498 27.5164 78.5438 28.3191 77.1718 29.0004L76.5278 28.1044C77.7038 27.5164 78.6791 26.8304 79.4538 26.0464C80.2378 25.2531 80.8211 24.3757 81.2038 23.4144C81.5958 22.4437 81.7918 21.3984 81.7918 20.2784V20.0964ZM77.1158 20.0964H82.3798V21.0624H77.1158V20.0964ZM89.3227 24.6184H100.803V25.5144H89.3227V24.6184ZM90.6947 26.5224H99.3747V29.2244H91.8707V30.7084H90.7227V28.4264H98.2267V27.3624H90.6947V26.5224ZM90.7227 30.4004H99.7807V31.2404H90.7227V30.4004ZM90.7787 19.1164H99.3327V21.7484H91.9547V23.1204H90.8067V20.9644H98.1847V19.9424H90.7787V19.1164ZM90.8067 22.8404H99.5567V23.6804H90.8067V22.8404ZM110.051 19.3404C110.685 19.3404 111.245 19.4524 111.731 19.6764C112.216 19.8911 112.594 20.1944 112.865 20.5864C113.145 20.9691 113.285 21.4217 113.285 21.9444C113.285 22.4484 113.145 22.9011 112.865 23.3024C112.594 23.6944 112.216 24.0024 111.731 24.2264C111.245 24.4411 110.685 24.5484 110.051 24.5484C109.435 24.5484 108.884 24.4411 108.399 24.2264C107.913 24.0024 107.531 23.6944 107.251 23.3024C106.971 22.9011 106.831 22.4484 106.831 21.9444C106.831 21.4217 106.971 20.9691 107.251 20.5864C107.531 20.1944 107.913 19.8911 108.399 19.6764C108.884 19.4524 109.435 19.3404 110.051 19.3404ZM110.051 20.2924C109.649 20.2924 109.29 20.3624 108.973 20.5024C108.655 20.6424 108.403 20.8384 108.217 21.0904C108.039 21.3331 107.951 21.6177 107.951 21.9444C107.951 22.2617 108.039 22.5464 108.217 22.7984C108.403 23.0411 108.655 23.2324 108.973 23.3724C109.29 23.5124 109.649 23.5824 110.051 23.5824C110.471 23.5824 110.839 23.5124 111.157 23.3724C111.474 23.2324 111.721 23.0411 111.899 22.7984C112.085 22.5464 112.179 22.2617 112.179 21.9444C112.179 21.6177 112.085 21.3331 111.899 21.0904C111.721 20.8384 111.474 20.6424 111.157 20.5024C110.839 20.3624 110.471 20.2924 110.051 20.2924ZM109.547 25.9624H110.709V31.0164H109.547V25.9624ZM115.147 18.7524H116.295V31.4084H115.147V18.7524ZM106.047 26.5924L105.893 25.6124C106.677 25.6124 107.535 25.6031 108.469 25.5844C109.411 25.5657 110.377 25.5237 111.367 25.4584C112.365 25.3931 113.322 25.2904 114.237 25.1504L114.321 26.0184C113.378 26.1957 112.417 26.3264 111.437 26.4104C110.457 26.4851 109.505 26.5317 108.581 26.5504C107.666 26.5691 106.821 26.5831 106.047 26.5924ZM118.8 28.8744H130.28V29.8404H118.8V28.8744ZM123.938 26.1724H125.086V29.2804H123.938V26.1724ZM120.2 19.6764H128.852V23.5124H121.376V26.0464H120.228V22.5884H127.704V20.6284H120.2V19.6764ZM120.228 25.5564H129.146V26.5084H120.228V25.5564ZM143.966 18.7384H145.114V31.4084H143.966V18.7384ZM144.848 23.9464H147.186V24.9264H144.848V23.9464ZM135.314 20.7684H142.776V21.7204H135.314V20.7684ZM139.108 22.7564C139.705 22.7564 140.232 22.8824 140.69 23.1344C141.156 23.3864 141.52 23.7317 141.782 24.1704C142.052 24.5997 142.188 25.0991 142.188 25.6684C142.188 26.2377 142.052 26.7417 141.782 27.1804C141.52 27.6191 141.156 27.9644 140.69 28.2164C140.232 28.4591 139.705 28.5804 139.108 28.5804C138.51 28.5804 137.978 28.4591 137.512 28.2164C137.054 27.9644 136.69 27.6191 136.42 27.1804C136.149 26.7417 136.014 26.2377 136.014 25.6684C136.014 25.0991 136.149 24.5997 136.42 24.1704C136.69 23.7317 137.054 23.3864 137.512 23.1344C137.978 22.8824 138.51 22.7564 139.108 22.7564ZM139.108 23.7224C138.725 23.7224 138.384 23.8064 138.086 23.9744C137.787 24.1424 137.549 24.3711 137.372 24.6604C137.204 24.9497 137.12 25.2857 137.12 25.6684C137.12 26.0511 137.204 26.3917 137.372 26.6904C137.549 26.9797 137.787 27.2084 138.086 27.3764C138.384 27.5351 138.725 27.6144 139.108 27.6144C139.481 27.6144 139.817 27.5351 140.116 27.3764C140.414 27.2084 140.648 26.9797 140.816 26.6904C140.993 26.3917 141.082 26.0511 141.082 25.6684C141.082 25.2857 140.993 24.9497 140.816 24.6604C140.648 24.3711 140.414 24.1424 140.116 23.9744C139.817 23.8064 139.481 23.7224 139.108 23.7224ZM138.506 18.8924H139.668V21.1884H138.506V18.8924ZM149.481 20.0124H157.629V20.9644H149.481V20.0124ZM148.263 28.6644H159.701V29.6304H148.263V28.6644ZM152.715 24.1424H153.863V29.1544H152.715V24.1424ZM157.181 20.0124H158.343V21.2584C158.343 21.7811 158.333 22.3317 158.315 22.9104C158.305 23.4891 158.268 24.1237 158.203 24.8144C158.147 25.5051 158.039 26.2751 157.881 27.1244L156.705 26.9844C156.947 25.7711 157.087 24.7071 157.125 23.7924C157.162 22.8684 157.181 22.0237 157.181 21.2584V20.0124ZM174.058 18.7524H175.22V25.7804H174.058V18.7524ZM168.136 19.2144H169.102V20.4464C169.102 21.2211 168.953 21.9491 168.654 22.6304C168.356 23.3024 167.936 23.8904 167.394 24.3944C166.853 24.8891 166.223 25.2671 165.504 25.5284L164.916 24.6044C165.402 24.4364 165.84 24.2124 166.232 23.9324C166.624 23.6524 166.96 23.3304 167.24 22.9664C167.53 22.5931 167.749 22.1917 167.898 21.7624C168.057 21.3331 168.136 20.8944 168.136 20.4464V19.2144ZM168.346 19.2144H169.312V20.4464C169.312 20.8851 169.387 21.3097 169.536 21.7204C169.695 22.1217 169.914 22.4951 170.194 22.8404C170.484 23.1857 170.824 23.4891 171.216 23.7504C171.608 24.0117 172.038 24.2171 172.504 24.3664L171.944 25.2904C171.412 25.1131 170.927 24.8657 170.488 24.5484C170.05 24.2311 169.672 23.8624 169.354 23.4424C169.037 23.0224 168.79 22.5604 168.612 22.0564C168.435 21.5431 168.346 21.0064 168.346 20.4464V19.2144ZM166.848 26.5364H175.304V27.4744H166.848V26.5364ZM166.736 30.2884H175.43V31.2404H166.736V30.2884ZM168.584 26.9284H169.732V30.8484H168.584V26.9284ZM172.434 26.9284H173.582V30.8484H172.434V26.9284ZM181.099 19.7184C181.715 19.7184 182.261 19.9004 182.737 20.2644C183.213 20.6191 183.582 21.1277 183.843 21.7904C184.114 22.4531 184.249 23.2324 184.249 24.1284C184.249 25.0244 184.114 25.8037 183.843 26.4664C183.582 27.1291 183.213 27.6424 182.737 28.0064C182.261 28.3704 181.715 28.5524 181.099 28.5524C180.493 28.5524 179.947 28.3704 179.461 28.0064C178.985 27.6424 178.612 27.1291 178.341 26.4664C178.08 25.8037 177.949 25.0244 177.949 24.1284C177.949 23.2324 178.08 22.4531 178.341 21.7904C178.612 21.1277 178.985 20.6191 179.461 20.2644C179.947 19.9004 180.493 19.7184 181.099 19.7184ZM181.099 20.7544C180.698 20.7544 180.343 20.8944 180.035 21.1744C179.727 21.4451 179.485 21.8371 179.307 22.3504C179.139 22.8544 179.055 23.4471 179.055 24.1284C179.055 24.8097 179.139 25.4071 179.307 25.9204C179.485 26.4244 179.727 26.8164 180.035 27.0964C180.343 27.3764 180.698 27.5164 181.099 27.5164C181.51 27.5164 181.869 27.3764 182.177 27.0964C182.485 26.8164 182.723 26.4244 182.891 25.9204C183.069 25.4071 183.157 24.8097 183.157 24.1284C183.157 23.4471 183.069 22.8544 182.891 22.3504C182.723 21.8371 182.485 21.4451 182.177 21.1744C181.869 20.8944 181.51 20.7544 181.099 20.7544ZM186.993 18.7384H188.141V31.4224H186.993V18.7384ZM183.871 23.5684H187.511V24.5064H183.871V23.5684ZM193.418 25.2624H194.566V29.0424H193.418V25.2624ZM198.094 25.2624H199.256V29.0424H198.094V25.2624ZM190.604 28.8184H202.084V29.7844H190.604V28.8184ZM196.316 19.5364C197.212 19.5364 198.006 19.6717 198.696 19.9424C199.387 20.2131 199.928 20.5911 200.32 21.0764C200.722 21.5617 200.922 22.1357 200.922 22.7984C200.922 23.4517 200.722 24.0257 200.32 24.5204C199.928 25.0057 199.387 25.3837 198.696 25.6544C198.006 25.9157 197.212 26.0464 196.316 26.0464C195.43 26.0464 194.636 25.9157 193.936 25.6544C193.246 25.3837 192.704 25.0057 192.312 24.5204C191.92 24.0257 191.724 23.4517 191.724 22.7984C191.724 22.1357 191.92 21.5617 192.312 21.0764C192.704 20.5911 193.246 20.2131 193.936 19.9424C194.636 19.6717 195.43 19.5364 196.316 19.5364ZM196.316 20.4604C195.644 20.4604 195.047 20.5584 194.524 20.7544C194.002 20.9504 193.591 21.2257 193.292 21.5804C192.994 21.9257 192.844 22.3317 192.844 22.7984C192.844 23.2651 192.994 23.6757 193.292 24.0304C193.591 24.3757 194.002 24.6464 194.524 24.8424C195.047 25.0384 195.644 25.1364 196.316 25.1364C196.998 25.1364 197.6 25.0384 198.122 24.8424C198.645 24.6464 199.056 24.3757 199.354 24.0304C199.653 23.6757 199.802 23.2651 199.802 22.7984C199.802 22.3317 199.653 21.9257 199.354 21.5804C199.056 21.2257 198.645 20.9504 198.122 20.7544C197.6 20.5584 196.998 20.4604 196.316 20.4604ZM204.762 30.4109C204.49 30.4109 204.256 30.3147 204.061 30.1225C203.865 29.927 203.768 29.6916 203.768 29.4165C203.768 29.1448 203.865 28.9128 204.061 28.7205C204.256 28.525 204.49 28.4272 204.762 28.4272C205.034 28.4272 205.267 28.525 205.463 28.7205C205.658 28.9128 205.756 29.1448 205.756 29.4165C205.756 29.5988 205.71 29.7662 205.617 29.9187C205.528 30.0678 205.408 30.1871 205.259 30.2766C205.11 30.3661 204.944 30.4109 204.762 30.4109Z" fill="#333333"/>
</svg>
