<svg width="257" height="49" viewBox="0 0 257 49" fill="none" xmlns="http://www.w3.org/2000/svg">
<rect width="257" height="48.7347" rx="23" fill="#FFE3DC" fill-opacity="0.7"/>
<rect x="0.5" y="0.5" width="256" height="47.7347" rx="22.5" stroke="black" stroke-opacity="0.05"/>
<path d="M45.67 22.0454H54.35V22.9974H45.67V22.0454ZM44.2 24.8874H55.68V25.8534H44.2V24.8874ZM49.31 25.4054H50.472V30.4594H49.31V25.4054ZM45.67 18.4334H46.832V22.5074H45.67V18.4334ZM58.5349 18.4614H66.6129V19.4134H58.5349V18.4614ZM57.0789 23.3754H68.5589V24.3134H57.0789V23.3754ZM62.2869 23.9494H63.4349V27.3514H62.2869V23.9494ZM65.9269 18.4614H67.0749V19.4694C67.0749 20.0481 67.0562 20.6874 67.0189 21.3874C66.9816 22.0874 66.8602 22.9134 66.6549 23.8654L65.5069 23.7254C65.7122 22.8108 65.8336 22.0128 65.8709 21.3314C65.9082 20.6501 65.9269 20.0294 65.9269 19.4694V18.4614ZM58.5209 29.2274H67.3269V30.1794H58.5209V29.2274ZM58.5209 26.2174H59.6829V29.4794H58.5209V26.2174ZM78.5258 17.7894H79.6878V30.4454H78.5258V17.7894ZM79.3798 22.9274H81.7038V23.8934H79.3798V22.9274ZM75.2918 19.1474H76.4258C76.4258 20.3514 76.2298 21.5041 75.8378 22.6054C75.4458 23.6974 74.8298 24.7101 73.9898 25.6434C73.1498 26.5674 72.0438 27.3701 70.6718 28.0514L70.0278 27.1554C71.2038 26.5674 72.1791 25.8814 72.9538 25.0974C73.7378 24.3041 74.3211 23.4268 74.7038 22.4654C75.0958 21.4948 75.2918 20.4494 75.2918 19.3294V19.1474ZM70.6158 19.1474H75.8798V20.1134H70.6158V19.1474ZM87.9747 22.7174H90.3547V23.6694H87.9747V22.7174ZM92.4827 17.7894H93.6027V30.4594H92.4827V17.7894ZM89.9627 18.0554H91.0687V29.8154H89.9627V18.0554ZM85.6787 18.8534C86.2294 18.8534 86.7054 19.0308 87.1067 19.3854C87.5174 19.7401 87.8347 20.2488 88.0587 20.9114C88.2827 21.5741 88.3947 22.3534 88.3947 23.2494C88.3947 24.1548 88.2827 24.9388 88.0587 25.6014C87.8347 26.2641 87.5174 26.7774 87.1067 27.1414C86.7054 27.4961 86.2294 27.6734 85.6787 27.6734C85.1467 27.6734 84.6754 27.4961 84.2647 27.1414C83.8634 26.7774 83.5507 26.2641 83.3267 25.6014C83.1027 24.9388 82.9907 24.1548 82.9907 23.2494C82.9907 22.3534 83.1027 21.5741 83.3267 20.9114C83.5507 20.2488 83.8634 19.7401 84.2647 19.3854C84.6754 19.0308 85.1467 18.8534 85.6787 18.8534ZM85.6787 19.9314C85.3521 19.9314 85.0674 20.0668 84.8247 20.3374C84.5821 20.6081 84.3954 20.9908 84.2647 21.4854C84.1341 21.9801 84.0687 22.5681 84.0687 23.2494C84.0687 23.9308 84.1341 24.5234 84.2647 25.0274C84.3954 25.5221 84.5821 25.9048 84.8247 26.1754C85.0674 26.4461 85.3521 26.5814 85.6787 26.5814C86.0147 26.5814 86.3041 26.4461 86.5467 26.1754C86.7987 25.9048 86.9901 25.5221 87.1207 25.0274C87.2514 24.5234 87.3167 23.9308 87.3167 23.2494C87.3167 22.5681 87.2514 21.9801 87.1207 21.4854C86.9901 20.9908 86.7987 20.6081 86.5467 20.3374C86.3041 20.0668 86.0147 19.9314 85.6787 19.9314ZM105.362 17.7894H106.482V30.4594H105.362V17.7894ZM99.8596 22.9694H103.052V23.9074H99.8596V22.9694ZM102.73 18.1254H103.822V29.8154H102.73V18.1254ZM100.014 19.3994H101.134C101.134 20.5008 100.975 21.5601 100.658 22.5774C100.35 23.5854 99.8456 24.5281 99.1456 25.4054C98.4456 26.2734 97.5263 27.0481 96.3876 27.7294L95.7156 26.8894C96.705 26.2921 97.517 25.6201 98.1516 24.8734C98.7863 24.1174 99.253 23.3008 99.5516 22.4234C99.8596 21.5368 100.014 20.5988 100.014 19.6094V19.3994ZM96.2616 19.3994H100.448V20.3514H96.2616V19.3994ZM116.43 18.3914C117.064 18.3914 117.624 18.5034 118.11 18.7274C118.595 18.9421 118.973 19.2454 119.244 19.6374C119.524 20.0201 119.664 20.4728 119.664 20.9954C119.664 21.4994 119.524 21.9521 119.244 22.3534C118.973 22.7454 118.595 23.0534 118.11 23.2774C117.624 23.4921 117.064 23.5994 116.43 23.5994C115.814 23.5994 115.263 23.4921 114.778 23.2774C114.292 23.0534 113.91 22.7454 113.63 22.3534C113.35 21.9521 113.21 21.4994 113.21 20.9954C113.21 20.4728 113.35 20.0201 113.63 19.6374C113.91 19.2454 114.292 18.9421 114.778 18.7274C115.263 18.5034 115.814 18.3914 116.43 18.3914ZM116.43 19.3434C116.028 19.3434 115.669 19.4134 115.352 19.5534C115.034 19.6934 114.782 19.8894 114.596 20.1414C114.418 20.3841 114.33 20.6688 114.33 20.9954C114.33 21.3128 114.418 21.5974 114.596 21.8494C114.782 22.0921 115.034 22.2834 115.352 22.4234C115.669 22.5634 116.028 22.6334 116.43 22.6334C116.85 22.6334 117.218 22.5634 117.536 22.4234C117.853 22.2834 118.1 22.0921 118.278 21.8494C118.464 21.5974 118.558 21.3128 118.558 20.9954C118.558 20.6688 118.464 20.3841 118.278 20.1414C118.1 19.8894 117.853 19.6934 117.536 19.5534C117.218 19.4134 116.85 19.3434 116.43 19.3434ZM115.926 25.0134H117.088V30.0674H115.926V25.0134ZM121.526 17.8034H122.674V30.4594H121.526V17.8034ZM112.426 25.6434L112.272 24.6634C113.056 24.6634 113.914 24.6541 114.848 24.6354C115.79 24.6168 116.756 24.5748 117.746 24.5094C118.744 24.4441 119.701 24.3414 120.616 24.2014L120.7 25.0694C119.757 25.2468 118.796 25.3774 117.816 25.4614C116.836 25.5361 115.884 25.5828 114.96 25.6014C114.045 25.6201 113.2 25.6341 112.426 25.6434ZM125.179 27.9254H136.659V28.8914H125.179V27.9254ZM130.317 25.2234H131.465V28.3314H130.317V25.2234ZM126.579 18.7274H135.231V22.5634H127.755V25.0974H126.607V21.6394H134.083V19.6794H126.579V18.7274ZM126.607 24.6074H135.525V25.5594H126.607V24.6074ZM150.429 17.7894H151.591V25.1954H150.429V17.7894ZM151.269 20.8414H153.453V21.8074H151.269V20.8414ZM142.281 18.5034H143.429V20.4354H146.999V18.5034H148.147V24.4114H142.281V18.5034ZM143.429 21.3594V23.4734H146.999V21.3594H143.429ZM143.667 25.8954H151.689V26.8334H144.829V30.0114H143.667V25.8954ZM143.667 29.3394H151.927V30.2774H143.667V29.3394ZM155.859 19.0634H164.007V20.0154H155.859V19.0634ZM154.641 27.7154H166.079V28.6814H154.641V27.7154ZM159.093 23.1934H160.241V28.2054H159.093V23.1934ZM163.559 19.0634H164.721V20.3094C164.721 20.8321 164.712 21.3828 164.693 21.9614C164.684 22.5401 164.647 23.1748 164.581 23.8654C164.525 24.5561 164.418 25.3261 164.259 26.1754L163.083 26.0354C163.326 24.8221 163.466 23.7581 163.503 22.8434C163.541 21.9194 163.559 21.0748 163.559 20.3094V19.0634ZM180.437 17.8034H181.599V24.8314H180.437V17.8034ZM174.515 18.2654H175.481V19.4974C175.481 20.2721 175.332 21.0001 175.033 21.6814C174.735 22.3534 174.315 22.9414 173.773 23.4454C173.232 23.9401 172.602 24.3181 171.883 24.5794L171.295 23.6554C171.781 23.4874 172.219 23.2634 172.611 22.9834C173.003 22.7034 173.339 22.3814 173.619 22.0174C173.909 21.6441 174.128 21.2428 174.277 20.8134C174.436 20.3841 174.515 19.9454 174.515 19.4974V18.2654ZM174.725 18.2654H175.691V19.4974C175.691 19.9361 175.766 20.3608 175.915 20.7714C176.074 21.1728 176.293 21.5461 176.573 21.8914C176.863 22.2368 177.203 22.5401 177.595 22.8014C177.987 23.0628 178.417 23.2681 178.883 23.4174L178.323 24.3414C177.791 24.1641 177.306 23.9168 176.867 23.5994C176.429 23.2821 176.051 22.9134 175.733 22.4934C175.416 22.0734 175.169 21.6114 174.991 21.1074C174.814 20.5941 174.725 20.0574 174.725 19.4974V18.2654ZM173.227 25.5874H181.683V26.5254H173.227V25.5874ZM173.115 29.3394H181.809V30.2914H173.115V29.3394ZM174.963 25.9794H176.111V29.8994H174.963V25.9794ZM178.813 25.9794H179.961V29.8994H178.813V25.9794ZM187.478 18.7694C188.094 18.7694 188.64 18.9514 189.116 19.3154C189.592 19.6701 189.961 20.1788 190.222 20.8414C190.493 21.5041 190.628 22.2834 190.628 23.1794C190.628 24.0754 190.493 24.8548 190.222 25.5174C189.961 26.1801 189.592 26.6934 189.116 27.0574C188.64 27.4214 188.094 27.6034 187.478 27.6034C186.872 27.6034 186.326 27.4214 185.84 27.0574C185.364 26.6934 184.991 26.1801 184.72 25.5174C184.459 24.8548 184.328 24.0754 184.328 23.1794C184.328 22.2834 184.459 21.5041 184.72 20.8414C184.991 20.1788 185.364 19.6701 185.84 19.3154C186.326 18.9514 186.872 18.7694 187.478 18.7694ZM187.478 19.8054C187.077 19.8054 186.722 19.9454 186.414 20.2254C186.106 20.4961 185.864 20.8881 185.686 21.4014C185.518 21.9054 185.434 22.4981 185.434 23.1794C185.434 23.8608 185.518 24.4581 185.686 24.9714C185.864 25.4754 186.106 25.8674 186.414 26.1474C186.722 26.4274 187.077 26.5674 187.478 26.5674C187.889 26.5674 188.248 26.4274 188.556 26.1474C188.864 25.8674 189.102 25.4754 189.27 24.9714C189.448 24.4581 189.536 23.8608 189.536 23.1794C189.536 22.4981 189.448 21.9054 189.27 21.4014C189.102 20.8881 188.864 20.4961 188.556 20.2254C188.248 19.9454 187.889 19.8054 187.478 19.8054ZM193.372 17.7894H194.52V30.4734H193.372V17.7894ZM190.25 22.6194H193.89V23.5574H190.25V22.6194ZM199.797 24.3134H200.945V28.0934H199.797V24.3134ZM204.473 24.3134H205.635V28.0934H204.473V24.3134ZM196.983 27.8694H208.463V28.8354H196.983V27.8694ZM202.695 18.5874C203.591 18.5874 204.385 18.7228 205.075 18.9934C205.766 19.2641 206.307 19.6421 206.699 20.1274C207.101 20.6128 207.301 21.1868 207.301 21.8494C207.301 22.5028 207.101 23.0768 206.699 23.5714C206.307 24.0568 205.766 24.4348 205.075 24.7054C204.385 24.9668 203.591 25.0974 202.695 25.0974C201.809 25.0974 201.015 24.9668 200.315 24.7054C199.625 24.4348 199.083 24.0568 198.691 23.5714C198.299 23.0768 198.103 22.5028 198.103 21.8494C198.103 21.1868 198.299 20.6128 198.691 20.1274C199.083 19.6421 199.625 19.2641 200.315 18.9934C201.015 18.7228 201.809 18.5874 202.695 18.5874ZM202.695 19.5114C202.023 19.5114 201.426 19.6094 200.903 19.8054C200.381 20.0014 199.97 20.2768 199.671 20.6314C199.373 20.9768 199.223 21.3828 199.223 21.8494C199.223 22.3161 199.373 22.7268 199.671 23.0814C199.97 23.4268 200.381 23.6974 200.903 23.8934C201.426 24.0894 202.023 24.1874 202.695 24.1874C203.377 24.1874 203.979 24.0894 204.501 23.8934C205.024 23.6974 205.435 23.4268 205.733 23.0814C206.032 22.7268 206.181 22.3161 206.181 21.8494C206.181 21.3828 206.032 20.9768 205.733 20.6314C205.435 20.2768 205.024 20.0014 204.501 19.8054C203.979 19.6094 203.377 19.5114 202.695 19.5114ZM211.141 29.4619C210.869 29.4619 210.635 29.3658 210.44 29.1735C210.244 28.978 210.146 28.7427 210.146 28.4676C210.146 28.1958 210.244 27.9638 210.44 27.7716C210.635 27.576 210.869 27.4782 211.141 27.4782C211.413 27.4782 211.646 27.576 211.842 27.7716C212.037 27.9638 212.135 28.1958 212.135 28.4676C212.135 28.6499 212.089 28.8172 211.996 28.9697C211.906 29.1189 211.787 29.2382 211.638 29.3277C211.489 29.4171 211.323 29.4619 211.141 29.4619Z" fill="#333333"/>
</svg>
